<?xml version="1.0" encoding="UTF-8" standalone="no"?>
<!DOCTYPE svg PUBLIC "-//W3C//DTD SVG 1.1//EN" "http://www.w3.org/Graphics/SVG/1.1/DTD/svg11.dtd">
<!-- Generated by Microsoft Visio, SVG Export ContinuationTask.svg Page-1 -->
<svg xmlns="http://www.w3.org/2000/svg" xmlns:xlink="http://www.w3.org/1999/xlink" xmlns:ev="http://www.w3.org/2001/xml-events"
		width="5.4809in" height="2.11458in" viewBox="0 0 394.625 152.25" xml:space="preserve" color-interpolation-filters="sRGB"
		class="st12">
	<style type="text/css">
	<![CDATA[
		.st1 {marker-start:url(#mrkr4-6);stroke:#002060;stroke-linecap:round;stroke-linejoin:round;stroke-width:2}
		.st2 {fill:#002060;fill-opacity:1;stroke:#002060;stroke-opacity:1;stroke-width:0.44247787610619}
		.st3 {fill:#ffffff;stroke:#d8d8d8;stroke-linecap:round;stroke-linejoin:round;stroke-width:1}
		.st4 {fill:none;stroke:none;stroke-linecap:round;stroke-linejoin:round;stroke-width:0.75}
		.st5 {fill:#d8d8d8;font-family:Calibri;font-size:1.00001em}
		.st6 {fill:#ffffff;stroke:#002060;stroke-linecap:round;stroke-linejoin:round;stroke-width:1}
		.st7 {marker-end:url(#mrkr4-29);stroke:#000000;stroke-dasharray:5.25,3.75;stroke-linecap:round;stroke-linejoin:round;stroke-width:0.75}
		.st8 {fill:#000000;fill-opacity:1;stroke:#000000;stroke-opacity:1;stroke-width:0.22935779816514}
		.st9 {fill:#000000;font-family:Calibri;font-size:1.00001em}
		.st10 {fill:#000000;font-family:Calibri;font-size:0.666664em}
		.st11 {fill:#d8d8d8;font-family:Calibri;font-size:0.666664em}
		.st12 {fill:none;fill-rule:evenodd;font-size:12px;overflow:visible;stroke-linecap:square;stroke-miterlimit:3}
	]]>
	</style>

	<defs id="Markers">
		<g id="lend4">
			<path d="M 2 1 L 0 0 L 2 -1 L 2 1 " style="stroke:none"/>
		</g>
		<marker id="mrkr4-6" class="st2" refX="4.34" orient="auto" markerUnits="strokeWidth" overflow="visible">
			<use xlink:href="#lend4" transform="scale(2.26) "/>
		</marker>
		<marker id="mrkr4-29" class="st8" refX="-8.24" orient="auto" markerUnits="strokeWidth" overflow="visible">
			<use xlink:href="#lend4" transform="scale(-4.36,-4.36) "/>
		</marker>
	</defs>
	<g>
		<title>Page-1</title>
		<g id="shape68-1" transform="translate(81.9023,-67.4023)">
			<title>Dynamic connector.68</title>
			<path d="M8.68 143.25 L9.04 143.25 L68.26 143.25" class="st1"/>
		</g>
		<g id="shape53-7" transform="translate(229.535,-60.875)">
			<title>Circle.53</title>
			<path d="M0 136.72 A15.5273 15.5273 0 0 1 31.05 136.72 A15.5273 15.5273 0 1 1 0 136.72 Z" class="st3"/>
		</g>
		<g id="shape55-9" transform="translate(220.937,-92.375)">
			<title>Sheet.55</title>
			<desc>parent</desc>
			<rect x="0" y="132.25" width="48.25" height="20" class="st4"/>
			<text x="7.86" y="145.85" class="st5">parent</text>		</g>
		<g id="shape50-12" transform="translate(165.687,-60.875)">
			<title>Dynamic connector.50</title>
			<path d="M0 160.93 L0 161.29 L0 177.22 L143.91 177.22" class="st1"/>
		</g>
		<g id="shape52-17" transform="translate(165.687,-91.9295)">
			<title>Dynamic connector.52</title>
			<path d="M0 143.57 L0 143.21 L0 129.3 L143.91 129.3" class="st1"/>
		</g>
		<g id="shape54-22" transform="translate(309.598,-99.3477)">
			<title>Circle.54</title>
			<path d="M0 136.72 A15.5273 15.5273 0 0 1 31.05 136.72 A15.5273 15.5273 0 1 1 0 136.72 Z" class="st6"/>
		</g>
		<g id="shape56-24" transform="translate(66.375,-54.1482)">
			<title>Dynamic connector.56</title>
			<path d="M0 145.52 C0 159.02 7.13 159.02 12.52 157.93 C28.4 154.72 29 142 81.79 141.04 L82.15 141.03" class="st7"/>
		</g>
		<g id="shape57-30" transform="translate(50.8477,-60.875)">
			<title>Circle.57</title>
			<path d="M0 136.72 A15.5273 15.5273 0 0 1 31.05 136.72 A15.5273 15.5273 0 1 1 0 136.72 Z" class="st6"/>
		</g>
		<g id="shape58-32" transform="translate(17.1875,-92.3437)">
			<title>Sheet.58</title>
			<desc>parent’s parent</desc>
			<rect x="0" y="132.25" width="98.375" height="20" class="st4"/>
			<text x="11.46" y="145.85" class="st9">parent’s parent</text>		</g>
		<g id="shape59-35" transform="translate(309.598,-20.375)">
			<title>Circle.59</title>
			<path d="M0 136.72 A15.5273 15.5273 0 0 1 31.05 136.72 A15.5273 15.5273 0 1 1 0 136.72 Z" class="st6"/>
		</g>
		<g id="shape62-37" transform="translate(301,-131.875)">
			<title>Sheet.62</title>
			<desc>child 1</desc>
			<rect x="0" y="132.25" width="48.25" height="20" class="st4"/>
			<text x="8.13" y="145.85" class="st9">child 1</text>		</g>
		<g id="shape63-40" transform="translate(301,-0.375)">
			<title>Sheet.63</title>
			<desc>child 2</desc>
			<rect x="0" y="132.25" width="48.25" height="20" class="st4"/>
			<text x="8.13" y="145.85" class="st9">child 2</text>		</g>
		<g id="shape64-43" transform="translate(50.8477,-60.875)">
			<title>Circle.64</title>
			<path d="M0 136.72 A15.5273 15.5273 0 0 1 31.05 136.72 A15.5273 15.5273 0 1 1 0 136.72 Z" class="st6"/>
		</g>
		<g id="shape66-45" transform="translate(150.16,-60.875)">
			<title>Circle.66</title>
			<path d="M0 136.72 A15.5273 15.5273 0 0 1 31.05 136.72 A15.5273 15.5273 0 1 1 0 136.72 Z" class="st6"/>
		</g>
		<g id="shape67-47" transform="translate(123.562,-118.93)">
			<title>Sheet.67</title>
			<desc>continuation</desc>
			<rect x="0" y="132.25" width="75.25" height="20" class="st4"/>
			<text x="6.5" y="145.85" class="st9">continuation</text>		</g>
		<g id="shape71-50" transform="translate(176.668,-86.6386)">
			<title>Dynamic connector.71</title>
			<path d="M0 151.51 C34.37 151.51 63.74 151.51 90.04 151.51 C109.91 151.51 128.03 151.51 134.24 146.15 C135.73 144.87
						 136.54 143.27 136.97 141.52 L137 141.16" class="st7"/>
		</g>
		<g id="shape72-55" transform="translate(176.668,-65.4214)">
			<title>Dynamic connector.72</title>
			<path d="M0 152.25 C34.37 152.25 63.71 152.25 89.97 152.25 C109.84 152.25 127.94 152.25 134.19 158.22 C135.91 159.86
						 136.73 161.96 137.12 164.26 L137.14 164.62" class="st7"/>
		</g>
		<g id="shape75-60" transform="translate(180.375,-66.4023)">
			<title>Sheet.75</title>
			<desc>ref count = 3</desc>
			<rect x="0" y="132.25" width="51.875" height="20" class="st4"/>
			<text x="5.26" y="144.65" class="st10">ref count = 3</text>		</g>
		<g id="shape76-63" transform="translate(341.313,-104.875)">
			<title>Sheet.76</title>
			<desc>ref count = 1</desc>
			<rect x="0" y="132.25" width="51.875" height="20" class="st4"/>
			<text x="5.26" y="144.65" class="st10">ref count = 1</text>		</g>
		<g id="shape77-66" transform="translate(342.375,-25.9023)">
			<title>Sheet.77</title>
			<desc>ref count = 1</desc>
			<rect x="0" y="132.25" width="51.875" height="20" class="st4"/>
			<text x="5.26" y="144.65" class="st10">ref count = 1</text>		</g>
		<g id="shape78-69" transform="translate(263.305,-66.4023)">
			<title>Sheet.78</title>
			<desc>ref count = 1</desc>
			<rect x="0" y="132.25" width="51.875" height="20" class="st4"/>
			<text x="5.26" y="144.65" class="st11">ref count = 1</text>		</g>
		<g id="shape79-72" transform="translate(0.375,-66.4023)">
			<title>Sheet.79</title>
			<desc>ref count = 2</desc>
			<rect x="0" y="132.25" width="51.875" height="20" class="st4"/>
			<text x="5.26" y="144.65" class="st10">ref count = 2</text>		</g>
	</g>
</svg>
