<?xml version="1.0" encoding="UTF-8" standalone="no"?>
<!DOCTYPE svg PUBLIC "-//W3C//DTD SVG 1.1//EN" "http://www.w3.org/Graphics/SVG/1.1/DTD/svg11.dtd">
<!-- Generated by Microsoft Visio, SVG Export EfficiencyClass.svg Page-1 -->
<svg xmlns="http://www.w3.org/2000/svg" xmlns:xlink="http://www.w3.org/1999/xlink" xmlns:ev="http://www.w3.org/2001/xml-events"
		width="5.5174in" height="4.2299in" viewBox="0 0 397.253 304.553" xml:space="preserve" color-interpolation-filters="sRGB"
		class="st18">
	<style type="text/css">
	<![CDATA[
		.st1 {fill:#cbd8ef;stroke:#000000;stroke-linecap:round;stroke-linejoin:round;stroke-width:0.24}
		.st2 {fill:#000000;font-family:Calibri;font-size:0.833336em}
		.st3 {fill:#d8d8d8;stroke:#000000;stroke-linecap:round;stroke-linejoin:round;stroke-width:0.24}
		.st4 {fill:#000000;font-family:Calibri;font-size:0.666664em}
		.st5 {fill:#eee7a4;stroke:#000000;stroke-linecap:round;stroke-linejoin:round;stroke-width:0.24}
		.st6 {fill:#000000;stroke:#000000;stroke-linecap:round;stroke-linejoin:round;stroke-width:0.24}
		.st7 {fill:#f2f2f2;stroke:#000000;stroke-linecap:round;stroke-linejoin:round;stroke-width:0.24}
		.st8 {fill:#ffffff;stroke:#000000;stroke-linecap:round;stroke-linejoin:round;stroke-width:0.24}
		.st9 {fill:#f8f4d6;stroke:#000000;stroke-linecap:round;stroke-linejoin:round;stroke-width:0.24}
		.st10 {fill:#ddd6e5;stroke:#000000;stroke-linecap:round;stroke-linejoin:round;stroke-width:0.24}
		.st11 {font-size:1em}
		.st12 {stroke:#000000;stroke-linecap:round;stroke-linejoin:round;stroke-width:0.75}
		.st13 {stroke:#000000;stroke-dasharray:1.68,1.2;stroke-linecap:round;stroke-linejoin:round;stroke-width:0.24}
		.st14 {marker-end:url(#mrkr4-131);stroke:#f59d56;stroke-linecap:round;stroke-linejoin:round;stroke-width:1}
		.st15 {fill:#f59d56;fill-opacity:1;stroke:#f59d56;stroke-opacity:1;stroke-width:0.28409090909091}
		.st16 {fill:#ffffff;stroke:none;stroke-linecap:butt;stroke-width:7.2}
		.st17 {fill:#f59d56;font-family:Calibri;font-size:0.666664em}
		.st18 {fill:none;fill-rule:evenodd;font-size:12px;overflow:visible;stroke-linecap:square;stroke-miterlimit:3}
	]]>
	</style>

	<defs id="Markers">
		<g id="lend4">
			<path d="M 2 1 L 0 0 L 2 -1 L 2 1 " style="stroke:none"/>
		</g>
		<marker id="mrkr4-131" class="st15" refX="-7.04" orient="auto" markerUnits="strokeWidth" overflow="visible">
			<use xlink:href="#lend4" transform="scale(-3.52,-3.52) "/>
		</marker>
	</defs>
	<g>
		<title>Page-1</title>
		<g id="shape1367-1" transform="translate(86.633,-0.12)">
			<title>Rectangle.1367</title>
			<desc>Group</desc>
			<rect x="0" y="193.74" width="234" height="110.813" class="st1"/>
			<text x="104.21" y="206.74" class="st2">Group</text>		</g>
		<g id="shape1448-4" transform="translate(92.258,-4.62)">
			<title>Rectangle.1448</title>
			<desc>Efficiency Class 0</desc>
			<rect x="0" y="218.49" width="105.197" height="86.0625" class="st3"/>
			<text x="25.15" y="229.69" class="st4">Efficiency Class 0</text>		</g>
		<g id="shape1366-7" transform="translate(12.3455,-127.245)">
			<title>Rectangle.1366</title>
			<desc>Worker Pool</desc>
			<rect x="0" y="216.802" width="171" height="87.75" class="st5"/>
			<text x="60.03" y="297.55" class="st2">Worker Pool</text>		</g>
		<g id="group1368-10" transform="translate(139.714,-40.2194)">
			<title>Sheet.1368</title>
			<g id="shape1369-11">
				<title>Circle.126</title>
				<path d="M0 303.62 a0.9375 0.9375 0 1 1 1.875 -5.68434E-14 a0.9375 0.9375 0 1 1 -1.875 0 Z" class="st6"/>
			</g>
			<g id="shape1370-13" transform="translate(4.5,0)">
				<title>Circle.127</title>
				<path d="M0 303.62 a0.9375 0.9375 0 1 1 1.875 -5.68434E-14 a0.9375 0.9375 0 1 1 -1.875 0 Z" class="st6"/>
			</g>
			<g id="shape1371-15" transform="translate(9,0)">
				<title>Circle.128</title>
				<path d="M0 303.62 a0.9375 0.9375 0 1 1 1.875 -5.68434E-14 a0.9375 0.9375 0 1 1 -1.875 0 Z" class="st6"/>
			</g>
		</g>
		<g id="shape1372-17" transform="translate(97.9017,-10.1938)">
			<title>Rectangle.1372</title>
			<desc>Core</desc>
			<rect x="0" y="240.376" width="40.5" height="64.1761" class="st7"/>
			<text x="12.62" y="251.58" class="st4">Core</text>		</g>
		<g id="shape1373-20" transform="translate(151.902,-10.1938)">
			<title>Rectangle.1373</title>
			<desc>Core</desc>
			<rect x="0" y="240.376" width="40.5" height="64.1761" class="st7"/>
			<text x="12.62" y="251.58" class="st4">Core</text>		</g>
		<g id="group1374-23" transform="translate(155.277,-13.62)">
			<title>Sheet.1374</title>
			<g id="shape1375-24" transform="translate(-288.803,304.553) rotate(-90)">
				<title>Rectangle.342</title>
				<desc>Processor</desc>
				<rect x="0" y="288.803" width="45" height="15.75" class="st8"/>
				<text x="6.62" y="299.08" class="st4">Processor</text>			</g>
			<g id="shape1376-27" transform="translate(-270.803,304.553) rotate(-90)">
				<title>Rectangle.343</title>
				<desc>Processor</desc>
				<rect x="0" y="288.803" width="45" height="15.75" class="st8"/>
				<text x="6.62" y="299.08" class="st4">Processor</text>			</g>
		</g>
		<g id="group1377-30" transform="translate(101.277,-13.62)">
			<title>Sheet.1377</title>
			<g id="shape1378-31" transform="translate(-288.803,304.553) rotate(-90)">
				<title>Rectangle.342</title>
				<desc>Processor</desc>
				<rect x="0" y="288.803" width="45" height="15.75" class="st8"/>
				<text x="6.62" y="299.08" class="st4">Processor</text>			</g>
			<g id="shape1379-34" transform="translate(-270.803,304.553) rotate(-90)">
				<title>Rectangle.343</title>
				<desc>Processor</desc>
				<rect x="0" y="288.803" width="45" height="15.75" class="st8"/>
				<text x="6.62" y="299.08" class="st4">Processor</text>			</g>
		</g>
		<g id="group1380-37" transform="translate(92.408,-180.282)">
			<title>Sheet.1380</title>
			<g id="shape1381-38">
				<title>Circle.126</title>
				<path d="M0 303.62 a0.9375 0.9375 0 1 1 1.875 0 a0.9375 0.9375 0 1 1 -1.875 0 Z" class="st6"/>
			</g>
			<g id="shape1382-40" transform="translate(4.5,0)">
				<title>Circle.127</title>
				<path d="M0 303.62 a0.9375 0.9375 0 1 1 1.875 0 a0.9375 0.9375 0 1 1 -1.875 0 Z" class="st6"/>
			</g>
			<g id="shape1383-42" transform="translate(9,0)">
				<title>Circle.128</title>
				<path d="M0 303.62 a0.9375 0.9375 0 1 1 1.875 0 a0.9375 0.9375 0 1 1 -1.875 0 Z" class="st6"/>
			</g>
		</g>
		<g id="group1384-44" transform="translate(-215.707,157.138) rotate(-90)">
			<title>Sheet.1384</title>
			<g id="shape1385-45">
				<title>Rectangle.400</title>
				<desc>Worker</desc>
				<rect x="0" y="270.803" width="59.7857" height="33.75" class="st9"/>
				<text x="17.63" y="282" class="st4">Worker</text>			</g>
			<g id="shape1386-48" transform="translate(4.98212,-3.37498)">
				<title>Rectangle.399</title>
				<desc>SW Thread</desc>
				<rect x="0" y="288.803" width="49.8214" height="15.75" class="st8"/>
				<text x="7.16" y="299.08" class="st4">SW Thread</text>			</g>
		</g>
		<g id="group1387-51" transform="translate(-251.707,157.138) rotate(-90)">
			<title>Sheet.1387</title>
			<g id="shape1388-52">
				<title>Rectangle.400</title>
				<desc>Worker</desc>
				<rect x="0" y="270.803" width="59.7857" height="33.75" class="st9"/>
				<text x="17.63" y="282" class="st4">Worker</text>			</g>
			<g id="shape1389-55" transform="translate(4.98212,-3.37498)">
				<title>Rectangle.399</title>
				<desc>SW Thread</desc>
				<rect x="0" y="288.803" width="49.8214" height="15.75" class="st8"/>
				<text x="7.16" y="299.08" class="st4">SW Thread</text>			</g>
		</g>
		<g id="group1390-58" transform="translate(-127.957,157.138) rotate(-90)">
			<title>Sheet.1390</title>
			<g id="shape1391-59">
				<title>Rectangle.400</title>
				<desc>Worker</desc>
				<rect x="0" y="270.803" width="59.7857" height="33.75" class="st9"/>
				<text x="17.63" y="282" class="st4">Worker</text>			</g>
			<g id="shape1392-62" transform="translate(4.98212,-3.37498)">
				<title>Rectangle.399</title>
				<desc>SW Thread</desc>
				<rect x="0" y="288.803" width="49.8214" height="15.75" class="st8"/>
				<text x="7.16" y="299.08" class="st4">SW Thread</text>			</g>
		</g>
		<g id="group1393-65" transform="translate(-163.957,157.138) rotate(-90)">
			<title>Sheet.1393</title>
			<g id="shape1394-66">
				<title>Rectangle.400</title>
				<desc>Worker</desc>
				<rect x="0" y="270.803" width="59.7857" height="33.75" class="st9"/>
				<text x="17.63" y="282" class="st4">Worker</text>			</g>
			<g id="shape1395-69" transform="translate(4.98212,-3.37498)">
				<title>Rectangle.399</title>
				<desc>SW Thread</desc>
				<rect x="0" y="288.803" width="49.8214" height="15.75" class="st8"/>
				<text x="7.16" y="299.08" class="st4">SW Thread</text>			</g>
		</g>
		<g id="shape1396-72" transform="translate(12.383,-221.745)">
			<title>Rectangle.1396</title>
			<desc>Micro-scheduler</desc>
			<rect x="0" y="221.865" width="171" height="82.6875" class="st10"/>
			<text x="52.24" y="234.87" class="st2">Micro-scheduler</text>		</g>
		<g id="group1397-75" transform="translate(-215.67,74.37) rotate(-90)">
			<title>Sheet.1397</title>
			<g id="shape1398-76">
				<title>Rectangle.400</title>
				<desc>Local Scheduler</desc>
				<rect x="0" y="270.803" width="54" height="33.75" class="st8"/>
				<text x="18.68" y="285.28" class="st4">Local <tspan x="10.87" dy="1.2em" class="st11">Scheduler</tspan></text>			</g>
		</g>
		<g id="group1399-80" transform="translate(-251.67,74.37) rotate(-90)">
			<title>Sheet.1399</title>
			<g id="shape1400-81">
				<title>Rectangle.400</title>
				<desc>Local Scheduler</desc>
				<rect x="0" y="270.803" width="54" height="33.75" class="st8"/>
				<text x="18.68" y="285.28" class="st4">Local <tspan x="10.87" dy="1.2em" class="st11">Scheduler</tspan></text>			</g>
		</g>
		<g id="group1401-85" transform="translate(-127.92,74.37) rotate(-90)">
			<title>Sheet.1401</title>
			<g id="shape1402-86">
				<title>Rectangle.400</title>
				<desc>Local Scheduler</desc>
				<rect x="0" y="270.803" width="54" height="33.75" class="st8"/>
				<text x="18.68" y="285.28" class="st4">Local <tspan x="10.87" dy="1.2em" class="st11">Scheduler</tspan></text>			</g>
		</g>
		<g id="group1403-90" transform="translate(-163.92,74.37) rotate(-90)">
			<title>Sheet.1403</title>
			<g id="shape1404-91">
				<title>Rectangle.400</title>
				<desc>Local Scheduler</desc>
				<rect x="0" y="270.803" width="54" height="33.75" class="st8"/>
				<text x="18.68" y="285.28" class="st4">Local <tspan x="10.87" dy="1.2em" class="st11">Scheduler</tspan></text>			</g>
		</g>
		<g id="group1405-95" transform="translate(92.4455,-256.782)">
			<title>Sheet.1405</title>
			<g id="shape1406-96">
				<title>Circle.126</title>
				<path d="M0 303.62 a0.9375 0.9375 0 1 1 1.875 0 a0.9375 0.9375 0 1 1 -1.875 0 Z" class="st6"/>
			</g>
			<g id="shape1407-98" transform="translate(4.5,0)">
				<title>Circle.127</title>
				<path d="M0 303.62 a0.9375 0.9375 0 1 1 1.875 0 a0.9375 0.9375 0 1 1 -1.875 0 Z" class="st6"/>
			</g>
			<g id="shape1408-100" transform="translate(9,0)">
				<title>Circle.128</title>
				<path d="M0 303.62 a0.9375 0.9375 0 1 1 1.875 0 a0.9375 0.9375 0 1 1 -1.875 0 Z" class="st6"/>
			</g>
		</g>
		<g id="shape1409-102" transform="translate(26.9893,-207.2)">
			<title>Dynamic connector.1409</title>
			<path d="M8.98 304.55 L9.02 281.57" class="st12"/>
		</g>
		<g id="shape1410-105" transform="translate(80.9893,-230.183)">
			<title>Dynamic connector.1410</title>
			<path d="M-8.98 304.55 L-9.02 327.53" class="st12"/>
		</g>
		<g id="shape1411-108" transform="translate(114.739,-207.2)">
			<title>Dynamic connector.1411</title>
			<path d="M8.98 304.55 L9.02 281.57" class="st12"/>
		</g>
		<g id="shape1412-111" transform="translate(168.739,-230.183)">
			<title>Dynamic connector.1412</title>
			<path d="M-8.98 304.55 L-9.02 327.53" class="st12"/>
		</g>
		<g id="shape1413-114" transform="translate(267.499,11.0284) rotate(56.9084)">
			<title>Multi-Line.1413</title>
			<path d="M0 304.55 L146.37 304.55" class="st13"/>
		</g>
		<g id="shape1428-117" transform="translate(528.291,127.374) rotate(97.1328)">
			<title>Multi-Line.1428</title>
			<path d="M0 304.55 L126.39 304.55" class="st13"/>
		</g>
		<g id="shape1433-120" transform="translate(485.955,55.2116) rotate(83.5247)">
			<title>Multi-Line.1433</title>
			<path d="M0 304.55 L125.11 304.55" class="st13"/>
		</g>
		<g id="shape1434-123" transform="translate(649.913,347.118) rotate(123.888)">
			<title>Multi-Line.1434</title>
			<path d="M0 304.55 L147.72 304.55" class="st13"/>
		</g>
		<g id="shape1435-126" transform="translate(183.383,-254.089)">
			<title>Dynamic connector.1435</title>
			<desc>Victim</desc>
			<path d="M0 295.55 L35.71 295.55" class="st14"/>
			<rect x="11.0432" y="284.284" width="20.6634" height="9.59985" class="st16"/>
			<text x="11.04" y="291.48" class="st17">Victim</text>		</g>
		<g id="shape1462-134" transform="translate(209.535,-4.62)">
			<title>Rectangle.1462</title>
			<desc>Efficiency Class 1</desc>
			<rect x="0" y="218.49" width="105.197" height="86.0625" class="st3"/>
			<text x="25.15" y="229.69" class="st4">Efficiency Class 1</text>		</g>
		<g id="group1463-137" transform="translate(256.991,-40.2194)">
			<title>Sheet.1463</title>
			<g id="shape1464-138">
				<title>Circle.126</title>
				<path d="M0 303.62 a0.9375 0.9375 0 1 1 1.875 -5.68434E-14 a0.9375 0.9375 0 1 1 -1.875 0 Z" class="st6"/>
			</g>
			<g id="shape1465-140" transform="translate(4.5,0)">
				<title>Circle.127</title>
				<path d="M0 303.62 a0.9375 0.9375 0 1 1 1.875 -5.68434E-14 a0.9375 0.9375 0 1 1 -1.875 0 Z" class="st6"/>
			</g>
			<g id="shape1466-142" transform="translate(9,0)">
				<title>Circle.128</title>
				<path d="M0 303.62 a0.9375 0.9375 0 1 1 1.875 -5.68434E-14 a0.9375 0.9375 0 1 1 -1.875 0 Z" class="st6"/>
			</g>
		</g>
		<g id="shape1467-144" transform="translate(215.178,-10.1938)">
			<title>Rectangle.1467</title>
			<desc>Core</desc>
			<rect x="0" y="240.376" width="40.5" height="64.1761" class="st7"/>
			<text x="12.62" y="251.58" class="st4">Core</text>		</g>
		<g id="shape1468-147" transform="translate(269.178,-10.1938)">
			<title>Rectangle.1468</title>
			<desc>Core</desc>
			<rect x="0" y="240.376" width="40.5" height="64.1761" class="st7"/>
			<text x="12.62" y="251.58" class="st4">Core</text>		</g>
		<g id="group1469-150" transform="translate(272.553,-13.62)">
			<title>Sheet.1469</title>
			<g id="shape1470-151" transform="translate(-288.803,304.553) rotate(-90)">
				<title>Rectangle.342</title>
				<desc>Processor</desc>
				<rect x="0" y="288.803" width="45" height="15.75" class="st8"/>
				<text x="6.62" y="299.08" class="st4">Processor</text>			</g>
			<g id="shape1471-154" transform="translate(-270.803,304.553) rotate(-90)">
				<title>Rectangle.343</title>
				<desc>Processor</desc>
				<rect x="0" y="288.803" width="45" height="15.75" class="st8"/>
				<text x="6.62" y="299.08" class="st4">Processor</text>			</g>
		</g>
		<g id="group1472-157" transform="translate(218.553,-13.62)">
			<title>Sheet.1472</title>
			<g id="shape1473-158" transform="translate(-288.803,304.553) rotate(-90)">
				<title>Rectangle.342</title>
				<desc>Processor</desc>
				<rect x="0" y="288.803" width="45" height="15.75" class="st8"/>
				<text x="6.62" y="299.08" class="st4">Processor</text>			</g>
			<g id="shape1474-161" transform="translate(-270.803,304.553) rotate(-90)">
				<title>Rectangle.343</title>
				<desc>Processor</desc>
				<rect x="0" y="288.803" width="45" height="15.75" class="st8"/>
				<text x="6.62" y="299.08" class="st4">Processor</text>			</g>
		</g>
		<g id="shape1475-164" transform="translate(226.096,-127.245)">
			<title>Rectangle.1475</title>
			<desc>Worker Pool</desc>
			<rect x="0" y="216.802" width="171" height="87.75" class="st5"/>
			<text x="60.03" y="297.55" class="st2">Worker Pool</text>		</g>
		<g id="group1476-167" transform="translate(306.158,-180.282)">
			<title>Sheet.1476</title>
			<g id="shape1477-168">
				<title>Circle.126</title>
				<path d="M0 303.62 a0.9375 0.9375 0 1 1 1.875 0 a0.9375 0.9375 0 1 1 -1.875 0 Z" class="st6"/>
			</g>
			<g id="shape1478-170" transform="translate(4.5,0)">
				<title>Circle.127</title>
				<path d="M0 303.62 a0.9375 0.9375 0 1 1 1.875 0 a0.9375 0.9375 0 1 1 -1.875 0 Z" class="st6"/>
			</g>
			<g id="shape1479-172" transform="translate(9,0)">
				<title>Circle.128</title>
				<path d="M0 303.62 a0.9375 0.9375 0 1 1 1.875 0 a0.9375 0.9375 0 1 1 -1.875 0 Z" class="st6"/>
			</g>
		</g>
		<g id="group1480-174" transform="translate(-1.95701,157.138) rotate(-90)">
			<title>Sheet.1480</title>
			<g id="shape1481-175">
				<title>Rectangle.400</title>
				<desc>Worker</desc>
				<rect x="0" y="270.803" width="59.7857" height="33.75" class="st9"/>
				<text x="17.63" y="282" class="st4">Worker</text>			</g>
			<g id="shape1482-178" transform="translate(4.98212,-3.37498)">
				<title>Rectangle.399</title>
				<desc>SW Thread</desc>
				<rect x="0" y="288.803" width="49.8214" height="15.75" class="st8"/>
				<text x="7.16" y="299.08" class="st4">SW Thread</text>			</g>
		</g>
		<g id="group1483-181" transform="translate(-37.957,157.138) rotate(-90)">
			<title>Sheet.1483</title>
			<g id="shape1484-182">
				<title>Rectangle.400</title>
				<desc>Worker</desc>
				<rect x="0" y="270.803" width="59.7857" height="33.75" class="st9"/>
				<text x="17.63" y="282" class="st4">Worker</text>			</g>
			<g id="shape1485-185" transform="translate(4.98212,-3.37498)">
				<title>Rectangle.399</title>
				<desc>SW Thread</desc>
				<rect x="0" y="288.803" width="49.8214" height="15.75" class="st8"/>
				<text x="7.16" y="299.08" class="st4">SW Thread</text>			</g>
		</g>
		<g id="group1486-188" transform="translate(85.793,157.138) rotate(-90)">
			<title>Sheet.1486</title>
			<g id="shape1487-189">
				<title>Rectangle.400</title>
				<desc>Worker</desc>
				<rect x="0" y="270.803" width="59.7857" height="33.75" class="st9"/>
				<text x="17.63" y="282" class="st4">Worker</text>			</g>
			<g id="shape1488-192" transform="translate(4.98212,-3.37498)">
				<title>Rectangle.399</title>
				<desc>SW Thread</desc>
				<rect x="0" y="288.803" width="49.8214" height="15.75" class="st8"/>
				<text x="7.16" y="299.08" class="st4">SW Thread</text>			</g>
		</g>
		<g id="group1489-195" transform="translate(49.793,157.138) rotate(-90)">
			<title>Sheet.1489</title>
			<g id="shape1490-196">
				<title>Rectangle.400</title>
				<desc>Worker</desc>
				<rect x="0" y="270.803" width="59.7857" height="33.75" class="st9"/>
				<text x="17.63" y="282" class="st4">Worker</text>			</g>
			<g id="shape1491-199" transform="translate(4.98212,-3.37498)">
				<title>Rectangle.399</title>
				<desc>SW Thread</desc>
				<rect x="0" y="288.803" width="49.8214" height="15.75" class="st8"/>
				<text x="7.16" y="299.08" class="st4">SW Thread</text>			</g>
		</g>
		<g id="shape1492-202" transform="translate(226.133,-221.745)">
			<title>Rectangle.1492</title>
			<desc>Micro-scheduler</desc>
			<rect x="0" y="221.865" width="171" height="82.6875" class="st10"/>
			<text x="52.24" y="234.87" class="st2">Micro-scheduler</text>		</g>
		<g id="group1493-205" transform="translate(-1.91952,74.37) rotate(-90)">
			<title>Sheet.1493</title>
			<g id="shape1494-206">
				<title>Rectangle.400</title>
				<desc>Local Scheduler</desc>
				<rect x="0" y="270.803" width="54" height="33.75" class="st8"/>
				<text x="18.68" y="285.28" class="st4">Local <tspan x="10.87" dy="1.2em" class="st11">Scheduler</tspan></text>			</g>
		</g>
		<g id="group1495-210" transform="translate(-37.9195,74.37) rotate(-90)">
			<title>Sheet.1495</title>
			<g id="shape1496-211">
				<title>Rectangle.400</title>
				<desc>Local Scheduler</desc>
				<rect x="0" y="270.803" width="54" height="33.75" class="st8"/>
				<text x="18.68" y="285.28" class="st4">Local <tspan x="10.87" dy="1.2em" class="st11">Scheduler</tspan></text>			</g>
		</g>
		<g id="group1497-215" transform="translate(85.8305,74.37) rotate(-90)">
			<title>Sheet.1497</title>
			<g id="shape1498-216">
				<title>Rectangle.400</title>
				<desc>Local Scheduler</desc>
				<rect x="0" y="270.803" width="54" height="33.75" class="st8"/>
				<text x="18.68" y="285.28" class="st4">Local <tspan x="10.87" dy="1.2em" class="st11">Scheduler</tspan></text>			</g>
		</g>
		<g id="group1499-220" transform="translate(49.8305,74.37) rotate(-90)">
			<title>Sheet.1499</title>
			<g id="shape1500-221">
				<title>Rectangle.400</title>
				<desc>Local Scheduler</desc>
				<rect x="0" y="270.803" width="54" height="33.75" class="st8"/>
				<text x="18.68" y="285.28" class="st4">Local <tspan x="10.87" dy="1.2em" class="st11">Scheduler</tspan></text>			</g>
		</g>
		<g id="group1501-225" transform="translate(306.195,-256.782)">
			<title>Sheet.1501</title>
			<g id="shape1502-226">
				<title>Circle.126</title>
				<path d="M0 303.62 a0.9375 0.9375 0 1 1 1.875 0 a0.9375 0.9375 0 1 1 -1.875 0 Z" class="st6"/>
			</g>
			<g id="shape1503-228" transform="translate(4.5,0)">
				<title>Circle.127</title>
				<path d="M0 303.62 a0.9375 0.9375 0 1 1 1.875 0 a0.9375 0.9375 0 1 1 -1.875 0 Z" class="st6"/>
			</g>
			<g id="shape1504-230" transform="translate(9,0)">
				<title>Circle.128</title>
				<path d="M0 303.62 a0.9375 0.9375 0 1 1 1.875 0 a0.9375 0.9375 0 1 1 -1.875 0 Z" class="st6"/>
			</g>
		</g>
		<g id="shape1505-232" transform="translate(240.739,-207.2)">
			<title>Dynamic connector.1505</title>
			<path d="M8.98 304.55 L9.02 281.57" class="st12"/>
		</g>
		<g id="shape1506-235" transform="translate(294.739,-230.183)">
			<title>Dynamic connector.1506</title>
			<path d="M-8.98 304.55 L-9.02 327.53" class="st12"/>
		</g>
		<g id="shape1507-238" transform="translate(328.489,-207.2)">
			<title>Dynamic connector.1507</title>
			<path d="M8.98 304.55 L9.02 281.57" class="st12"/>
		</g>
		<g id="shape1508-241" transform="translate(382.489,-230.183)">
			<title>Dynamic connector.1508</title>
			<path d="M-8.98 304.55 L-9.02 327.53" class="st12"/>
		</g>
	</g>
</svg>
