<?xml version="1.0" encoding="UTF-8" standalone="no"?>
<!DOCTYPE svg PUBLIC "-//W3C//DTD SVG 1.1//EN" "http://www.w3.org/Graphics/SVG/1.1/DTD/svg11.dtd">
<!-- Generated by Microsoft Visio, SVG Export ExternalVictim.svg Page-1 -->
<svg xmlns="http://www.w3.org/2000/svg" xmlns:xlink="http://www.w3.org/1999/xlink" xmlns:ev="http://www.w3.org/2001/xml-events"
		xmlns:v="http://schemas.microsoft.com/visio/2003/SVGExtensions/" width="5.40177in" height="3.11792in"
		viewBox="0 0 388.928 224.49" xml:space="preserve" color-interpolation-filters="sRGB" class="st14">
	<v:documentProperties v:langID="1033" v:viewMarkup="false"/>

	<style type="text/css">
	<![CDATA[
		.st1 {fill:#ddd6e5;stroke:#000000;stroke-linecap:round;stroke-linejoin:round;stroke-width:0.24}
		.st2 {fill:#000000;font-family:Calibri;font-size:0.833336em}
		.st3 {fill:#eee7a4;stroke:#000000;stroke-linecap:round;stroke-linejoin:round;stroke-width:0.24}
		.st4 {stroke:#000000;stroke-linecap:round;stroke-linejoin:round;stroke-width:0.75}
		.st5 {fill:#ffffff;stroke:#000000;stroke-linecap:round;stroke-linejoin:round;stroke-width:0.24}
		.st6 {fill:#000000;font-family:Calibri;font-size:0.666664em}
		.st7 {font-size:1em}
		.st8 {fill:#000000;stroke:#000000;stroke-linecap:round;stroke-linejoin:round;stroke-width:0.24}
		.st9 {fill:#f8f4d6;stroke:#000000;stroke-linecap:round;stroke-linejoin:round;stroke-width:0.24}
		.st10 {marker-start:url(#mrkr4-136);stroke:#f59d56;stroke-linecap:round;stroke-linejoin:round;stroke-width:0.75}
		.st11 {fill:#f59d56;fill-opacity:1;stroke:#f59d56;stroke-opacity:1;stroke-width:0.22935779816514}
		.st12 {fill:none;stroke:none;stroke-linecap:round;stroke-linejoin:round;stroke-width:0.24}
		.st13 {fill:#f59d56;font-family:Calibri;font-size:0.833336em}
		.st14 {fill:none;fill-rule:evenodd;font-size:12px;overflow:visible;stroke-linecap:square;stroke-miterlimit:3}
	]]>
	</style>

	<defs id="Markers">
		<g id="lend4">
			<path d="M 2 1 L 0 0 L 2 -1 L 2 1 " style="stroke:none"/>
		</g>
		<marker id="mrkr4-136" class="st11" v:arrowType="4" v:arrowSize="2" v:setback="8.24" refX="8.24" orient="auto"
				markerUnits="strokeWidth" overflow="visible">
			<use xlink:href="#lend4" transform="scale(4.36) "/>
		</marker>
	</defs>
	<g v:mID="0" v:index="1" v:groupContext="foregroundPage">
		<title>Page-1</title>
		<v:pageProperties v:drawingScale="1" v:pageScale="1" v:drawingUnits="19" v:shadowOffsetX="9" v:shadowOffsetY="-9"/>
		<v:layer v:name="Connector" v:index="0"/>
		<g id="shape924-1" v:mID="924" v:groupContext="shape" transform="translate(0.12,-123.307)">
			<title>Rectangle.924</title>
			<desc>Micro-scheduler (0)</desc>
			<v:userDefs>
				<v:ud v:nameU="visVersion" v:val="VT0(15):26"/>
			</v:userDefs>
			<v:textBlock v:margins="rect(4,4,4,4)" v:verticalAlign="0"/>
			<v:textRect cx="85.5" cy="183.146" width="171" height="82.6875"/>
			<rect x="0" y="141.802" width="171" height="82.6875" class="st1"/>
			<text x="45.54" y="154.8" class="st2" v:langID="1033"><v:paragraph v:horizAlign="1"/><v:tabList/>Micro-scheduler (0)</text>		</g>
		<g id="shape925-4" v:mID="925" v:groupContext="shape" transform="translate(110.651,-0.12)">
			<title>Rectangle.925</title>
			<desc>Worker Pool (j)</desc>
			<v:userDefs>
				<v:ud v:nameU="visVersion" v:val="VT0(15):26"/>
			</v:userDefs>
			<v:textBlock v:margins="rect(4,4,4,4)" v:verticalAlign="2"/>
			<v:textRect cx="85.5" cy="180.615" width="171" height="87.75"/>
			<rect x="0" y="136.74" width="171" height="87.75" class="st3"/>
			<text x="54.67" y="217.49" class="st2" v:langID="1033"><v:paragraph v:horizAlign="1"/><v:tabList/>Worker Pool (j)</text>		</g>
		<g id="shape926-7" v:mID="926" v:groupContext="shape" v:layerMember="0" transform="translate(134.276,-81.7629)">
			<title>Dynamic connector.926</title>
			<path d="M0 224.49 L-110.53 174.51" class="st4"/>
		</g>
		<g id="shape927-10" v:mID="927" v:groupContext="shape" v:layerMember="0" transform="translate(170.276,-81.7629)">
			<title>Dynamic connector.927</title>
			<path d="M0 224.49 L-15.81 217.34 A3 3 -180 0 0 -21.28 214.87 L-110.53 174.51" class="st4"/>
		</g>
		<g id="shape928-13" v:mID="928" v:groupContext="shape" v:layerMember="0" transform="translate(222.026,-81.7629)">
			<title>Dynamic connector.928</title>
			<path d="M0 224.49 L-23.54 213.84 A3 3 -180 0 0 -29.01 211.37 L-42.46 205.29 A3 3 -180 0 0 -47.93 202.82 L-110.53 174.51"
					class="st4"/>
		</g>
		<g id="shape929-16" v:mID="929" v:groupContext="shape" v:layerMember="0" transform="translate(258.026,-81.7629)">
			<title>Dynamic connector.929</title>
			<path d="M0 224.49 L-15.55 217.46 A3 3 -180 0 0 -21.01 214.99 L-41.82 205.58 A3 3 -180 0 0 -47.29 203.11 L-61.01 196.9
						 A3 3 -180 0 0 -66.47 194.43 L-110.53 174.51" class="st4"/>
		</g>
		<g id="group930-19" transform="translate(-147.87,92.745) rotate(-90)" v:mID="930" v:groupContext="group">
			<title>Sheet.930</title>
			<g id="shape931-20" v:mID="931" v:groupContext="shape">
				<title>Rectangle.400</title>
				<desc>Local Scheduler (0,1)</desc>
				<v:userDefs>
					<v:ud v:nameU="visVersion" v:val="VT0(15):26"/>
				</v:userDefs>
				<v:textBlock v:margins="rect(4,4,4,4)"/>
				<v:textRect cx="27" cy="207.615" width="54" height="33.75"/>
				<rect x="0" y="190.74" width="54" height="33.75" class="st5"/>
				<text x="18.68" y="200.42" class="st6" v:langID="1033"><v:paragraph v:horizAlign="1"/><v:tabList/>Local <tspan
							x="10.87" dy="1.2em" class="st7">Scheduler </tspan><tspan x="19.52" dy="1.2em" class="st7">(0,1)</tspan></text>			</g>
		</g>
		<g id="group932-25" transform="translate(-183.87,92.745) rotate(-90)" v:mID="932" v:groupContext="group">
			<title>Sheet.932</title>
			<g id="shape933-26" v:mID="933" v:groupContext="shape">
				<title>Rectangle.400</title>
				<desc>Local Scheduler (0,0)</desc>
				<v:userDefs>
					<v:ud v:nameU="visVersion" v:val="VT0(15):26"/>
				</v:userDefs>
				<v:textBlock v:margins="rect(4,4,4,4)"/>
				<v:textRect cx="27" cy="207.615" width="54" height="33.75"/>
				<rect x="0" y="190.74" width="54" height="33.75" class="st5"/>
				<text x="18.68" y="200.42" class="st6" v:langID="1033"><v:paragraph v:horizAlign="1"/><v:tabList/>Local <tspan
							x="10.87" dy="1.2em" class="st7">Scheduler </tspan><tspan x="19.52" dy="1.2em" class="st7">(0,0)</tspan></text>			</g>
		</g>
		<g id="group934-31" transform="translate(-60.12,92.745) rotate(-90)" v:mID="934" v:groupContext="group">
			<title>Sheet.934</title>
			<g id="shape935-32" v:mID="935" v:groupContext="shape">
				<title>Rectangle.400</title>
				<desc>Local Scheduler (0,k)</desc>
				<v:userDefs>
					<v:ud v:nameU="visVersion" v:val="VT0(15):26"/>
				</v:userDefs>
				<v:textBlock v:margins="rect(4,4,4,4)"/>
				<v:textRect cx="27" cy="207.615" width="54" height="33.75"/>
				<rect x="0" y="190.74" width="54" height="33.75" class="st5"/>
				<text x="18.68" y="200.42" class="st6" v:langID="1033"><v:paragraph v:horizAlign="1"/><v:tabList/>Local <tspan
							x="10.87" dy="1.2em" class="st7">Scheduler </tspan><tspan x="19.73" dy="1.2em" class="st7">(0,k)</tspan></text>			</g>
		</g>
		<g id="group936-37" transform="translate(-96.12,92.745) rotate(-90)" v:mID="936" v:groupContext="group">
			<title>Sheet.936</title>
			<g id="shape937-38" v:mID="937" v:groupContext="shape">
				<title>Rectangle.400</title>
				<desc>Local Scheduler (0,k-1)</desc>
				<v:userDefs>
					<v:ud v:nameU="visVersion" v:val="VT0(15):26"/>
				</v:userDefs>
				<v:textBlock v:margins="rect(4,4,4,4)"/>
				<v:textRect cx="27" cy="207.615" width="54" height="33.75"/>
				<rect x="0" y="190.74" width="54" height="33.75" class="st5"/>
				<text x="18.68" y="200.42" class="st6" v:langID="1033"><v:paragraph v:horizAlign="1"/><v:tabList/>Local <tspan
							x="10.87" dy="1.2em" class="st7">Scheduler </tspan><tspan x="16.48" dy="1.2em" class="st7">(0,k</tspan>-1)</text>			</g>
		</g>
		<g id="group938-43" transform="translate(80.1825,-158.344)" v:mID="938" v:groupContext="group">
			<title>Sheet.938</title>
			<g id="shape939-44" v:mID="939" v:groupContext="shape">
				<title>Circle.126</title>
				<v:userDefs>
					<v:ud v:nameU="visVersion" v:val="VT0(15):26"/>
				</v:userDefs>
				<path d="M0 223.55 a0.9375 0.9375 0 1 1 1.875 -2.84217E-14 a0.9375 0.9375 0 1 1 -1.875 0 Z" class="st8"/>
			</g>
			<g id="shape940-46" v:mID="940" v:groupContext="shape" transform="translate(4.5,0)">
				<title>Circle.127</title>
				<v:userDefs>
					<v:ud v:nameU="visVersion" v:val="VT0(15):26"/>
				</v:userDefs>
				<path d="M0 223.55 a0.9375 0.9375 0 1 1 1.875 -2.84217E-14 a0.9375 0.9375 0 1 1 -1.875 0 Z" class="st8"/>
			</g>
			<g id="shape941-48" v:mID="941" v:groupContext="shape" transform="translate(9,0)">
				<title>Circle.128</title>
				<v:userDefs>
					<v:ud v:nameU="visVersion" v:val="VT0(15):26"/>
				</v:userDefs>
				<path d="M0 223.55 a0.9375 0.9375 0 1 1 1.875 -2.84217E-14 a0.9375 0.9375 0 1 1 -1.875 0 Z" class="st8"/>
			</g>
		</g>
		<g id="group942-50" transform="translate(190.714,-54.8444)" v:mID="942" v:groupContext="group">
			<title>Sheet.942</title>
			<g id="shape943-51" v:mID="943" v:groupContext="shape">
				<title>Circle.126</title>
				<v:userDefs>
					<v:ud v:nameU="visVersion" v:val="VT0(15):26"/>
				</v:userDefs>
				<path d="M0 223.55 a0.9375 0.9375 0 1 1 1.875 -2.84217E-14 a0.9375 0.9375 0 1 1 -1.875 0 Z" class="st8"/>
			</g>
			<g id="shape944-53" v:mID="944" v:groupContext="shape" transform="translate(4.5,0)">
				<title>Circle.127</title>
				<v:userDefs>
					<v:ud v:nameU="visVersion" v:val="VT0(15):26"/>
				</v:userDefs>
				<path d="M0 223.55 a0.9375 0.9375 0 1 1 1.875 -2.84217E-14 a0.9375 0.9375 0 1 1 -1.875 0 Z" class="st8"/>
			</g>
			<g id="shape945-55" v:mID="945" v:groupContext="shape" transform="translate(9,0)">
				<title>Circle.128</title>
				<v:userDefs>
					<v:ud v:nameU="visVersion" v:val="VT0(15):26"/>
				</v:userDefs>
				<path d="M0 223.55 a0.9375 0.9375 0 1 1 1.875 -2.84217E-14 a0.9375 0.9375 0 1 1 -1.875 0 Z" class="st8"/>
			</g>
		</g>
		<g id="group946-57" transform="translate(-37.3388,202.513) rotate(-90)" v:mID="946" v:groupContext="group">
			<title>Sheet.946</title>
			<g id="shape947-58" v:mID="947" v:groupContext="shape">
				<title>Rectangle.400</title>
				<desc>Worker (j,1)</desc>
				<v:userDefs>
					<v:ud v:nameU="visVersion" v:val="VT0(15):26"/>
				</v:userDefs>
				<v:textBlock v:margins="rect(4,4,4,4)" v:verticalAlign="0"/>
				<v:textRect cx="29.8929" cy="207.615" width="59.79" height="33.75"/>
				<rect x="0" y="190.74" width="59.7857" height="33.75" class="st9"/>
				<text x="10.31" y="201.94" class="st6" v:langID="1033"><v:paragraph v:horizAlign="1"/><v:tabList/>Worker (j,1)</text>			</g>
			<g id="shape948-61" v:mID="948" v:groupContext="shape" transform="translate(4.98212,-3.37498)">
				<title>Rectangle.399</title>
				<desc>SW Thread</desc>
				<v:userDefs>
					<v:ud v:nameU="visVersion" v:val="VT0(15):26"/>
				</v:userDefs>
				<v:textBlock v:margins="rect(4,4,4,4)"/>
				<v:textRect cx="24.9107" cy="216.615" width="49.83" height="15.75"/>
				<rect x="0" y="208.74" width="49.8214" height="15.75" class="st5"/>
				<text x="7.16" y="219.01" class="st6" v:langID="1033"><v:paragraph v:horizAlign="1"/><v:tabList/>SW Thread</text>			</g>
		</g>
		<g id="group949-64" transform="translate(-73.3388,202.513) rotate(-90)" v:mID="949" v:groupContext="group">
			<title>Sheet.949</title>
			<g id="shape950-65" v:mID="950" v:groupContext="shape">
				<title>Rectangle.400</title>
				<desc>Worker (j,0)</desc>
				<v:userDefs>
					<v:ud v:nameU="visVersion" v:val="VT0(15):26"/>
				</v:userDefs>
				<v:textBlock v:margins="rect(4,4,4,4)" v:verticalAlign="0"/>
				<v:textRect cx="29.8929" cy="207.615" width="59.79" height="33.75"/>
				<rect x="0" y="190.74" width="59.7857" height="33.75" class="st9"/>
				<text x="10.31" y="201.94" class="st6" v:langID="1033"><v:paragraph v:horizAlign="1"/><v:tabList/>Worker (j,0)</text>			</g>
			<g id="shape951-68" v:mID="951" v:groupContext="shape" transform="translate(4.98212,-3.37498)">
				<title>Rectangle.399</title>
				<desc>SW Thread</desc>
				<v:userDefs>
					<v:ud v:nameU="visVersion" v:val="VT0(15):26"/>
				</v:userDefs>
				<v:textBlock v:margins="rect(4,4,4,4)"/>
				<v:textRect cx="24.9107" cy="216.615" width="49.83" height="15.75"/>
				<rect x="0" y="208.74" width="49.8214" height="15.75" class="st5"/>
				<text x="7.16" y="219.01" class="st6" v:langID="1033"><v:paragraph v:horizAlign="1"/><v:tabList/>SW Thread</text>			</g>
		</g>
		<g id="group952-71" transform="translate(50.4112,202.513) rotate(-90)" v:mID="952" v:groupContext="group">
			<title>Sheet.952</title>
			<g id="shape953-72" v:mID="953" v:groupContext="shape">
				<title>Rectangle.400</title>
				<desc>Worker (j,k)</desc>
				<v:userDefs>
					<v:ud v:nameU="visVersion" v:val="VT0(15):26"/>
				</v:userDefs>
				<v:textBlock v:margins="rect(4,4,4,4)" v:verticalAlign="0"/>
				<v:textRect cx="29.8929" cy="207.615" width="59.79" height="33.75"/>
				<rect x="0" y="190.74" width="59.7857" height="33.75" class="st9"/>
				<text x="10.52" y="201.94" class="st6" v:langID="1033"><v:paragraph v:horizAlign="1"/><v:tabList/>Worker (j,k)</text>			</g>
			<g id="shape954-75" v:mID="954" v:groupContext="shape" transform="translate(4.98212,-3.37498)">
				<title>Rectangle.399</title>
				<desc>SW Thread</desc>
				<v:userDefs>
					<v:ud v:nameU="visVersion" v:val="VT0(15):26"/>
				</v:userDefs>
				<v:textBlock v:margins="rect(4,4,4,4)"/>
				<v:textRect cx="24.9107" cy="216.615" width="49.83" height="15.75"/>
				<rect x="0" y="208.74" width="49.8214" height="15.75" class="st5"/>
				<text x="7.16" y="219.01" class="st6" v:langID="1033"><v:paragraph v:horizAlign="1"/><v:tabList/>SW Thread</text>			</g>
		</g>
		<g id="group955-78" transform="translate(14.4112,202.513) rotate(-90)" v:mID="955" v:groupContext="group">
			<title>Sheet.955</title>
			<g id="shape956-79" v:mID="956" v:groupContext="shape">
				<title>Rectangle.400</title>
				<desc>Worker (j,k-1)</desc>
				<v:userDefs>
					<v:ud v:nameU="visVersion" v:val="VT0(15):26"/>
				</v:userDefs>
				<v:textBlock v:margins="rect(4,4,4,4)" v:verticalAlign="0"/>
				<v:textRect cx="29.8929" cy="207.615" width="59.79" height="33.75"/>
				<rect x="0" y="190.74" width="59.7857" height="33.75" class="st9"/>
				<text x="7.27" y="201.94" class="st6" v:langID="1033"><v:paragraph v:horizAlign="1"/><v:tabList/>Worker (j,k-1)</text>			</g>
			<g id="shape957-82" v:mID="957" v:groupContext="shape" transform="translate(4.98212,-3.37498)">
				<title>Rectangle.399</title>
				<desc>SW Thread</desc>
				<v:userDefs>
					<v:ud v:nameU="visVersion" v:val="VT0(15):26"/>
				</v:userDefs>
				<v:textBlock v:margins="rect(4,4,4,4)"/>
				<v:textRect cx="24.9107" cy="216.615" width="49.83" height="15.75"/>
				<rect x="0" y="208.74" width="49.8214" height="15.75" class="st5"/>
				<text x="7.16" y="219.01" class="st6" v:langID="1033"><v:paragraph v:horizAlign="1"/><v:tabList/>SW Thread</text>			</g>
		</g>
		<g id="shape958-85" v:mID="958" v:groupContext="shape" transform="translate(217.808,-123.307)">
			<title>Rectangle.958</title>
			<desc>Micro-scheduler (1)</desc>
			<v:userDefs>
				<v:ud v:nameU="visVersion" v:val="VT0(15):26"/>
			</v:userDefs>
			<v:textBlock v:margins="rect(4,4,4,4)" v:verticalAlign="0"/>
			<v:textRect cx="85.5" cy="183.146" width="171" height="82.6875"/>
			<rect x="0" y="141.802" width="171" height="82.6875" class="st1"/>
			<text x="45.54" y="154.8" class="st2" v:langID="1033"><v:paragraph v:horizAlign="1"/><v:tabList/>Micro-scheduler (1)</text>		</g>
		<g id="group959-88" transform="translate(69.8175,92.745) rotate(-90)" v:mID="959" v:groupContext="group">
			<title>Sheet.959</title>
			<g id="shape960-89" v:mID="960" v:groupContext="shape">
				<title>Rectangle.400</title>
				<desc>Local Scheduler (1,1)</desc>
				<v:userDefs>
					<v:ud v:nameU="visVersion" v:val="VT0(15):26"/>
				</v:userDefs>
				<v:textBlock v:margins="rect(4,4,4,4)"/>
				<v:textRect cx="27" cy="207.615" width="54" height="33.75"/>
				<rect x="0" y="190.74" width="54" height="33.75" class="st5"/>
				<text x="18.68" y="200.42" class="st6" v:langID="1033"><v:paragraph v:horizAlign="1"/><v:tabList/>Local <tspan
							x="10.87" dy="1.2em" class="st7">Scheduler </tspan><tspan x="19.52" dy="1.2em" class="st7">(1,1)</tspan></text>			</g>
		</g>
		<g id="group961-94" transform="translate(30.7238,92.745) rotate(-90)" v:mID="961" v:groupContext="group">
			<title>Sheet.961</title>
			<g id="shape962-95" v:mID="962" v:groupContext="shape">
				<title>Rectangle.400</title>
				<desc>Local Scheduler (1,0)</desc>
				<v:userDefs>
					<v:ud v:nameU="visVersion" v:val="VT0(15):26"/>
				</v:userDefs>
				<v:textBlock v:margins="rect(4,4,4,4)"/>
				<v:textRect cx="27" cy="207.615" width="54" height="33.75"/>
				<rect x="0" y="190.74" width="54" height="33.75" class="st5"/>
				<text x="18.68" y="200.42" class="st6" v:langID="1033"><v:paragraph v:horizAlign="1"/><v:tabList/>Local <tspan
							x="10.87" dy="1.2em" class="st7">Scheduler </tspan><tspan x="19.52" dy="1.2em" class="st7">(1,0)</tspan></text>			</g>
		</g>
		<g id="group963-100" transform="translate(157.568,92.745) rotate(-90)" v:mID="963" v:groupContext="group">
			<title>Sheet.963</title>
			<g id="shape964-101" v:mID="964" v:groupContext="shape">
				<title>Rectangle.400</title>
				<desc>Local Scheduler (1,k)</desc>
				<v:userDefs>
					<v:ud v:nameU="visVersion" v:val="VT0(15):26"/>
				</v:userDefs>
				<v:textBlock v:margins="rect(4,4,4,4)"/>
				<v:textRect cx="27" cy="207.615" width="54" height="33.75"/>
				<rect x="0" y="190.74" width="54" height="33.75" class="st5"/>
				<text x="18.68" y="200.42" class="st6" v:langID="1033"><v:paragraph v:horizAlign="1"/><v:tabList/>Local <tspan
							x="10.87" dy="1.2em" class="st7">Scheduler </tspan><tspan x="19.73" dy="1.2em" class="st7">(1,k)</tspan></text>			</g>
		</g>
		<g id="group965-106" transform="translate(121.568,92.745) rotate(-90)" v:mID="965" v:groupContext="group">
			<title>Sheet.965</title>
			<g id="shape966-107" v:mID="966" v:groupContext="shape">
				<title>Rectangle.400</title>
				<desc>Local Scheduler (1,k-1)</desc>
				<v:userDefs>
					<v:ud v:nameU="visVersion" v:val="VT0(15):26"/>
				</v:userDefs>
				<v:textBlock v:margins="rect(4,4,4,4)"/>
				<v:textRect cx="27" cy="207.615" width="54" height="33.75"/>
				<rect x="0" y="190.74" width="54" height="33.75" class="st5"/>
				<text x="18.68" y="200.42" class="st6" v:langID="1033"><v:paragraph v:horizAlign="1"/><v:tabList/>Local <tspan
							x="10.87" dy="1.2em" class="st7">Scheduler </tspan><tspan x="16.48" dy="1.2em" class="st7">(1,k</tspan>-1)</text>			</g>
		</g>
		<g id="group967-112" transform="translate(297.87,-158.344)" v:mID="967" v:groupContext="group">
			<title>Sheet.967</title>
			<g id="shape968-113" v:mID="968" v:groupContext="shape">
				<title>Circle.126</title>
				<v:userDefs>
					<v:ud v:nameU="visVersion" v:val="VT0(15):26"/>
				</v:userDefs>
				<path d="M0 223.55 a0.9375 0.9375 0 1 1 1.875 -2.84217E-14 a0.9375 0.9375 0 1 1 -1.875 0 Z" class="st8"/>
			</g>
			<g id="shape969-115" v:mID="969" v:groupContext="shape" transform="translate(4.5,0)">
				<title>Circle.127</title>
				<v:userDefs>
					<v:ud v:nameU="visVersion" v:val="VT0(15):26"/>
				</v:userDefs>
				<path d="M0 223.55 a0.9375 0.9375 0 1 1 1.875 -2.84217E-14 a0.9375 0.9375 0 1 1 -1.875 0 Z" class="st8"/>
			</g>
			<g id="shape970-117" v:mID="970" v:groupContext="shape" transform="translate(9,0)">
				<title>Circle.128</title>
				<v:userDefs>
					<v:ud v:nameU="visVersion" v:val="VT0(15):26"/>
				</v:userDefs>
				<path d="M0 223.55 a0.9375 0.9375 0 1 1 1.875 -2.84217E-14 a0.9375 0.9375 0 1 1 -1.875 0 Z" class="st8"/>
			</g>
		</g>
		<g id="shape971-119" v:mID="971" v:groupContext="shape" v:layerMember="0" transform="translate(134.276,-81.7629)">
			<title>Dynamic connector.971</title>
			<path d="M0 224.49 L104.06 174.51" class="st4"/>
		</g>
		<g id="shape972-122" v:mID="972" v:groupContext="shape" v:layerMember="0" transform="translate(170.276,-81.7629)">
			<title>Dynamic connector.972</title>
			<path d="M0 224.49 L107.16 174.51" class="st4"/>
		</g>
		<g id="shape973-125" v:mID="973" v:groupContext="shape" v:layerMember="0" transform="translate(222.026,-81.7629)">
			<title>Dynamic connector.973</title>
			<path d="M0 224.49 L107.16 174.51" class="st4"/>
		</g>
		<g id="shape974-128" v:mID="974" v:groupContext="shape" v:layerMember="0" transform="translate(258.026,-81.7629)">
			<title>Dynamic connector.974</title>
			<path d="M0 224.49 L107.16 174.51" class="st4"/>
		</g>
		<g id="shape978-131" v:mID="978" v:groupContext="shape" v:layerMember="0" transform="translate(171.12,-173.651)">
			<title>Dynamic connector.978</title>
			<path d="M6.18 233.49 L6.54 233.49 L46.69 233.49" class="st10"/>
		</g>
		<g id="shape979-137" v:mID="979" v:groupContext="shape" transform="translate(151.714,-208.245)">
			<title>Rectangle.979</title>
			<desc>External Victim</desc>
			<v:userDefs>
				<v:ud v:nameU="visVersion" v:val="VT0(15):26"/>
			</v:userDefs>
			<v:textBlock v:margins="rect(4,4,4,4)"/>
			<v:textRect cx="41.625" cy="216.428" width="83.25" height="16.125"/>
			<rect x="0" y="208.365" width="83.25" height="16.125" class="st12"/>
			<text x="10.9" y="219.43" class="st13" v:langID="1033"><v:paragraph v:horizAlign="1"/><v:tabList/>External Victim</text>		</g>
	</g>
</svg>
