<?xml version="1.0" encoding="UTF-8" standalone="no"?>
<!DOCTYPE svg PUBLIC "-//W3C//DTD SVG 1.1//EN" "http://www.w3.org/Graphics/SVG/1.1/DTD/svg11.dtd">
<!-- Generated by Microsoft Visio, SVG Export FullyStrictDag.svg Page-1 -->
<svg xmlns="http://www.w3.org/2000/svg" xmlns:xlink="http://www.w3.org/1999/xlink" xmlns:ev="http://www.w3.org/2001/xml-events"
		xmlns:v="http://schemas.microsoft.com/visio/2003/SVGExtensions/" width="1.98394in" height="1.98368in"
		viewBox="0 0 142.844 142.825" xml:space="preserve" color-interpolation-filters="sRGB" class="st7">
	<v:documentProperties v:langID="1033" v:viewMarkup="false"/>

	<style type="text/css">
	<![CDATA[
		.st1 {marker-end:url(#mrkr4-6);stroke:#9dbb61;stroke-linecap:round;stroke-linejoin:round;stroke-width:2}
		.st2 {fill:#9dbb61;fill-opacity:1;stroke:#9dbb61;stroke-opacity:1;stroke-width:0.44247787610619}
		.st3 {fill:#ffffff;stroke:#002060;stroke-linecap:round;stroke-linejoin:round;stroke-width:1}
		.st4 {marker-end:url(#mrkr4-37);stroke:#c05046;stroke-dasharray:7,5;stroke-linecap:round;stroke-linejoin:round;stroke-width:1}
		.st5 {fill:#c05046;fill-opacity:1;stroke:#c05046;stroke-opacity:1;stroke-width:0.28409090909091}
		.st6 {stroke:#c05046;stroke-dasharray:7,5;stroke-linecap:round;stroke-linejoin:round;stroke-width:1}
		.st7 {fill:none;fill-rule:evenodd;font-size:12px;overflow:visible;stroke-linecap:square;stroke-miterlimit:3}
	]]>
	</style>

	<defs id="Markers">
		<g id="lend4">
			<path d="M 2 1 L 0 0 L 2 -1 L 2 1 " style="stroke:none"/>
		</g>
		<marker id="mrkr4-6" class="st2" v:arrowType="4" v:arrowSize="2" v:setback="4.52" refX="-4.52" orient="auto"
				markerUnits="strokeWidth" overflow="visible">
			<use xlink:href="#lend4" transform="scale(-2.26,-2.26) "/>
		</marker>
		<marker id="mrkr4-37" class="st5" v:arrowType="4" v:arrowSize="2" v:setback="6.68" refX="-6.68" orient="auto"
				markerUnits="strokeWidth" overflow="visible">
			<use xlink:href="#lend4" transform="scale(-3.52,-3.52) "/>
		</marker>
	</defs>
	<g v:mID="0" v:index="1" v:groupContext="foregroundPage">
		<title>Page-1</title>
		<v:pageProperties v:drawingScale="1" v:pageScale="1" v:drawingUnits="19" v:shadowOffsetX="9" v:shadowOffsetY="-9"/>
		<v:layer v:name="Connector" v:index="0"/>
		<g id="shape136-1" v:mID="136" v:groupContext="shape" v:layerMember="0" transform="translate(78.5701,-115.817)">
			<title>Dynamic connector.136</title>
			<path d="M0 142.82 L-19.22 164.13" class="st1"/>
		</g>
		<g id="shape137-7" v:mID="137" v:groupContext="shape" v:layerMember="0" transform="translate(100.532,-115.817)">
			<title>Dynamic connector.137</title>
			<path d="M0 142.82 L20.1 164.24" class="st1"/>
		</g>
		<g id="shape138-12" v:mID="138" v:groupContext="shape" v:layerMember="0" transform="translate(64.2736,-61.2965)">
			<title>Dynamic connector.138</title>
			<path d="M0 142.82 L19.42 165.68" class="st1"/>
		</g>
		<g id="shape139-17" v:mID="139" v:groupContext="shape" transform="translate(74.0237,-111.27)">
			<title>Circle.139</title>
			<v:userDefs>
				<v:ud v:nameU="visVersion" v:val="VT0(15):26"/>
			</v:userDefs>
			<path d="M0 127.3 A15.5273 15.5273 0 0 1 31.05 127.3 A15.5273 15.5273 0 1 1 0 127.3 Z" class="st3"/>
		</g>
		<g id="shape140-19" v:mID="140" v:groupContext="shape" transform="translate(74.0237,-0.5)">
			<title>Circle.140</title>
			<v:userDefs>
				<v:ud v:nameU="visVersion" v:val="VT0(15):26"/>
			</v:userDefs>
			<path d="M0 127.3 A15.5273 15.5273 0 0 1 31.05 127.3 A15.5273 15.5273 0 1 1 0 127.3 Z" class="st3"/>
		</g>
		<g id="shape141-21" v:mID="141" v:groupContext="shape" transform="translate(37.7654,-56.7501)">
			<title>Circle.141</title>
			<v:userDefs>
				<v:ud v:nameU="visVersion" v:val="VT0(15):26"/>
			</v:userDefs>
			<path d="M0 127.3 A15.5273 15.5273 0 0 1 31.05 127.3 A15.5273 15.5273 0 1 1 0 127.3 Z" class="st3"/>
		</g>
		<g id="shape142-23" v:mID="142" v:groupContext="shape" transform="translate(111.289,-56.7501)">
			<title>Circle.142</title>
			<v:userDefs>
				<v:ud v:nameU="visVersion" v:val="VT0(15):26"/>
			</v:userDefs>
			<path d="M0 127.3 A15.5273 15.5273 0 0 1 31.05 127.3 A15.5273 15.5273 0 1 1 0 127.3 Z" class="st3"/>
		</g>
		<g id="shape143-25" v:mID="143" v:groupContext="shape" transform="translate(0.5,-0.5)">
			<title>Circle.143</title>
			<v:userDefs>
				<v:ud v:nameU="visVersion" v:val="VT0(15):26"/>
			</v:userDefs>
			<path d="M0 127.3 A15.5273 15.5273 0 0 1 31.05 127.3 A15.5273 15.5273 0 1 1 0 127.3 Z" class="st3"/>
		</g>
		<g id="shape144-27" v:mID="144" v:groupContext="shape" v:layerMember="0" transform="translate(42.3118,-61.2965)">
			<title>Dynamic connector.144</title>
			<path d="M0 142.82 L-20.3 165.79" class="st1"/>
		</g>
		<g id="shape145-32" v:mID="145" v:groupContext="shape" v:layerMember="0" transform="translate(31.5545,-16.0273)">
			<title>Dynamic connector.145</title>
			<path d="M0 142.82 C5.43 142.82 12.95 142.82 17 136.34 C20.75 130.33 21.53 118.76 21.7 109.14 L21.7 108.78" class="st4"/>
		</g>
		<g id="shape148-38" v:mID="148" v:groupContext="shape" v:layerMember="0" transform="translate(111.289,-72.2774)">
			<title>Dynamic connector.148</title>
			<path d="M0 142.82 C-5.43 142.82 -12.98 142.82 -17.04 136.56 C-20.72 130.86 -21.52 120 -21.69 110.87 L-21.69 110.51"
					class="st4"/>
		</g>
		<g id="shape149-43" v:mID="149" v:groupContext="shape" v:layerMember="0" transform="translate(74.0237,-16.0273)">
			<title>Dynamic connector.149</title>
			<path d="M0 142.82 C-5.18 142.82 -12.31 142.82 -16.17 136.4 C-20.73 128.82 -20.73 112.28 -20.73 102.1" class="st6"/>
		</g>
	</g>
</svg>
