<?xml version="1.0" encoding="UTF-8" standalone="no"?>
<!DOCTYPE svg PUBLIC "-//W3C//DTD SVG 1.1//EN" "http://www.w3.org/Graphics/SVG/1.1/DTD/svg11.dtd">
<!-- Generated by Microsoft Visio, SVG Export FullyStrictDagContinuations.svg Page-1 -->
<svg xmlns="http://www.w3.org/2000/svg" xmlns:xlink="http://www.w3.org/1999/xlink" xmlns:ev="http://www.w3.org/2001/xml-events"
		width="2.2322in" height="3.7577in" viewBox="0 0 160.719 270.555" xml:space="preserve" color-interpolation-filters="sRGB"
		class="st9">
	<style type="text/css">
	<![CDATA[
		.st1 {marker-end:url(#mrkr4-6);stroke:#9dbb61;stroke-linecap:round;stroke-linejoin:round;stroke-width:2}
		.st2 {fill:#9dbb61;fill-opacity:1;stroke:#9dbb61;stroke-opacity:1;stroke-width:0.44247787610619}
		.st3 {marker-end:url(#mrkr4-27);stroke:#c05046;stroke-dasharray:7,5;stroke-linecap:round;stroke-linejoin:round;stroke-width:1}
		.st4 {fill:#c05046;fill-opacity:1;stroke:#c05046;stroke-opacity:1;stroke-width:0.28409090909091}
		.st5 {fill:none;stroke:none;stroke-linecap:round;stroke-linejoin:round;stroke-width:0.75}
		.st6 {fill:#b79d22;font-family:Calibri;font-size:1.00001em}
		.st7 {fill:#ffffff;stroke:#002060;stroke-linecap:round;stroke-linejoin:round;stroke-width:1}
		.st8 {fill:#b79d22;stroke:#002060;stroke-linecap:round;stroke-linejoin:round;stroke-width:1}
		.st9 {fill:none;fill-rule:evenodd;font-size:12px;overflow:visible;stroke-linecap:square;stroke-miterlimit:3}
	]]>
	</style>

	<defs id="Markers">
		<g id="lend4">
			<path d="M 2 1 L 0 0 L 2 -1 L 2 1 " style="stroke:none"/>
		</g>
		<marker id="mrkr4-6" class="st2" refX="-4.52" orient="auto" markerUnits="strokeWidth" overflow="visible">
			<use xlink:href="#lend4" transform="scale(-2.26,-2.26) "/>
		</marker>
		<marker id="mrkr4-27" class="st4" refX="-7.04" orient="auto" markerUnits="strokeWidth" overflow="visible">
			<use xlink:href="#lend4" transform="scale(-3.52,-3.52) "/>
		</marker>
	</defs>
	<g>
		<title>Page-1</title>
		<g id="shape152-1" transform="translate(96.4451,-243.546)">
			<title>Dynamic connector.152</title>
			<path d="M0 270.55 L-19.22 291.86" class="st1"/>
		</g>
		<g id="shape153-7" transform="translate(118.407,-243.546)">
			<title>Dynamic connector.153</title>
			<path d="M0 270.55 L20.1 291.97" class="st1"/>
		</g>
		<g id="shape154-12" transform="translate(82.1486,-189.026)">
			<title>Dynamic connector.154</title>
			<path d="M0 270.55 L19.42 293.41" class="st1"/>
		</g>
		<g id="shape155-17" transform="translate(60.1868,-189.026)">
			<title>Dynamic connector.155</title>
			<path d="M0 270.55 L-20.3 293.52" class="st1"/>
		</g>
		<g id="shape156-22" transform="translate(33.9023,-128.23)">
			<title>Dynamic connector.156</title>
			<path d="M0 270.55 L32.04 299.51" class="st3"/>
		</g>
		<g id="shape157-28" transform="translate(107.426,-128.23)">
			<title>Dynamic connector.157</title>
			<path d="M0 270.55 L-31.1 299.44" class="st3"/>
		</g>
		<g id="shape158-33" transform="translate(71.1677,-63.5)">
			<title>Dynamic connector.158</title>
			<path d="M0 270.55 L30.98 297.85" class="st3"/>
		</g>
		<g id="shape159-38" transform="translate(144.691,-184.48)">
			<title>Dynamic connector.159</title>
			<path d="M0 270.55 L-35.6 416.64" class="st3"/>
		</g>
		<g id="shape160-43" transform="translate(0.375,-29.5545)">
			<title>Sheet.160</title>
			<desc>continuations</desc>
			<rect x="0" y="250.555" width="80.4964" height="20" class="st5"/>
			<text x="6.78" y="264.15" class="st6">continuations</text>		</g>
		<g id="shape161-46" transform="translate(91.8987,-239)">
			<title>Circle.161</title>
			<path d="M0 255.03 A15.5273 15.5273 0 0 1 31.05 255.03 A15.5273 15.5273 0 1 1 0 255.03 Z" class="st7"/>
		</g>
		<g id="shape162-48" transform="translate(91.8987,-128.23)">
			<title>Circle.162</title>
			<path d="M0 255.03 A15.5273 15.5273 0 0 1 31.05 255.03 A15.5273 15.5273 0 1 1 0 255.03 Z" class="st7"/>
		</g>
		<g id="shape163-50" transform="translate(55.6404,-184.48)">
			<title>Circle.163</title>
			<path d="M0 255.03 A15.5273 15.5273 0 0 1 31.05 255.03 A15.5273 15.5273 0 1 1 0 255.03 Z" class="st7"/>
		</g>
		<g id="shape164-52" transform="translate(129.164,-184.48)">
			<title>Circle.164</title>
			<path d="M0 255.03 A15.5273 15.5273 0 0 1 31.05 255.03 A15.5273 15.5273 0 1 1 0 255.03 Z" class="st7"/>
		</g>
		<g id="shape165-54" transform="translate(18.375,-128.23)">
			<title>Circle.165</title>
			<path d="M0 255.03 A15.5273 15.5273 0 0 1 31.05 255.03 A15.5273 15.5273 0 1 1 0 255.03 Z" class="st7"/>
		</g>
		<g id="shape166-56" transform="translate(55.6404,-63.5)">
			<title>Circle.166</title>
			<path d="M0 255.03 A15.5273 15.5273 0 0 1 31.05 255.03 A15.5273 15.5273 0 1 1 0 255.03 Z" class="st8"/>
		</g>
		<g id="shape167-58" transform="translate(91.8987,-0.5)">
			<title>Circle.167</title>
			<path d="M0 255.03 A15.5273 15.5273 0 0 1 31.05 255.03 A15.5273 15.5273 0 1 1 0 255.03 Z" class="st8"/>
		</g>
	</g>
</svg>
