<?xml version="1.0" encoding="UTF-8" standalone="no"?>
<!DOCTYPE svg PUBLIC "-//W3C//DTD SVG 1.1//EN" "http://www.w3.org/Graphics/SVG/1.1/DTD/svg11.dtd">
<!-- Generated by Microsoft Visio, SVG Export Isolation.svg Page-1 -->
<svg xmlns="http://www.w3.org/2000/svg" xmlns:xlink="http://www.w3.org/1999/xlink" xmlns:ev="http://www.w3.org/2001/xml-events"
		width="5.01042in" height="3.11792in" viewBox="0 0 360.75 224.49" xml:space="preserve" color-interpolation-filters="sRGB"
		class="st13">
	<style type="text/css">
	<![CDATA[
		.st1 {fill:#ddd6e5;stroke:#000000;stroke-linecap:round;stroke-linejoin:round;stroke-width:0.24}
		.st2 {fill:#000000;font-family:Calibri;font-size:0.833336em}
		.st3 {fill:#eee7a4;stroke:#000000;stroke-linecap:round;stroke-linejoin:round;stroke-width:0.24}
		.st4 {stroke:#000000;stroke-linecap:round;stroke-linejoin:round;stroke-width:0.75}
		.st5 {fill:#ffffff;stroke:#000000;stroke-linecap:round;stroke-linejoin:round;stroke-width:0.24}
		.st6 {fill:#000000;font-family:Calibri;font-size:0.666664em}
		.st7 {font-size:1em}
		.st8 {fill:#000000;stroke:#000000;stroke-linecap:round;stroke-linejoin:round;stroke-width:0.24}
		.st9 {fill:#f8f4d6;stroke:#000000;stroke-linecap:round;stroke-linejoin:round;stroke-width:0.24}
		.st10 {fill:none;stroke:#00b050;stroke-linecap:round;stroke-linejoin:round;stroke-width:0.75}
		.st11 {fill:none;stroke:none;stroke-linecap:round;stroke-linejoin:round;stroke-width:0.24}
		.st12 {fill:#00b050;font-family:Calibri;font-size:0.833336em}
		.st13 {fill:none;fill-rule:evenodd;font-size:12px;overflow:visible;stroke-linecap:square;stroke-miterlimit:3}
	]]>
	</style>

	<g>
		<title>Page-1</title>
		<g id="shape864-1" transform="translate(3.18752,-123.307)">
			<title>Rectangle.864</title>
			<desc>Micro-scheduler (0)</desc>
			<rect x="0" y="141.802" width="171" height="82.6875" class="st1"/>
			<text x="45.54" y="154.8" class="st2">Micro-scheduler (0)</text>		</g>
		<g id="shape865-4" transform="translate(94.3125,-0.12)">
			<title>Rectangle.865</title>
			<desc>Worker Pool (j)</desc>
			<rect x="0" y="136.74" width="171" height="87.75" class="st3"/>
			<text x="54.67" y="217.49" class="st2">Worker Pool (j)</text>		</g>
		<g id="shape866-7" transform="translate(117.937,-81.7629)">
			<title>Dynamic connector.866</title>
			<path d="M0 224.49 L-91.12 174.51" class="st4"/>
		</g>
		<g id="shape867-10" transform="translate(153.937,-81.7629)">
			<title>Dynamic connector.867</title>
			<path d="M0 224.49 L-91.12 174.51" class="st4"/>
		</g>
		<g id="shape868-13" transform="translate(205.687,-81.7629)">
			<title>Dynamic connector.868</title>
			<path d="M0 224.49 L-91.12 174.51" class="st4"/>
		</g>
		<g id="shape869-16" transform="translate(241.687,-81.7629)">
			<title>Dynamic connector.869</title>
			<path d="M0 224.49 L-91.12 174.51" class="st4"/>
		</g>
		<g id="group870-19" transform="translate(-144.802,92.745) rotate(-90)">
			<title>Sheet.870</title>
			<g id="shape871-20">
				<title>Rectangle.400</title>
				<desc>Local Scheduler (0,1)</desc>
				<rect x="0" y="190.74" width="54" height="33.75" class="st5"/>
				<text x="18.68" y="200.42" class="st6">Local <tspan x="10.87" dy="1.2em" class="st7">Scheduler </tspan><tspan
							x="19.52" dy="1.2em" class="st7">(0,1)</tspan></text>			</g>
		</g>
		<g id="group872-25" transform="translate(-180.802,92.745) rotate(-90)">
			<title>Sheet.872</title>
			<g id="shape873-26">
				<title>Rectangle.400</title>
				<desc>Local Scheduler (0,0)</desc>
				<rect x="0" y="190.74" width="54" height="33.75" class="st5"/>
				<text x="18.68" y="200.42" class="st6">Local <tspan x="10.87" dy="1.2em" class="st7">Scheduler </tspan><tspan
							x="19.52" dy="1.2em" class="st7">(0,0)</tspan></text>			</g>
		</g>
		<g id="group874-31" transform="translate(-57.0525,92.745) rotate(-90)">
			<title>Sheet.874</title>
			<g id="shape875-32">
				<title>Rectangle.400</title>
				<desc>Local Scheduler (0,k)</desc>
				<rect x="0" y="190.74" width="54" height="33.75" class="st5"/>
				<text x="18.68" y="200.42" class="st6">Local <tspan x="10.87" dy="1.2em" class="st7">Scheduler </tspan><tspan
							x="19.73" dy="1.2em" class="st7">(0,k)</tspan></text>			</g>
		</g>
		<g id="group876-37" transform="translate(-93.0525,92.745) rotate(-90)">
			<title>Sheet.876</title>
			<g id="shape877-38">
				<title>Rectangle.400</title>
				<desc>Local Scheduler (0,k-1)</desc>
				<rect x="0" y="190.74" width="54" height="33.75" class="st5"/>
				<text x="18.68" y="200.42" class="st6">Local <tspan x="10.87" dy="1.2em" class="st7">Scheduler </tspan><tspan
							x="16.48" dy="1.2em" class="st7">(0,k</tspan>-1)</text>			</g>
		</g>
		<g id="group878-43" transform="translate(83.25,-158.344)">
			<title>Sheet.878</title>
			<g id="shape879-44">
				<title>Circle.126</title>
				<path d="M0 223.55 a0.9375 0.9375 0 1 1 1.875 -2.84217E-14 a0.9375 0.9375 0 1 1 -1.875 0 Z" class="st8"/>
			</g>
			<g id="shape880-46" transform="translate(4.5,0)">
				<title>Circle.127</title>
				<path d="M0 223.55 a0.9375 0.9375 0 1 1 1.875 -2.84217E-14 a0.9375 0.9375 0 1 1 -1.875 0 Z" class="st8"/>
			</g>
			<g id="shape881-48" transform="translate(9,0)">
				<title>Circle.128</title>
				<path d="M0 223.55 a0.9375 0.9375 0 1 1 1.875 -2.84217E-14 a0.9375 0.9375 0 1 1 -1.875 0 Z" class="st8"/>
			</g>
		</g>
		<g id="group882-50" transform="translate(174.375,-54.8444)">
			<title>Sheet.882</title>
			<g id="shape883-51">
				<title>Circle.126</title>
				<path d="M0 223.55 a0.9375 0.9375 0 1 1 1.875 -2.84217E-14 a0.9375 0.9375 0 1 1 -1.875 0 Z" class="st8"/>
			</g>
			<g id="shape884-53" transform="translate(4.5,0)">
				<title>Circle.127</title>
				<path d="M0 223.55 a0.9375 0.9375 0 1 1 1.875 -2.84217E-14 a0.9375 0.9375 0 1 1 -1.875 0 Z" class="st8"/>
			</g>
			<g id="shape885-55" transform="translate(9,0)">
				<title>Circle.128</title>
				<path d="M0 223.55 a0.9375 0.9375 0 1 1 1.875 -2.84217E-14 a0.9375 0.9375 0 1 1 -1.875 0 Z" class="st8"/>
			</g>
		</g>
		<g id="group886-57" transform="translate(-53.6775,202.513) rotate(-90)">
			<title>Sheet.886</title>
			<g id="shape887-58">
				<title>Rectangle.400</title>
				<desc>Worker (j,1)</desc>
				<rect x="0" y="190.74" width="59.7857" height="33.75" class="st9"/>
				<text x="10.31" y="201.94" class="st6">Worker (j,1)</text>			</g>
			<g id="shape888-61" transform="translate(4.98212,-3.37498)">
				<title>Rectangle.399</title>
				<desc>SW Thread</desc>
				<rect x="0" y="208.74" width="49.8214" height="15.75" class="st5"/>
				<text x="7.16" y="219.01" class="st6">SW Thread</text>			</g>
		</g>
		<g id="group889-64" transform="translate(-89.6775,202.513) rotate(-90)">
			<title>Sheet.889</title>
			<g id="shape890-65">
				<title>Rectangle.400</title>
				<desc>Worker (j,0)</desc>
				<rect x="0" y="190.74" width="59.7857" height="33.75" class="st9"/>
				<text x="10.31" y="201.94" class="st6">Worker (j,0)</text>			</g>
			<g id="shape891-68" transform="translate(4.98212,-3.37498)">
				<title>Rectangle.399</title>
				<desc>SW Thread</desc>
				<rect x="0" y="208.74" width="49.8214" height="15.75" class="st5"/>
				<text x="7.16" y="219.01" class="st6">SW Thread</text>			</g>
		</g>
		<g id="group892-71" transform="translate(34.0725,202.513) rotate(-90)">
			<title>Sheet.892</title>
			<g id="shape893-72">
				<title>Rectangle.400</title>
				<desc>Worker (j,k)</desc>
				<rect x="0" y="190.74" width="59.7857" height="33.75" class="st9"/>
				<text x="10.52" y="201.94" class="st6">Worker (j,k)</text>			</g>
			<g id="shape894-75" transform="translate(4.98212,-3.37498)">
				<title>Rectangle.399</title>
				<desc>SW Thread</desc>
				<rect x="0" y="208.74" width="49.8214" height="15.75" class="st5"/>
				<text x="7.16" y="219.01" class="st6">SW Thread</text>			</g>
		</g>
		<g id="group895-78" transform="translate(-1.92751,202.513) rotate(-90)">
			<title>Sheet.895</title>
			<g id="shape896-79">
				<title>Rectangle.400</title>
				<desc>Worker (j,k-1)</desc>
				<rect x="0" y="190.74" width="59.7857" height="33.75" class="st9"/>
				<text x="7.27" y="201.94" class="st6">Worker (j,k-1)</text>			</g>
			<g id="shape897-82" transform="translate(4.98212,-3.37498)">
				<title>Rectangle.399</title>
				<desc>SW Thread</desc>
				<rect x="0" y="208.74" width="49.8214" height="15.75" class="st5"/>
				<text x="7.16" y="219.01" class="st6">SW Thread</text>			</g>
		</g>
		<g id="shape904-85" transform="translate(186.563,-123.307)">
			<title>Rectangle.904</title>
			<desc>Micro-scheduler (1)</desc>
			<rect x="0" y="141.802" width="171" height="82.6875" class="st1"/>
			<text x="45.54" y="154.8" class="st2">Micro-scheduler (1)</text>		</g>
		<g id="group905-88" transform="translate(38.5726,92.745) rotate(-90)">
			<title>Sheet.905</title>
			<g id="shape906-89">
				<title>Rectangle.400</title>
				<desc>Local Scheduler (1,1)</desc>
				<rect x="0" y="190.74" width="54" height="33.75" class="st5"/>
				<text x="18.68" y="200.42" class="st6">Local <tspan x="10.87" dy="1.2em" class="st7">Scheduler </tspan><tspan
							x="19.52" dy="1.2em" class="st7">(1,1)</tspan></text>			</g>
		</g>
		<g id="group907-94" transform="translate(2.57257,92.745) rotate(-90)">
			<title>Sheet.907</title>
			<g id="shape908-95">
				<title>Rectangle.400</title>
				<desc>Local Scheduler (1,0)</desc>
				<rect x="0" y="190.74" width="54" height="33.75" class="st5"/>
				<text x="18.68" y="200.42" class="st6">Local <tspan x="10.87" dy="1.2em" class="st7">Scheduler </tspan><tspan
							x="19.52" dy="1.2em" class="st7">(1,0)</tspan></text>			</g>
		</g>
		<g id="group909-100" transform="translate(126.323,92.745) rotate(-90)">
			<title>Sheet.909</title>
			<g id="shape910-101">
				<title>Rectangle.400</title>
				<desc>Local Scheduler (1,k)</desc>
				<rect x="0" y="190.74" width="54" height="33.75" class="st5"/>
				<text x="18.68" y="200.42" class="st6">Local <tspan x="10.87" dy="1.2em" class="st7">Scheduler </tspan><tspan
							x="19.73" dy="1.2em" class="st7">(1,k)</tspan></text>			</g>
		</g>
		<g id="group911-106" transform="translate(90.3226,92.745) rotate(-90)">
			<title>Sheet.911</title>
			<g id="shape912-107">
				<title>Rectangle.400</title>
				<desc>Local Scheduler (1,k-1)</desc>
				<rect x="0" y="190.74" width="54" height="33.75" class="st5"/>
				<text x="18.68" y="200.42" class="st6">Local <tspan x="10.87" dy="1.2em" class="st7">Scheduler </tspan><tspan
							x="16.48" dy="1.2em" class="st7">(1,k</tspan>-1)</text>			</g>
		</g>
		<g id="group913-112" transform="translate(266.625,-158.344)">
			<title>Sheet.913</title>
			<g id="shape914-113">
				<title>Circle.126</title>
				<path d="M0 223.55 a0.9375 0.9375 0 1 1 1.875 -2.84217E-14 a0.9375 0.9375 0 1 1 -1.875 0 Z" class="st8"/>
			</g>
			<g id="shape915-115" transform="translate(4.5,0)">
				<title>Circle.127</title>
				<path d="M0 223.55 a0.9375 0.9375 0 1 1 1.875 -2.84217E-14 a0.9375 0.9375 0 1 1 -1.875 0 Z" class="st8"/>
			</g>
			<g id="shape916-117" transform="translate(9,0)">
				<title>Circle.128</title>
				<path d="M0 223.55 a0.9375 0.9375 0 1 1 1.875 -2.84217E-14 a0.9375 0.9375 0 1 1 -1.875 0 Z" class="st8"/>
			</g>
		</g>
		<g id="shape917-119" transform="translate(117.937,-81.7629)">
			<title>Dynamic connector.917</title>
			<path d="M0 224.49 L15.47 216.11 A3 3 0 1 1 20.75 213.25 L41.51 202 A3 3 0 1 1 46.78 199.14 L59.62 192.19 A3 3 0 1 1
						 64.89 189.33 L92.25 174.51" class="st4"/>
		</g>
		<g id="shape918-122" transform="translate(153.937,-81.7629)">
			<title>Dynamic connector.918</title>
			<path d="M0 224.49 L23.4 211.81 A3 3 0 1 1 28.67 208.96 L41.51 202 A3 3 0 1 1 46.78 199.14 L92.25 174.51" class="st4"/>
		</g>
		<g id="shape919-125" transform="translate(205.687,-81.7629)">
			<title>Dynamic connector.919</title>
			<path d="M0 224.49 L15.47 216.11 A3 3 0 1 1 20.75 213.25 L92.25 174.51" class="st4"/>
		</g>
		<g id="shape920-128" transform="translate(241.687,-81.7629)">
			<title>Dynamic connector.920</title>
			<path d="M0 224.49 L92.25 174.51" class="st4"/>
		</g>
		<g id="shape921-131" transform="translate(0.375,-120.495)">
			<title>Rectangle.921</title>
			<rect x="0" y="136.74" width="176.625" height="87.75" class="st10"/>
		</g>
		<g id="shape922-133" transform="translate(183.75,-120.495)">
			<title>Rectangle.922</title>
			<rect x="0" y="136.74" width="176.625" height="87.75" class="st10"/>
		</g>
		<g id="shape923-135" transform="translate(138.75,-208.245)">
			<title>Rectangle.923</title>
			<desc>Isolated Regions</desc>
			<rect x="0" y="208.365" width="83.25" height="16.125" class="st11"/>
			<text x="8.39" y="219.43" class="st12">Isolated Regions</text>		</g>
	</g>
</svg>
