<?xml version="1.0" encoding="UTF-8" standalone="no"?>
<!DOCTYPE svg PUBLIC "-//W3C//DTD SVG 1.1//EN" "http://www.w3.org/Graphics/SVG/1.1/DTD/svg11.dtd">
<!-- Generated by Microsoft Visio, SVG Export MicroSchedulerMapping.svg Page-1 -->
<svg xmlns="http://www.w3.org/2000/svg" xmlns:xlink="http://www.w3.org/1999/xlink" xmlns:ev="http://www.w3.org/2001/xml-events"
		width="2.37833in" height="2.69083in" viewBox="0 0 171.24 193.74" xml:space="preserve" color-interpolation-filters="sRGB"
		class="st10">
	<style type="text/css">
	<![CDATA[
		.st1 {fill:#cbd8ef;stroke:#000000;stroke-linecap:round;stroke-linejoin:round;stroke-width:0.24}
		.st2 {fill:#000000;font-family:Calibri;font-size:0.833336em}
		.st3 {fill:#ffffff;stroke:#000000;stroke-linecap:round;stroke-linejoin:round;stroke-width:0.24}
		.st4 {fill:#000000;font-family:Calibri;font-size:0.666664em}
		.st5 {font-size:1em}
		.st6 {fill:#eee7a4;stroke:#000000;stroke-linecap:round;stroke-linejoin:round;stroke-width:0.24}
		.st7 {fill:#000000;stroke:#000000;stroke-linecap:round;stroke-linejoin:round;stroke-width:0.24}
		.st8 {fill:#f8f4d6;stroke:#000000;stroke-linecap:round;stroke-linejoin:round;stroke-width:0.24}
		.st9 {stroke:#000000;stroke-linecap:round;stroke-linejoin:round;stroke-width:0.75}
		.st10 {fill:none;fill-rule:evenodd;font-size:12px;overflow:visible;stroke-linecap:square;stroke-miterlimit:3}
	]]>
	</style>

	<g>
		<title>Page-1</title>
		<g id="shape417-1" transform="translate(0.12,-110.932)">
			<title>Rectangle.417</title>
			<desc>Micro-scheduler</desc>
			<rect x="0" y="111.052" width="171" height="82.6875" class="st1"/>
			<text x="52.24" y="124.05" class="st2">Micro-scheduler</text>		</g>
		<g id="group423-4" transform="translate(-117.12,74.37) rotate(-90)">
			<title>Sheet.423</title>
			<g id="shape424-5">
				<title>Rectangle.400</title>
				<desc>Local Scheduler</desc>
				<rect x="0" y="159.99" width="54" height="33.75" class="st3"/>
				<text x="18.68" y="174.47" class="st4">Local <tspan x="10.87" dy="1.2em" class="st5">Scheduler</tspan></text>			</g>
		</g>
		<g id="group427-9" transform="translate(-153.12,74.37) rotate(-90)">
			<title>Sheet.427</title>
			<g id="shape428-10">
				<title>Rectangle.400</title>
				<desc>Local Scheduler</desc>
				<rect x="0" y="159.99" width="54" height="33.75" class="st3"/>
				<text x="18.68" y="174.47" class="st4">Local <tspan x="10.87" dy="1.2em" class="st5">Scheduler</tspan></text>			</g>
		</g>
		<g id="group430-14" transform="translate(-29.37,74.37) rotate(-90)">
			<title>Sheet.430</title>
			<g id="shape431-15">
				<title>Rectangle.400</title>
				<desc>Local Scheduler</desc>
				<rect x="0" y="159.99" width="54" height="33.75" class="st3"/>
				<text x="18.68" y="174.47" class="st4">Local <tspan x="10.87" dy="1.2em" class="st5">Scheduler</tspan></text>			</g>
		</g>
		<g id="group433-19" transform="translate(-65.37,74.37) rotate(-90)">
			<title>Sheet.433</title>
			<g id="shape434-20">
				<title>Rectangle.400</title>
				<desc>Local Scheduler</desc>
				<rect x="0" y="159.99" width="54" height="33.75" class="st3"/>
				<text x="18.68" y="174.47" class="st4">Local <tspan x="10.87" dy="1.2em" class="st5">Scheduler</tspan></text>			</g>
		</g>
		<g id="shape365-24" transform="translate(0.120003,-0.12)">
			<title>Rectangle.349</title>
			<desc>Worker Pool</desc>
			<rect x="0" y="111.052" width="171" height="82.6875" class="st6"/>
			<text x="60.03" y="124.05" class="st2">Worker Pool</text>		</g>
		<g id="group366-27" transform="translate(80.1825,-35.1569)">
			<title>Sheet.366</title>
			<g id="shape367-28">
				<title>Circle.126</title>
				<path d="M0 192.8 a0.9375 0.9375 0 1 1 1.875 0 a0.9375 0.9375 0 1 1 -1.875 0 Z" class="st7"/>
			</g>
			<g id="shape368-30" transform="translate(4.5,0)">
				<title>Circle.127</title>
				<path d="M0 192.8 a0.9375 0.9375 0 1 1 1.875 0 a0.9375 0.9375 0 1 1 -1.875 0 Z" class="st7"/>
			</g>
			<g id="shape369-32" transform="translate(9,0)">
				<title>Circle.128</title>
				<path d="M0 192.8 a0.9375 0.9375 0 1 1 1.875 0 a0.9375 0.9375 0 1 1 -1.875 0 Z" class="st7"/>
			</g>
		</g>
		<g id="shape376-34" transform="translate(-117.12,185.182) rotate(-90)">
			<title>Rectangle.342</title>
			<desc>SW Thread</desc>
			<rect x="0" y="177.99" width="45" height="15.75" class="st8"/>
			<text x="4.75" y="188.26" class="st4">SW Thread</text>		</g>
		<g id="group401-37" transform="translate(-117.12,185.182) rotate(-90)">
			<title>Sheet.401</title>
			<g id="shape400-38">
				<title>Rectangle.400</title>
				<desc>Worker</desc>
				<rect x="0" y="159.99" width="54" height="33.75" class="st8"/>
				<text x="14.73" y="171.19" class="st4">Worker</text>			</g>
			<g id="shape399-41" transform="translate(4.49998,-3.37498)">
				<title>Rectangle.399</title>
				<desc>SW Thread</desc>
				<rect x="0" y="177.99" width="45" height="15.75" class="st3"/>
				<text x="4.75" y="188.26" class="st4">SW Thread</text>			</g>
		</g>
		<g id="shape402-44" transform="translate(-153.12,185.182) rotate(-90)">
			<title>Rectangle.402</title>
			<desc>SW Thread</desc>
			<rect x="0" y="177.99" width="45" height="15.75" class="st8"/>
			<text x="4.75" y="188.26" class="st4">SW Thread</text>		</g>
		<g id="group403-47" transform="translate(-153.12,185.182) rotate(-90)">
			<title>Sheet.403</title>
			<g id="shape404-48">
				<title>Rectangle.400</title>
				<desc>Worker</desc>
				<rect x="0" y="159.99" width="54" height="33.75" class="st8"/>
				<text x="14.73" y="171.19" class="st4">Worker</text>			</g>
			<g id="shape405-51" transform="translate(4.49998,-3.37498)">
				<title>Rectangle.399</title>
				<desc>SW Thread</desc>
				<rect x="0" y="177.99" width="45" height="15.75" class="st3"/>
				<text x="4.75" y="188.26" class="st4">SW Thread</text>			</g>
		</g>
		<g id="group406-54" transform="translate(-29.37,185.182) rotate(-90)">
			<title>Sheet.406</title>
			<g id="shape407-55">
				<title>Rectangle.400</title>
				<desc>Worker</desc>
				<rect x="0" y="159.99" width="54" height="33.75" class="st8"/>
				<text x="14.73" y="171.19" class="st4">Worker</text>			</g>
			<g id="shape408-58" transform="translate(4.49998,-3.37498)">
				<title>Rectangle.399</title>
				<desc>SW Thread</desc>
				<rect x="0" y="177.99" width="45" height="15.75" class="st3"/>
				<text x="4.75" y="188.26" class="st4">SW Thread</text>			</g>
		</g>
		<g id="group409-61" transform="translate(-65.37,185.182) rotate(-90)">
			<title>Sheet.409</title>
			<g id="shape410-62">
				<title>Rectangle.400</title>
				<desc>Worker</desc>
				<rect x="0" y="159.99" width="54" height="33.75" class="st8"/>
				<text x="14.73" y="171.19" class="st4">Worker</text>			</g>
			<g id="shape411-65" transform="translate(4.49998,-3.37498)">
				<title>Rectangle.399</title>
				<desc>SW Thread</desc>
				<rect x="0" y="177.99" width="45" height="15.75" class="st3"/>
				<text x="4.75" y="188.26" class="st4">SW Thread</text>			</g>
		</g>
		<g id="group418-68" transform="translate(80.1825,-145.969)">
			<title>Sheet.418</title>
			<g id="shape419-69">
				<title>Circle.126</title>
				<path d="M0 192.8 a0.9375 0.9375 0 1 1 1.875 0 a0.9375 0.9375 0 1 1 -1.875 0 Z" class="st7"/>
			</g>
			<g id="shape420-71" transform="translate(4.5,0)">
				<title>Circle.127</title>
				<path d="M0 192.8 a0.9375 0.9375 0 1 1 1.875 0 a0.9375 0.9375 0 1 1 -1.875 0 Z" class="st7"/>
			</g>
			<g id="shape421-73" transform="translate(9,0)">
				<title>Circle.128</title>
				<path d="M0 192.8 a0.9375 0.9375 0 1 1 1.875 0 a0.9375 0.9375 0 1 1 -1.875 0 Z" class="st7"/>
			</g>
		</g>
		<g id="shape436-75" transform="translate(14.745,-119.37)">
			<title>Dynamic connector.436</title>
			<path d="M9 193.74 L9 250.55" class="st9"/>
		</g>
		<g id="shape437-78" transform="translate(50.745,-119.37)">
			<title>Dynamic connector.437</title>
			<path d="M9 193.74 L9 250.55" class="st9"/>
		</g>
		<g id="shape438-81" transform="translate(102.495,-119.37)">
			<title>Dynamic connector.438</title>
			<path d="M9 193.74 L9 250.55" class="st9"/>
		</g>
		<g id="shape439-84" transform="translate(138.495,-119.37)">
			<title>Dynamic connector.439</title>
			<path d="M9 193.74 L9 250.55" class="st9"/>
		</g>
	</g>
</svg>
