<?xml version="1.0" encoding="UTF-8" standalone="no"?>
<!DOCTYPE svg PUBLIC "-//W3C//DTD SVG 1.1//EN" "http://www.w3.org/Graphics/SVG/1.1/DTD/svg11.dtd">
<!-- Generated by Microsoft Visio, SVG Export Node.svg Page-1 -->
<svg xmlns="http://www.w3.org/2000/svg" xmlns:xlink="http://www.w3.org/1999/xlink" xmlns:ev="http://www.w3.org/2001/xml-events"
		width="0.434646in" height="0.434646in" viewBox="0 0 31.2945 31.2945" xml:space="preserve"
		color-interpolation-filters="sRGB" class="st5">
	<style type="text/css">
	<![CDATA[
		.st1 {fill:#002060;stroke:none;stroke-linecap:round;stroke-linejoin:round;stroke-width:0.24}
		.st2 {fill:#d8d8d8;stroke:#002060;stroke-linecap:round;stroke-linejoin:round;stroke-width:1}
		.st3 {fill:#e5b9b5;stroke:#002060;stroke-linecap:round;stroke-linejoin:round;stroke-width:1}
		.st4 {fill:#d7e3bf;stroke:#002060;stroke-linecap:round;stroke-linejoin:round;stroke-width:1}
		.st5 {fill:none;fill-rule:evenodd;font-size:12px;overflow:visible;stroke-linecap:square;stroke-miterlimit:3}
	]]>
	</style>

	<g>
		<title>Page-1</title>
		<g id="shape51-1" transform="translate(0.12,-0.12)">
			<title>Circle</title>
			<path d="M0 15.77 A15.5273 15.5273 0 0 1 31.05 15.77 A15.5273 15.5273 0 1 1 0 15.77 Z" class="st1"/>
		</g>
		<g id="shape52-3" transform="translate(5.74863,-9.59736)">
			<title>Rounded Rectangle.52</title>
			<path d="M1.98 31.29 L17.82 31.29 A1.97969 1.97969 -180 0 0 19.8 29.31 L19.8 21.63 A1.97969 1.97969 -180 0 0 17.82 19.65
						 L1.98 19.65 A1.97969 1.97969 -180 0 0 0 21.63 L0 29.31 A1.97969 1.97969 -180 0 0 1.98 31.29 Z" class="st2"/>
		</g>
		<g id="shape53-5" transform="translate(8.71822,-19.7851)">
			<title>Rectangle.53</title>
			<rect x="0" y="25.764" width="13.8581" height="5.53049" class="st3"/>
		</g>
		<g id="shape54-7" transform="translate(8.71822,-5.81333)">
			<title>Rectangle.54</title>
			<rect x="0" y="25.764" width="13.8581" height="5.53049" class="st4"/>
		</g>
	</g>
</svg>
