<?xml version="1.0" encoding="UTF-8" standalone="no"?>
<!DOCTYPE svg PUBLIC "-//W3C//DTD SVG 1.1//EN" "http://www.w3.org/Graphics/SVG/1.1/DTD/svg11.dtd">
<!-- Generated by Microsoft Visio, SVG Export NumaHierarchy.svg Page-1 -->
<svg xmlns="http://www.w3.org/2000/svg" xmlns:xlink="http://www.w3.org/1999/xlink" xmlns:ev="http://www.w3.org/2001/xml-events"
		width="5.51144in" height="4.27677in" viewBox="0 0 396.824 307.928" xml:space="preserve" color-interpolation-filters="sRGB"
		class="st19">
	<style type="text/css">
	<![CDATA[
		.st1 {fill:#cbd8ef;stroke:#000000;stroke-linecap:round;stroke-linejoin:round;stroke-width:0.24}
		.st2 {fill:#000000;font-family:Calibri;font-size:0.833336em}
		.st3 {fill:#e5b9b5;stroke:#000000;stroke-linecap:round;stroke-linejoin:round;stroke-width:0.24}
		.st4 {fill:#ffffff;stroke:#000000;stroke-linecap:round;stroke-linejoin:round;stroke-width:0.24}
		.st5 {fill:#000000;font-family:Calibri;font-size:0.666664em}
		.st6 {fill:#000000;stroke:#000000;stroke-linecap:round;stroke-linejoin:round;stroke-width:0.24}
		.st7 {fill:#eee7a4;stroke:#000000;stroke-linecap:round;stroke-linejoin:round;stroke-width:0.24}
		.st8 {fill:#f8f4d6;stroke:#000000;stroke-linecap:round;stroke-linejoin:round;stroke-width:0.24}
		.st9 {fill:#ddd6e5;stroke:#000000;stroke-linecap:round;stroke-linejoin:round;stroke-width:0.24}
		.st10 {font-size:1em}
		.st11 {stroke:#000000;stroke-linecap:round;stroke-linejoin:round;stroke-width:0.75}
		.st12 {fill:#e3d86f;stroke:#000000;stroke-linecap:round;stroke-linejoin:round;stroke-width:0.24}
		.st13 {fill:#ccc2d9;stroke:#000000;stroke-linecap:round;stroke-linejoin:round;stroke-width:0.24}
		.st14 {stroke:#000000;stroke-dasharray:1.68,1.2;stroke-linecap:round;stroke-linejoin:round;stroke-width:0.24}
		.st15 {marker-end:url(#mrkr4-228);marker-start:url(#mrkr4-226);stroke:#f59d56;stroke-linecap:round;stroke-linejoin:round;stroke-width:1}
		.st16 {fill:#f59d56;fill-opacity:1;stroke:#f59d56;stroke-opacity:1;stroke-width:0.28409090909091}
		.st17 {fill:#ffffff;stroke:none;stroke-linecap:butt}
		.st18 {fill:#f59d56;font-family:Calibri;font-size:0.666664em}
		.st19 {fill:none;fill-rule:evenodd;font-size:12px;overflow:visible;stroke-linecap:square;stroke-miterlimit:3}
	]]>
	</style>

	<defs id="Markers">
		<g id="lend4">
			<path d="M 2 1 L 0 0 L 2 -1 L 2 1 " style="stroke:none"/>
		</g>
		<marker id="mrkr4-226" class="st16" refX="6.68" orient="auto" markerUnits="strokeWidth" overflow="visible">
			<use xlink:href="#lend4" transform="scale(3.52) "/>
		</marker>
		<marker id="mrkr4-228" class="st16" refX="-7.04" orient="auto" markerUnits="strokeWidth" overflow="visible">
			<use xlink:href="#lend4" transform="scale(-3.52,-3.52) "/>
		</marker>
	</defs>
	<g>
		<title>Page-1</title>
		<g id="shape1102-1" transform="translate(105.457,-0.12)">
			<title>Rectangle.1102</title>
			<desc>Group</desc>
			<rect x="0" y="195.428" width="171" height="112.5" class="st1"/>
			<text x="72.71" y="208.43" class="st2">Group</text>		</g>
		<g id="shape1103-4" transform="translate(112.207,-7.43248)">
			<title>Rectangle.1103</title>
			<desc>NUMA 0</desc>
			<rect x="0" y="223.552" width="69.75" height="84.375" class="st3"/>
			<text x="17.61" y="236.55" class="st2">NUMA 0</text>		</g>
		<g id="group1104-7" transform="translate(118.957,-43.995)">
			<title>Sheet.1104</title>
			<g id="shape1105-8">
				<title>Rectangle.400</title>
				<desc>Core 1</desc>
				<rect x="0" y="295.553" width="54" height="12.375" class="st4"/>
				<text x="16.44" y="304.14" class="st5">Core 1</text>			</g>
		</g>
		<g id="group1106-11" transform="translate(118.957,-60.87)">
			<title>Sheet.1106</title>
			<g id="shape1107-12">
				<title>Rectangle.400</title>
				<desc>Core 0</desc>
				<rect x="0" y="295.553" width="54" height="12.375" class="st4"/>
				<text x="16.44" y="304.14" class="st5">Core 0</text>			</g>
		</g>
		<g id="group1108-15" transform="translate(118.957,-13.62)">
			<title>Sheet.1108</title>
			<g id="shape1109-16">
				<title>Rectangle.400</title>
				<desc>Core N</desc>
				<rect x="0" y="295.553" width="54" height="12.375" class="st4"/>
				<text x="15.89" y="304.14" class="st5">Core N</text>			</g>
		</g>
		<g id="group1110-19" transform="translate(453.484,267.495) rotate(90)">
			<title>Sheet.1110</title>
			<g id="shape1111-20">
				<title>Circle.126</title>
				<path d="M0 306.99 a0.9375 0.9375 0 1 1 1.875 0 a0.9375 0.9375 0 1 1 -1.875 0 Z" class="st6"/>
			</g>
			<g id="shape1112-22" transform="translate(4.5,0)">
				<title>Circle.127</title>
				<path d="M0 306.99 a0.9375 0.9375 0 1 1 1.875 0 a0.9375 0.9375 0 1 1 -1.875 0 Z" class="st6"/>
			</g>
			<g id="shape1113-24" transform="translate(9,0)">
				<title>Circle.128</title>
				<path d="M0 306.99 a0.9375 0.9375 0 1 1 1.875 0 a0.9375 0.9375 0 1 1 -1.875 0 Z" class="st6"/>
			</g>
		</g>
		<g id="shape1114-26" transform="translate(199.957,-7.43248)">
			<title>Rectangle.1114</title>
			<desc>NUMA 1</desc>
			<rect x="0" y="223.552" width="69.75" height="84.375" class="st3"/>
			<text x="17.61" y="236.55" class="st2">NUMA 1</text>		</g>
		<g id="group1115-29" transform="translate(206.707,-43.995)">
			<title>Sheet.1115</title>
			<g id="shape1116-30">
				<title>Rectangle.400</title>
				<desc>Core 1</desc>
				<rect x="0" y="295.553" width="54" height="12.375" class="st4"/>
				<text x="16.44" y="304.14" class="st5">Core 1</text>			</g>
		</g>
		<g id="group1117-33" transform="translate(206.707,-60.87)">
			<title>Sheet.1117</title>
			<g id="shape1118-34">
				<title>Rectangle.400</title>
				<desc>Core 0</desc>
				<rect x="0" y="295.553" width="54" height="12.375" class="st4"/>
				<text x="16.44" y="304.14" class="st5">Core 0</text>			</g>
		</g>
		<g id="group1119-37" transform="translate(206.707,-13.62)">
			<title>Sheet.1119</title>
			<g id="shape1120-38">
				<title>Rectangle.400</title>
				<desc>Core N</desc>
				<rect x="0" y="295.553" width="54" height="12.375" class="st4"/>
				<text x="15.89" y="304.14" class="st5">Core N</text>			</g>
		</g>
		<g id="group1121-41" transform="translate(541.234,267.495) rotate(90)">
			<title>Sheet.1121</title>
			<g id="shape1122-42">
				<title>Circle.126</title>
				<path d="M0 306.99 a0.9375 0.9375 0 1 1 1.875 0 a0.9375 0.9375 0 1 1 -1.875 0 Z" class="st6"/>
			</g>
			<g id="shape1123-44" transform="translate(4.5,0)">
				<title>Circle.127</title>
				<path d="M0 306.99 a0.9375 0.9375 0 1 1 1.875 0 a0.9375 0.9375 0 1 1 -1.875 0 Z" class="st6"/>
			</g>
			<g id="shape1124-46" transform="translate(9,0)">
				<title>Circle.128</title>
				<path d="M0 306.99 a0.9375 0.9375 0 1 1 1.875 0 a0.9375 0.9375 0 1 1 -1.875 0 Z" class="st6"/>
			</g>
		</g>
		<g id="shape1163-48" transform="translate(0.12,-130.62)">
			<title>Rectangle.1163</title>
			<desc>Worker Pool</desc>
			<rect x="0" y="220.177" width="171" height="87.75" class="st7"/>
			<text x="60.03" y="300.93" class="st2">Worker Pool</text>		</g>
		<g id="group1164-51" transform="translate(80.1825,-183.657)">
			<title>Sheet.1164</title>
			<g id="shape1165-52">
				<title>Circle.126</title>
				<path d="M0 306.99 a0.9375 0.9375 0 1 1 1.875 0 a0.9375 0.9375 0 1 1 -1.875 0 Z" class="st6"/>
			</g>
			<g id="shape1166-54" transform="translate(4.5,0)">
				<title>Circle.127</title>
				<path d="M0 306.99 a0.9375 0.9375 0 1 1 1.875 0 a0.9375 0.9375 0 1 1 -1.875 0 Z" class="st6"/>
			</g>
			<g id="shape1167-56" transform="translate(9,0)">
				<title>Circle.128</title>
				<path d="M0 306.99 a0.9375 0.9375 0 1 1 1.875 0 a0.9375 0.9375 0 1 1 -1.875 0 Z" class="st6"/>
			</g>
		</g>
		<g id="group1168-58" transform="translate(-231.308,157.138) rotate(-90)">
			<title>Sheet.1168</title>
			<g id="shape1169-59">
				<title>Rectangle.400</title>
				<desc>Worker</desc>
				<rect x="0" y="274.178" width="59.7857" height="33.75" class="st8"/>
				<text x="17.63" y="285.38" class="st5">Worker</text>			</g>
			<g id="shape1170-62" transform="translate(4.98212,-3.37498)">
				<title>Rectangle.399</title>
				<desc>SW Thread</desc>
				<rect x="0" y="292.178" width="49.8214" height="15.75" class="st4"/>
				<text x="7.16" y="302.45" class="st5">SW Thread</text>			</g>
		</g>
		<g id="group1171-65" transform="translate(-267.308,157.138) rotate(-90)">
			<title>Sheet.1171</title>
			<g id="shape1172-66">
				<title>Rectangle.400</title>
				<desc>Worker</desc>
				<rect x="0" y="274.178" width="59.7857" height="33.75" class="st8"/>
				<text x="17.63" y="285.38" class="st5">Worker</text>			</g>
			<g id="shape1173-69" transform="translate(4.98212,-3.37498)">
				<title>Rectangle.399</title>
				<desc>SW Thread</desc>
				<rect x="0" y="292.178" width="49.8214" height="15.75" class="st4"/>
				<text x="7.16" y="302.45" class="st5">SW Thread</text>			</g>
		</g>
		<g id="group1174-72" transform="translate(-143.558,157.138) rotate(-90)">
			<title>Sheet.1174</title>
			<g id="shape1175-73">
				<title>Rectangle.400</title>
				<desc>Worker</desc>
				<rect x="0" y="274.178" width="59.7857" height="33.75" class="st8"/>
				<text x="17.63" y="285.38" class="st5">Worker</text>			</g>
			<g id="shape1176-76" transform="translate(4.98212,-3.37498)">
				<title>Rectangle.399</title>
				<desc>SW Thread</desc>
				<rect x="0" y="292.178" width="49.8214" height="15.75" class="st4"/>
				<text x="7.16" y="302.45" class="st5">SW Thread</text>			</g>
		</g>
		<g id="group1177-79" transform="translate(-179.558,157.138) rotate(-90)">
			<title>Sheet.1177</title>
			<g id="shape1178-80">
				<title>Rectangle.400</title>
				<desc>Worker</desc>
				<rect x="0" y="274.178" width="59.7857" height="33.75" class="st8"/>
				<text x="17.63" y="285.38" class="st5">Worker</text>			</g>
			<g id="shape1179-83" transform="translate(4.98212,-3.37498)">
				<title>Rectangle.399</title>
				<desc>SW Thread</desc>
				<rect x="0" y="292.178" width="49.8214" height="15.75" class="st4"/>
				<text x="7.16" y="302.45" class="st5">SW Thread</text>			</g>
		</g>
		<g id="shape1180-86" transform="translate(0.157483,-225.12)">
			<title>Rectangle.1180</title>
			<desc>Micro-scheduler</desc>
			<rect x="0" y="225.24" width="171" height="82.6875" class="st9"/>
			<text x="52.24" y="238.24" class="st2">Micro-scheduler</text>		</g>
		<g id="group1181-89" transform="translate(-231.27,74.37) rotate(-90)">
			<title>Sheet.1181</title>
			<g id="shape1182-90">
				<title>Rectangle.400</title>
				<desc>Local Scheduler</desc>
				<rect x="0" y="274.178" width="54" height="33.75" class="st4"/>
				<text x="18.68" y="288.65" class="st5">Local <tspan x="10.87" dy="1.2em" class="st10">Scheduler</tspan></text>			</g>
		</g>
		<g id="group1183-94" transform="translate(-267.27,74.37) rotate(-90)">
			<title>Sheet.1183</title>
			<g id="shape1184-95">
				<title>Rectangle.400</title>
				<desc>Local Scheduler</desc>
				<rect x="0" y="274.178" width="54" height="33.75" class="st4"/>
				<text x="18.68" y="288.65" class="st5">Local <tspan x="10.87" dy="1.2em" class="st10">Scheduler</tspan></text>			</g>
		</g>
		<g id="group1185-99" transform="translate(-143.52,74.37) rotate(-90)">
			<title>Sheet.1185</title>
			<g id="shape1186-100">
				<title>Rectangle.400</title>
				<desc>Local Scheduler</desc>
				<rect x="0" y="274.178" width="54" height="33.75" class="st4"/>
				<text x="18.68" y="288.65" class="st5">Local <tspan x="10.87" dy="1.2em" class="st10">Scheduler</tspan></text>			</g>
		</g>
		<g id="group1187-104" transform="translate(-179.52,74.37) rotate(-90)">
			<title>Sheet.1187</title>
			<g id="shape1188-105">
				<title>Rectangle.400</title>
				<desc>Local Scheduler</desc>
				<rect x="0" y="274.178" width="54" height="33.75" class="st4"/>
				<text x="18.68" y="288.65" class="st5">Local <tspan x="10.87" dy="1.2em" class="st10">Scheduler</tspan></text>			</g>
		</g>
		<g id="group1189-109" transform="translate(80.22,-260.157)">
			<title>Sheet.1189</title>
			<g id="shape1190-110">
				<title>Circle.126</title>
				<path d="M0 306.99 a0.9375 0.9375 0 1 1 1.875 0 a0.9375 0.9375 0 1 1 -1.875 0 Z" class="st6"/>
			</g>
			<g id="shape1191-112" transform="translate(4.5,0)">
				<title>Circle.127</title>
				<path d="M0 306.99 a0.9375 0.9375 0 1 1 1.875 0 a0.9375 0.9375 0 1 1 -1.875 0 Z" class="st6"/>
			</g>
			<g id="shape1192-114" transform="translate(9,0)">
				<title>Circle.128</title>
				<path d="M0 306.99 a0.9375 0.9375 0 1 1 1.875 0 a0.9375 0.9375 0 1 1 -1.875 0 Z" class="st6"/>
			</g>
		</g>
		<g id="shape1193-116" transform="translate(14.7637,-210.575)">
			<title>Dynamic connector.1193</title>
			<path d="M8.98 307.93 L9.02 284.95" class="st11"/>
		</g>
		<g id="shape1194-119" transform="translate(68.7637,-233.558)">
			<title>Dynamic connector.1194</title>
			<path d="M-8.98 307.93 L-9.02 330.91" class="st11"/>
		</g>
		<g id="shape1195-122" transform="translate(102.514,-210.575)">
			<title>Dynamic connector.1195</title>
			<path d="M8.98 307.93 L9.02 284.95" class="st11"/>
		</g>
		<g id="shape1196-125" transform="translate(156.514,-233.558)">
			<title>Dynamic connector.1196</title>
			<path d="M-8.98 307.93 L-9.02 330.91" class="st11"/>
		</g>
		<g id="shape1197-128" transform="translate(210.757,-130.62)">
			<title>Rectangle.1197</title>
			<desc>Worker Pool</desc>
			<rect x="0" y="220.177" width="171" height="87.75" class="st12"/>
			<text x="60.03" y="300.93" class="st2">Worker Pool</text>		</g>
		<g id="group1198-131" transform="translate(290.82,-183.657)">
			<title>Sheet.1198</title>
			<g id="shape1199-132">
				<title>Circle.126</title>
				<path d="M0 306.99 a0.9375 0.9375 0 1 1 1.875 0 a0.9375 0.9375 0 1 1 -1.875 0 Z" class="st6"/>
			</g>
			<g id="shape1200-134" transform="translate(4.5,0)">
				<title>Circle.127</title>
				<path d="M0 306.99 a0.9375 0.9375 0 1 1 1.875 0 a0.9375 0.9375 0 1 1 -1.875 0 Z" class="st6"/>
			</g>
			<g id="shape1201-136" transform="translate(9,0)">
				<title>Circle.128</title>
				<path d="M0 306.99 a0.9375 0.9375 0 1 1 1.875 0 a0.9375 0.9375 0 1 1 -1.875 0 Z" class="st6"/>
			</g>
		</g>
		<g id="group1202-138" transform="translate(-20.6701,157.138) rotate(-90)">
			<title>Sheet.1202</title>
			<g id="shape1203-139">
				<title>Rectangle.400</title>
				<desc>Worker</desc>
				<rect x="0" y="274.178" width="59.7857" height="33.75" class="st8"/>
				<text x="17.63" y="285.38" class="st5">Worker</text>			</g>
			<g id="shape1204-142" transform="translate(4.98212,-3.37498)">
				<title>Rectangle.399</title>
				<desc>SW Thread</desc>
				<rect x="0" y="292.178" width="49.8214" height="15.75" class="st4"/>
				<text x="7.16" y="302.45" class="st5">SW Thread</text>			</g>
		</g>
		<g id="group1205-145" transform="translate(-56.6701,157.138) rotate(-90)">
			<title>Sheet.1205</title>
			<g id="shape1206-146">
				<title>Rectangle.400</title>
				<desc>Worker</desc>
				<rect x="0" y="274.178" width="59.7857" height="33.75" class="st8"/>
				<text x="17.63" y="285.38" class="st5">Worker</text>			</g>
			<g id="shape1207-149" transform="translate(4.98212,-3.37498)">
				<title>Rectangle.399</title>
				<desc>SW Thread</desc>
				<rect x="0" y="292.178" width="49.8214" height="15.75" class="st4"/>
				<text x="7.16" y="302.45" class="st5">SW Thread</text>			</g>
		</g>
		<g id="group1208-152" transform="translate(67.0799,157.138) rotate(-90)">
			<title>Sheet.1208</title>
			<g id="shape1209-153">
				<title>Rectangle.400</title>
				<desc>Worker</desc>
				<rect x="0" y="274.178" width="59.7857" height="33.75" class="st8"/>
				<text x="17.63" y="285.38" class="st5">Worker</text>			</g>
			<g id="shape1210-156" transform="translate(4.98212,-3.37498)">
				<title>Rectangle.399</title>
				<desc>SW Thread</desc>
				<rect x="0" y="292.178" width="49.8214" height="15.75" class="st4"/>
				<text x="7.16" y="302.45" class="st5">SW Thread</text>			</g>
		</g>
		<g id="group1211-159" transform="translate(31.0799,157.138) rotate(-90)">
			<title>Sheet.1211</title>
			<g id="shape1212-160">
				<title>Rectangle.400</title>
				<desc>Worker</desc>
				<rect x="0" y="274.178" width="59.7857" height="33.75" class="st8"/>
				<text x="17.63" y="285.38" class="st5">Worker</text>			</g>
			<g id="shape1213-163" transform="translate(4.98212,-3.37498)">
				<title>Rectangle.399</title>
				<desc>SW Thread</desc>
				<rect x="0" y="292.178" width="49.8214" height="15.75" class="st4"/>
				<text x="7.16" y="302.45" class="st5">SW Thread</text>			</g>
		</g>
		<g id="shape1214-166" transform="translate(210.795,-225.12)">
			<title>Rectangle.1214</title>
			<desc>Micro-scheduler</desc>
			<rect x="0" y="225.24" width="171" height="82.6875" class="st13"/>
			<text x="52.24" y="238.24" class="st2">Micro-scheduler</text>		</g>
		<g id="group1215-169" transform="translate(-20.6326,74.37) rotate(-90)">
			<title>Sheet.1215</title>
			<g id="shape1216-170">
				<title>Rectangle.400</title>
				<desc>Local Scheduler</desc>
				<rect x="0" y="274.178" width="54" height="33.75" class="st4"/>
				<text x="18.68" y="288.65" class="st5">Local <tspan x="10.87" dy="1.2em" class="st10">Scheduler</tspan></text>			</g>
		</g>
		<g id="group1217-174" transform="translate(-56.6326,74.37) rotate(-90)">
			<title>Sheet.1217</title>
			<g id="shape1218-175">
				<title>Rectangle.400</title>
				<desc>Local Scheduler</desc>
				<rect x="0" y="274.178" width="54" height="33.75" class="st4"/>
				<text x="18.68" y="288.65" class="st5">Local <tspan x="10.87" dy="1.2em" class="st10">Scheduler</tspan></text>			</g>
		</g>
		<g id="group1219-179" transform="translate(67.1174,74.37) rotate(-90)">
			<title>Sheet.1219</title>
			<g id="shape1220-180">
				<title>Rectangle.400</title>
				<desc>Local Scheduler</desc>
				<rect x="0" y="274.178" width="54" height="33.75" class="st4"/>
				<text x="18.68" y="288.65" class="st5">Local <tspan x="10.87" dy="1.2em" class="st10">Scheduler</tspan></text>			</g>
		</g>
		<g id="group1221-184" transform="translate(31.1174,74.37) rotate(-90)">
			<title>Sheet.1221</title>
			<g id="shape1222-185">
				<title>Rectangle.400</title>
				<desc>Local Scheduler</desc>
				<rect x="0" y="274.178" width="54" height="33.75" class="st4"/>
				<text x="18.68" y="288.65" class="st5">Local <tspan x="10.87" dy="1.2em" class="st10">Scheduler</tspan></text>			</g>
		</g>
		<g id="group1223-189" transform="translate(290.857,-260.157)">
			<title>Sheet.1223</title>
			<g id="shape1224-190">
				<title>Circle.126</title>
				<path d="M0 306.99 a0.9375 0.9375 0 1 1 1.875 0 a0.9375 0.9375 0 1 1 -1.875 0 Z" class="st6"/>
			</g>
			<g id="shape1225-192" transform="translate(4.5,0)">
				<title>Circle.127</title>
				<path d="M0 306.99 a0.9375 0.9375 0 1 1 1.875 0 a0.9375 0.9375 0 1 1 -1.875 0 Z" class="st6"/>
			</g>
			<g id="shape1226-194" transform="translate(9,0)">
				<title>Circle.128</title>
				<path d="M0 306.99 a0.9375 0.9375 0 1 1 1.875 0 a0.9375 0.9375 0 1 1 -1.875 0 Z" class="st6"/>
			</g>
		</g>
		<g id="shape1227-196" transform="translate(225.401,-210.575)">
			<title>Dynamic connector.1227</title>
			<path d="M8.98 307.93 L9.02 284.95" class="st11"/>
		</g>
		<g id="shape1228-199" transform="translate(279.401,-233.558)">
			<title>Dynamic connector.1228</title>
			<path d="M-8.98 307.93 L-9.02 330.91" class="st11"/>
		</g>
		<g id="shape1229-202" transform="translate(313.151,-210.575)">
			<title>Dynamic connector.1229</title>
			<path d="M8.98 307.93 L9.02 284.95" class="st11"/>
		</g>
		<g id="shape1230-205" transform="translate(367.151,-233.558)">
			<title>Dynamic connector.1230</title>
			<path d="M-8.98 307.93 L-9.02 330.91" class="st11"/>
		</g>
		<g id="shape1231-208" transform="translate(477.925,63.2863) rotate(85.1058)">
			<title>Multi-Line.1231</title>
			<path d="M0 307.93 L127.03 307.93" class="st14"/>
		</g>
		<g id="shape1232-211" transform="translate(227.877,-29.9268) rotate(47.7012)">
			<title>Multi-Line.1232</title>
			<path d="M0 307.93 L166.55 307.93" class="st14"/>
		</g>
		<g id="shape1233-214" transform="translate(517.57,115.739) rotate(94.8775)">
			<title>Multi-Line.1233</title>
			<path d="M0 307.93 L127.02 307.93" class="st14"/>
		</g>
		<g id="shape1234-217" transform="translate(609.549,384.504) rotate(132.289)">
			<title>Multi-Line.1234</title>
			<path d="M0 307.93 L166.52 307.93" class="st14"/>
		</g>
		<g id="shape1235-220" transform="translate(171.157,-257.464)">
			<title>Dynamic connector.1235</title>
			<desc>Victims</desc>
			<path d="M6.68 298.93 L7.04 298.93 L32.6 298.93" class="st15"/>
			<rect x="7.92249" y="287.659" width="23.7923" height="9.59985" class="st17"/>
			<text x="7.92" y="294.86" class="st18">Victims</text>		</g>
	</g>
</svg>
