<?xml version="1.0" encoding="UTF-8" standalone="no"?>
<!DOCTYPE svg PUBLIC "-//W3C//DTD SVG 1.1//EN" "http://www.w3.org/Graphics/SVG/1.1/DTD/svg11.dtd">
<!-- Generated by Microsoft Visio, SVG Export NumaNode.svg Page-1 -->
<svg xmlns="http://www.w3.org/2000/svg" xmlns:xlink="http://www.w3.org/1999/xlink" xmlns:ev="http://www.w3.org/2001/xml-events"
		width="2.37833in" height="1.56583in" viewBox="0 0 171.24 112.74" xml:space="preserve" color-interpolation-filters="sRGB"
		class="st7">
	<style type="text/css">
	<![CDATA[
		.st1 {fill:#cbd8ef;stroke:#000000;stroke-linecap:round;stroke-linejoin:round;stroke-width:0.24}
		.st2 {fill:#000000;font-family:Calibri;font-size:0.833336em}
		.st3 {fill:#e5b9b5;stroke:#000000;stroke-linecap:round;stroke-linejoin:round;stroke-width:0.24}
		.st4 {fill:#ffffff;stroke:#000000;stroke-linecap:round;stroke-linejoin:round;stroke-width:0.24}
		.st5 {fill:#000000;font-family:Calibri;font-size:0.666664em}
		.st6 {fill:#000000;stroke:#000000;stroke-linecap:round;stroke-linejoin:round;stroke-width:0.24}
		.st7 {fill:none;fill-rule:evenodd;font-size:12px;overflow:visible;stroke-linecap:square;stroke-miterlimit:3}
	]]>
	</style>

	<g>
		<title>Page-1</title>
		<g id="shape517-1" transform="translate(0.12,-0.12)">
			<title>Rectangle.517</title>
			<desc>Group</desc>
			<rect x="0" y="0.24" width="171" height="112.5" class="st1"/>
			<text x="72.71" y="13.24" class="st2">Group</text>		</g>
		<g id="shape518-4" transform="translate(6.87,-7.43248)">
			<title>Rectangle.518</title>
			<desc>NUMA 0</desc>
			<rect x="0" y="28.365" width="69.75" height="84.375" class="st3"/>
			<text x="17.61" y="41.37" class="st2">NUMA 0</text>		</g>
		<g id="group519-7" transform="translate(13.62,-43.995)">
			<title>Sheet.519</title>
			<g id="shape520-8">
				<title>Rectangle.400</title>
				<desc>Core 1</desc>
				<rect x="0" y="100.365" width="54" height="12.375" class="st4"/>
				<text x="16.44" y="108.95" class="st5">Core 1</text>			</g>
		</g>
		<g id="group521-11" transform="translate(13.62,-60.87)">
			<title>Sheet.521</title>
			<g id="shape522-12">
				<title>Rectangle.400</title>
				<desc>Core 0</desc>
				<rect x="0" y="100.365" width="54" height="12.375" class="st4"/>
				<text x="16.44" y="108.95" class="st5">Core 0</text>			</g>
		</g>
		<g id="group523-15" transform="translate(13.62,-13.62)">
			<title>Sheet.523</title>
			<g id="shape524-16">
				<title>Rectangle.400</title>
				<desc>Core N</desc>
				<rect x="0" y="100.365" width="54" height="12.375" class="st4"/>
				<text x="15.89" y="108.95" class="st5">Core N</text>			</g>
		</g>
		<g id="group525-19" transform="translate(152.959,72.3075) rotate(90)">
			<title>Sheet.525</title>
			<g id="shape526-20">
				<title>Circle.126</title>
				<path d="M0 111.8 a0.9375 0.9375 0 1 1 1.875 -1.42109E-14 a0.9375 0.9375 0 1 1 -1.875 0 Z" class="st6"/>
			</g>
			<g id="shape527-22" transform="translate(4.5,0)">
				<title>Circle.127</title>
				<path d="M0 111.8 a0.9375 0.9375 0 1 1 1.875 -1.42109E-14 a0.9375 0.9375 0 1 1 -1.875 0 Z" class="st6"/>
			</g>
			<g id="shape528-24" transform="translate(9,0)">
				<title>Circle.128</title>
				<path d="M0 111.8 a0.9375 0.9375 0 1 1 1.875 -1.42109E-14 a0.9375 0.9375 0 1 1 -1.875 0 Z" class="st6"/>
			</g>
		</g>
		<g id="shape529-26" transform="translate(94.62,-7.43248)">
			<title>Rectangle.529</title>
			<desc>NUMA N</desc>
			<rect x="0" y="28.365" width="69.75" height="84.375" class="st3"/>
			<text x="16.91" y="41.37" class="st2">NUMA N</text>		</g>
		<g id="group530-29" transform="translate(101.37,-43.995)">
			<title>Sheet.530</title>
			<g id="shape531-30">
				<title>Rectangle.400</title>
				<desc>Core 1</desc>
				<rect x="0" y="100.365" width="54" height="12.375" class="st4"/>
				<text x="16.44" y="108.95" class="st5">Core 1</text>			</g>
		</g>
		<g id="group532-33" transform="translate(101.37,-60.87)">
			<title>Sheet.532</title>
			<g id="shape533-34">
				<title>Rectangle.400</title>
				<desc>Core 0</desc>
				<rect x="0" y="100.365" width="54" height="12.375" class="st4"/>
				<text x="16.44" y="108.95" class="st5">Core 0</text>			</g>
		</g>
		<g id="group534-37" transform="translate(101.37,-13.62)">
			<title>Sheet.534</title>
			<g id="shape535-38">
				<title>Rectangle.400</title>
				<desc>Core N</desc>
				<rect x="0" y="100.365" width="54" height="12.375" class="st4"/>
				<text x="15.89" y="108.95" class="st5">Core N</text>			</g>
		</g>
		<g id="group536-41" transform="translate(240.709,72.3075) rotate(90)">
			<title>Sheet.536</title>
			<g id="shape537-42">
				<title>Circle.126</title>
				<path d="M0 111.8 a0.9375 0.9375 0 1 1 1.875 -1.42109E-14 a0.9375 0.9375 0 1 1 -1.875 0 Z" class="st6"/>
			</g>
			<g id="shape538-44" transform="translate(4.5,0)">
				<title>Circle.127</title>
				<path d="M0 111.8 a0.9375 0.9375 0 1 1 1.875 -1.42109E-14 a0.9375 0.9375 0 1 1 -1.875 0 Z" class="st6"/>
			</g>
			<g id="shape539-46" transform="translate(9,0)">
				<title>Circle.128</title>
				<path d="M0 111.8 a0.9375 0.9375 0 1 1 1.875 -1.42109E-14 a0.9375 0.9375 0 1 1 -1.875 0 Z" class="st6"/>
			</g>
		</g>
		<g id="group540-48" transform="translate(80.1825,-49.245)">
			<title>Sheet.540</title>
			<g id="shape541-49">
				<title>Circle.126</title>
				<path d="M0 111.8 a0.9375 0.9375 0 1 1 1.875 -1.42109E-14 a0.9375 0.9375 0 1 1 -1.875 0 Z" class="st6"/>
			</g>
			<g id="shape542-51" transform="translate(4.5,0)">
				<title>Circle.127</title>
				<path d="M0 111.8 a0.9375 0.9375 0 1 1 1.875 -1.42109E-14 a0.9375 0.9375 0 1 1 -1.875 0 Z" class="st6"/>
			</g>
			<g id="shape543-53" transform="translate(9,0)">
				<title>Circle.128</title>
				<path d="M0 111.8 a0.9375 0.9375 0 1 1 1.875 -1.42109E-14 a0.9375 0.9375 0 1 1 -1.875 0 Z" class="st6"/>
			</g>
		</g>
	</g>
</svg>
