<?xml version="1.0" encoding="UTF-8" standalone="no"?>
<!DOCTYPE svg PUBLIC "-//W3C//DTD SVG 1.1//EN" "http://www.w3.org/Graphics/SVG/1.1/DTD/svg11.dtd">
<!-- Generated by Microsoft Visio, SVG Export Parallel.svg Page-1 -->
<svg xmlns="http://www.w3.org/2000/svg" xmlns:xlink="http://www.w3.org/1999/xlink" xmlns:ev="http://www.w3.org/2001/xml-events"
		width="2.53075in" height="1.64147in" viewBox="0 0 182.214 118.186" xml:space="preserve" color-interpolation-filters="sRGB"
		class="st6">
	<style type="text/css">
	<![CDATA[
		.st1 {fill:#002060}
		.st2 {stroke:#ffffff;stroke-linecap:round;stroke-linejoin:round;stroke-width:0.24}
		.st3 {fill:#ffffff;font-family:Times New Roman;font-size:1.33333em;font-style:italic;font-weight:bold}
		.st4 {marker-end:url(#mrkr4-26);stroke:#002060;stroke-linecap:round;stroke-linejoin:round;stroke-width:2}
		.st5 {fill:#002060;fill-opacity:1;stroke:#002060;stroke-opacity:1;stroke-width:0.44247787610619}
		.st6 {fill:none;fill-rule:evenodd;font-size:12px;overflow:visible;stroke-linecap:square;stroke-miterlimit:3}
	]]>
	</style>

	<defs id="Markers">
		<g id="lend4">
			<path d="M 2 1 L 0 0 L 2 -1 L 2 1 " style="stroke:none"/>
		</g>
		<marker id="mrkr4-26" class="st5" refX="-4.52" orient="auto" markerUnits="strokeWidth" overflow="visible">
			<use xlink:href="#lend4" transform="scale(-2.26,-2.26) "/>
		</marker>
	</defs>
	<g>
		<title>Page-1</title>
		<g id="shape203-1" transform="translate(55.1071,-66.4335)">
			<title>Cloud.203</title>
			<desc>A</desc>
			<path d="M3.81 97.05 A6.11626 6.86011 0 0 1 6.75 83.88 A12.4031 13.9115 0 0 1 24.74 72.75 A14.2422 15.9743 0 0 1 40.17
						 70.28 A8.93111 10.0173 0 0 1 53.39 69.46 A10.1682 11.4049 0 0 1 69.55 73.58 A7.27058 8.15453 0 0 1 75.42
						 85.11 A9.00555 10.1004 0 0 1 68.08 101.59 A11.3612 12.7425 0 0 1 51.92 109.82 A13.3959 15.0245 0 0 1 29.89
						 113.12 A16.981 19.0455 0 0 1 10.79 109.82 A6.69934 7.5141 0 0 1 3.81 97.05 Z" class="st1"/>
			<path d="M3.81 97.05 A6.11626 6.86011 0 0 1 6.75 83.88 A12.4031 13.9115 0 0 1 24.74 72.75 A14.2422 15.9743 0 0 1 40.17
						 70.28 A8.93111 10.0173 0 0 1 53.39 69.46 A10.1682 11.4049 0 0 1 69.55 73.58 A7.27058 8.15453 0 0 1 75.42
						 85.11 A9.00555 10.1004 0 0 1 68.08 101.59 A11.3612 12.7425 0 0 1 51.92 109.82 A13.3959 15.0245 0 0 1 29.89
						 113.12 A16.981 19.0455 0 0 1 10.79 109.82 A6.69934 7.5141 0 0 1 3.81 97.05" class="st2"/>
			<path d="M7.85 97.47 A6.09936 6.84115 0 0 1 3.81 97.05" class="st2"/>
			<path d="M28.78 111.06 A6.12591 6.87093 -180 0 0 29.89 113.12" class="st2"/>
			<path d="M52.47 107.35 A4.9451 5.54651 0 0 1 51.92 109.82" class="st2"/>
			<path d="M63.67 94.99 A5.18901 5.82009 0 0 1 68.08 101.59" class="st2"/>
			<path d="M73.22 87.58 A4.73734 5.31348 -180 0 0 75.42 85.11" class="st2"/>
			<path d="M26.94 74.4 A7.30541 8.19359 -180 0 0 24.74 72.75" class="st2"/>
			<text x="33.39" y="97.17" class="st3">A</text>		</g>
		<g id="shape204-11" transform="translate(55.1071,-0.11716)">
			<title>Cloud.204</title>
			<desc>B</desc>
			<path d="M3.81 97.05 A6.11626 6.86011 0 0 1 6.75 83.88 A12.4031 13.9115 0 0 1 24.74 72.75 A14.2422 15.9743 0 0 1 40.17
						 70.28 A8.93111 10.0173 0 0 1 53.39 69.46 A10.1682 11.4049 0 0 1 69.55 73.58 A7.27058 8.15453 0 0 1 75.42
						 85.11 A9.00555 10.1004 0 0 1 68.08 101.59 A11.3612 12.7425 0 0 1 51.92 109.82 A13.3959 15.0245 0 0 1 29.89
						 113.12 A16.981 19.0455 0 0 1 10.79 109.82 A6.69934 7.5141 0 0 1 3.81 97.05 Z" class="st1"/>
			<path d="M3.81 97.05 A6.11626 6.86011 0 0 1 6.75 83.88 A12.4031 13.9115 0 0 1 24.74 72.75 A14.2422 15.9743 0 0 1 40.17
						 70.28 A8.93111 10.0173 0 0 1 53.39 69.46 A10.1682 11.4049 0 0 1 69.55 73.58 A7.27058 8.15453 0 0 1 75.42
						 85.11 A9.00555 10.1004 0 0 1 68.08 101.59 A11.3612 12.7425 0 0 1 51.92 109.82 A13.3959 15.0245 0 0 1 29.89
						 113.12 A16.981 19.0455 0 0 1 10.79 109.82 A6.69934 7.5141 0 0 1 3.81 97.05" class="st2"/>
			<path d="M7.85 97.47 A6.09936 6.84115 0 0 1 3.81 97.05" class="st2"/>
			<path d="M28.78 111.06 A6.12591 6.87093 -180 0 0 29.89 113.12" class="st2"/>
			<path d="M52.47 107.35 A4.9451 5.54651 0 0 1 51.92 109.82" class="st2"/>
			<path d="M63.67 94.99 A5.18901 5.82009 0 0 1 68.08 101.59" class="st2"/>
			<path d="M73.22 87.58 A4.73734 5.31348 -180 0 0 75.42 85.11" class="st2"/>
			<path d="M26.94 74.4 A7.30541 8.19359 -180 0 0 24.74 72.75" class="st2"/>
			<text x="33.39" y="97.17" class="st3">B</text>		</g>
		<g id="shape205-21" transform="translate(10.107,-56.2499)">
			<title>Dynamic connector.205</title>
			<path d="M0 118.19 L38.06 86.37" class="st4"/>
		</g>
		<g id="shape206-27" transform="translate(10.107,-56.2499)">
			<title>Dynamic connector.206</title>
			<path d="M0 118.19 L37.38 142.03" class="st4"/>
		</g>
		<g id="shape207-32" transform="translate(131.654,-88.7204)">
			<title>Dynamic connector.207</title>
			<path d="M0 118.19 L33.4 145" class="st4"/>
		</g>
		<g id="shape208-37" transform="translate(131.654,-22.404)">
			<title>Dynamic connector.208</title>
			<path d="M0 118.19 L33.52 90.14" class="st4"/>
		</g>
	</g>
</svg>
