<?xml version="1.0" encoding="UTF-8" standalone="no"?>
<!DOCTYPE svg PUBLIC "-//W3C//DTD SVG 1.1//EN" "http://www.w3.org/Graphics/SVG/1.1/DTD/svg11.dtd">
<!-- Generated by Microsoft Visio, SVG Export Partition.svg Page-1 -->
<svg xmlns="http://www.w3.org/2000/svg" xmlns:xlink="http://www.w3.org/1999/xlink" xmlns:ev="http://www.w3.org/2001/xml-events"
		width="4.52338in" height="3.95646in" viewBox="0 0 325.684 284.865" xml:space="preserve" color-interpolation-filters="sRGB"
		class="st17">
	<style type="text/css">
	<![CDATA[
		.st1 {fill:#eee7a4;stroke:#000000;stroke-linecap:round;stroke-linejoin:round;stroke-width:0.24}
		.st2 {fill:#000000;font-family:Calibri;font-size:0.833336em}
		.st3 {fill:#cbd8ef;stroke:#000000;stroke-linecap:round;stroke-linejoin:round;stroke-width:0.24}
		.st4 {fill:#000000;stroke:#000000;stroke-linecap:round;stroke-linejoin:round;stroke-width:0.24}
		.st5 {fill:#f2f2f2;stroke:#000000;stroke-linecap:round;stroke-linejoin:round;stroke-width:0.24}
		.st6 {fill:#000000;font-family:Calibri;font-size:0.666664em}
		.st7 {fill:#ffffff;stroke:#000000;stroke-linecap:round;stroke-linejoin:round;stroke-width:0.24}
		.st8 {fill:#f8f4d6;stroke:#000000;stroke-linecap:round;stroke-linejoin:round;stroke-width:0.24}
		.st9 {fill:#ddd6e5;stroke:#000000;stroke-linecap:round;stroke-linejoin:round;stroke-width:0.24}
		.st10 {font-size:1em}
		.st11 {stroke:#000000;stroke-linecap:round;stroke-linejoin:round;stroke-width:0.75}
		.st12 {stroke:#000000;stroke-dasharray:1.68,1.2;stroke-linecap:round;stroke-linejoin:round;stroke-width:0.24}
		.st13 {marker-end:url(#mrkr4-174);stroke:#f59d56;stroke-linecap:round;stroke-linejoin:round;stroke-width:1}
		.st14 {fill:#f59d56;fill-opacity:1;stroke:#f59d56;stroke-opacity:1;stroke-width:0.28409090909091}
		.st15 {fill:#ffffff;stroke:none;stroke-linecap:butt;stroke-width:7.2}
		.st16 {fill:#f59d56;font-family:Calibri;font-size:0.666664em}
		.st17 {fill:none;fill-rule:evenodd;font-size:12px;overflow:visible;stroke-linecap:square;stroke-miterlimit:3}
	]]>
	</style>

	<defs id="Markers">
		<g id="lend4">
			<path d="M 2 1 L 0 0 L 2 -1 L 2 1 " style="stroke:none"/>
		</g>
		<marker id="mrkr4-174" class="st14" refX="-7.04" orient="auto" markerUnits="strokeWidth" overflow="visible">
			<use xlink:href="#lend4" transform="scale(-3.52,-3.52) "/>
		</marker>
	</defs>
	<g>
		<title>Page-1</title>
		<g id="shape1236-1" transform="translate(0.12,-107.557)">
			<title>Rectangle.1236</title>
			<desc>Worker Pool</desc>
			<rect x="0" y="197.115" width="171" height="87.75" class="st1"/>
			<text x="60.03" y="277.87" class="st2">Worker Pool</text>		</g>
		<g id="shape1237-4" transform="translate(94.6387,-0.12)">
			<title>Rectangle.1237</title>
			<desc>Group</desc>
			<rect x="0" y="194.865" width="165.637" height="90" class="st3"/>
			<text x="70.03" y="207.87" class="st2">Group</text>		</g>
		<g id="group1238-7" transform="translate(143.201,-35.7194)">
			<title>Sheet.1238</title>
			<g id="shape1239-8">
				<title>Circle.126</title>
				<path d="M0 283.93 a0.9375 0.9375 0 1 1 1.875 -5.68434E-14 a0.9375 0.9375 0 1 1 -1.875 0 Z" class="st4"/>
			</g>
			<g id="shape1240-10" transform="translate(4.5,0)">
				<title>Circle.127</title>
				<path d="M0 283.93 a0.9375 0.9375 0 1 1 1.875 -5.68434E-14 a0.9375 0.9375 0 1 1 -1.875 0 Z" class="st4"/>
			</g>
			<g id="shape1241-12" transform="translate(9,0)">
				<title>Circle.128</title>
				<path d="M0 283.93 a0.9375 0.9375 0 1 1 1.875 -5.68434E-14 a0.9375 0.9375 0 1 1 -1.875 0 Z" class="st4"/>
			</g>
		</g>
		<g id="shape1242-14" transform="translate(101.389,-5.69385)">
			<title>Rectangle.1242</title>
			<desc>Core 0</desc>
			<rect x="0" y="220.689" width="40.5" height="64.1761" class="st5"/>
			<text x="9.69" y="231.89" class="st6">Core 0</text>		</g>
		<g id="shape1243-17" transform="translate(155.389,-5.69385)">
			<title>Rectangle.1243</title>
			<desc>Core N-1</desc>
			<rect x="0" y="220.689" width="40.5" height="64.1761" class="st5"/>
			<text x="5.88" y="231.89" class="st6">Core N-1</text>		</g>
		<g id="group1244-20" transform="translate(158.764,-9.11998)">
			<title>Sheet.1244</title>
			<g id="shape1245-21" transform="translate(-269.115,284.865) rotate(-90)">
				<title>Rectangle.342</title>
				<desc>Processor</desc>
				<rect x="0" y="269.115" width="45" height="15.75" class="st7"/>
				<text x="6.62" y="279.39" class="st6">Processor</text>			</g>
			<g id="shape1246-24" transform="translate(-251.115,284.865) rotate(-90)">
				<title>Rectangle.343</title>
				<desc>Processor</desc>
				<rect x="0" y="269.115" width="45" height="15.75" class="st7"/>
				<text x="6.62" y="279.39" class="st6">Processor</text>			</g>
		</g>
		<g id="group1247-27" transform="translate(104.764,-9.11998)">
			<title>Sheet.1247</title>
			<g id="shape1248-28" transform="translate(-269.115,284.865) rotate(-90)">
				<title>Rectangle.342</title>
				<desc>Processor</desc>
				<rect x="0" y="269.115" width="45" height="15.75" class="st7"/>
				<text x="6.62" y="279.39" class="st6">Processor</text>			</g>
			<g id="shape1249-31" transform="translate(-251.115,284.865) rotate(-90)">
				<title>Rectangle.343</title>
				<desc>Processor</desc>
				<rect x="0" y="269.115" width="45" height="15.75" class="st7"/>
				<text x="6.62" y="279.39" class="st6">Processor</text>			</g>
		</g>
		<g id="group1250-34" transform="translate(80.1825,-160.594)">
			<title>Sheet.1250</title>
			<g id="shape1251-35">
				<title>Circle.126</title>
				<path d="M0 283.93 a0.9375 0.9375 0 1 1 1.875 0 a0.9375 0.9375 0 1 1 -1.875 0 Z" class="st4"/>
			</g>
			<g id="shape1252-37" transform="translate(4.5,0)">
				<title>Circle.127</title>
				<path d="M0 283.93 a0.9375 0.9375 0 1 1 1.875 0 a0.9375 0.9375 0 1 1 -1.875 0 Z" class="st4"/>
			</g>
			<g id="shape1253-39" transform="translate(9,0)">
				<title>Circle.128</title>
				<path d="M0 283.93 a0.9375 0.9375 0 1 1 1.875 0 a0.9375 0.9375 0 1 1 -1.875 0 Z" class="st4"/>
			</g>
		</g>
		<g id="group1254-41" transform="translate(-208.245,157.138) rotate(-90)">
			<title>Sheet.1254</title>
			<g id="shape1255-42">
				<title>Rectangle.400</title>
				<desc>Worker</desc>
				<rect x="0" y="251.115" width="59.7857" height="33.75" class="st8"/>
				<text x="17.63" y="262.32" class="st6">Worker</text>			</g>
			<g id="shape1256-45" transform="translate(4.98212,-3.37498)">
				<title>Rectangle.399</title>
				<desc>SW Thread</desc>
				<rect x="0" y="269.115" width="49.8214" height="15.75" class="st7"/>
				<text x="7.16" y="279.39" class="st6">SW Thread</text>			</g>
		</g>
		<g id="group1257-48" transform="translate(-244.245,157.138) rotate(-90)">
			<title>Sheet.1257</title>
			<g id="shape1258-49">
				<title>Rectangle.400</title>
				<desc>Worker</desc>
				<rect x="0" y="251.115" width="59.7857" height="33.75" class="st8"/>
				<text x="17.63" y="262.32" class="st6">Worker</text>			</g>
			<g id="shape1259-52" transform="translate(4.98212,-3.37498)">
				<title>Rectangle.399</title>
				<desc>SW Thread</desc>
				<rect x="0" y="269.115" width="49.8214" height="15.75" class="st7"/>
				<text x="7.16" y="279.39" class="st6">SW Thread</text>			</g>
		</g>
		<g id="group1260-55" transform="translate(-120.495,157.138) rotate(-90)">
			<title>Sheet.1260</title>
			<g id="shape1261-56">
				<title>Rectangle.400</title>
				<desc>Worker</desc>
				<rect x="0" y="251.115" width="59.7857" height="33.75" class="st8"/>
				<text x="17.63" y="262.32" class="st6">Worker</text>			</g>
			<g id="shape1262-59" transform="translate(4.98212,-3.37498)">
				<title>Rectangle.399</title>
				<desc>SW Thread</desc>
				<rect x="0" y="269.115" width="49.8214" height="15.75" class="st7"/>
				<text x="7.16" y="279.39" class="st6">SW Thread</text>			</g>
		</g>
		<g id="group1263-62" transform="translate(-156.495,157.138) rotate(-90)">
			<title>Sheet.1263</title>
			<g id="shape1264-63">
				<title>Rectangle.400</title>
				<desc>Worker</desc>
				<rect x="0" y="251.115" width="59.7857" height="33.75" class="st8"/>
				<text x="17.63" y="262.32" class="st6">Worker</text>			</g>
			<g id="shape1265-66" transform="translate(4.98212,-3.37498)">
				<title>Rectangle.399</title>
				<desc>SW Thread</desc>
				<rect x="0" y="269.115" width="49.8214" height="15.75" class="st7"/>
				<text x="7.16" y="279.39" class="st6">SW Thread</text>			</g>
		</g>
		<g id="shape1266-69" transform="translate(0.157483,-202.057)">
			<title>Rectangle.1266</title>
			<desc>Micro-scheduler</desc>
			<rect x="0" y="202.177" width="171" height="82.6875" class="st9"/>
			<text x="52.24" y="215.18" class="st2">Micro-scheduler</text>		</g>
		<g id="group1267-72" transform="translate(-208.208,74.37) rotate(-90)">
			<title>Sheet.1267</title>
			<g id="shape1268-73">
				<title>Rectangle.400</title>
				<desc>Local Scheduler</desc>
				<rect x="0" y="251.115" width="54" height="33.75" class="st7"/>
				<text x="18.68" y="265.59" class="st6">Local <tspan x="10.87" dy="1.2em" class="st10">Scheduler</tspan></text>			</g>
		</g>
		<g id="group1269-77" transform="translate(-244.208,74.37) rotate(-90)">
			<title>Sheet.1269</title>
			<g id="shape1270-78">
				<title>Rectangle.400</title>
				<desc>Local Scheduler</desc>
				<rect x="0" y="251.115" width="54" height="33.75" class="st7"/>
				<text x="18.68" y="265.59" class="st6">Local <tspan x="10.87" dy="1.2em" class="st10">Scheduler</tspan></text>			</g>
		</g>
		<g id="group1271-82" transform="translate(-120.458,74.37) rotate(-90)">
			<title>Sheet.1271</title>
			<g id="shape1272-83">
				<title>Rectangle.400</title>
				<desc>Local Scheduler</desc>
				<rect x="0" y="251.115" width="54" height="33.75" class="st7"/>
				<text x="18.68" y="265.59" class="st6">Local <tspan x="10.87" dy="1.2em" class="st10">Scheduler</tspan></text>			</g>
		</g>
		<g id="group1273-87" transform="translate(-156.458,74.37) rotate(-90)">
			<title>Sheet.1273</title>
			<g id="shape1274-88">
				<title>Rectangle.400</title>
				<desc>Local Scheduler</desc>
				<rect x="0" y="251.115" width="54" height="33.75" class="st7"/>
				<text x="18.68" y="265.59" class="st6">Local <tspan x="10.87" dy="1.2em" class="st10">Scheduler</tspan></text>			</g>
		</g>
		<g id="group1275-92" transform="translate(80.22,-237.094)">
			<title>Sheet.1275</title>
			<g id="shape1276-93">
				<title>Circle.126</title>
				<path d="M0 283.93 a0.9375 0.9375 0 1 1 1.875 0 a0.9375 0.9375 0 1 1 -1.875 0 Z" class="st4"/>
			</g>
			<g id="shape1277-95" transform="translate(4.5,0)">
				<title>Circle.127</title>
				<path d="M0 283.93 a0.9375 0.9375 0 1 1 1.875 0 a0.9375 0.9375 0 1 1 -1.875 0 Z" class="st4"/>
			</g>
			<g id="shape1278-97" transform="translate(9,0)">
				<title>Circle.128</title>
				<path d="M0 283.93 a0.9375 0.9375 0 1 1 1.875 0 a0.9375 0.9375 0 1 1 -1.875 0 Z" class="st4"/>
			</g>
		</g>
		<g id="shape1279-99" transform="translate(14.7637,-187.513)">
			<title>Dynamic connector.1279</title>
			<path d="M8.98 284.87 L9.02 261.88" class="st11"/>
		</g>
		<g id="shape1280-102" transform="translate(68.7637,-210.495)">
			<title>Dynamic connector.1280</title>
			<path d="M-8.98 284.87 L-9.02 307.85" class="st11"/>
		</g>
		<g id="shape1281-105" transform="translate(102.514,-187.513)">
			<title>Dynamic connector.1281</title>
			<path d="M8.98 284.87 L9.02 261.88" class="st11"/>
		</g>
		<g id="shape1282-108" transform="translate(156.514,-210.495)">
			<title>Dynamic connector.1282</title>
			<path d="M-8.98 284.87 L-9.02 307.85" class="st11"/>
		</g>
		<g id="shape1283-111" transform="translate(202.139,-23.5317) rotate(45.1678)">
			<title>Multi-Line.1283</title>
			<path d="M0 284.87 L143.64 284.87" class="st12"/>
		</g>
		<g id="shape1284-114" transform="translate(242.276,-107.557)">
			<title>Rectangle.1284</title>
			<desc>Worker Pool</desc>
			<rect x="0" y="197.115" width="83.25" height="87.75" class="st1"/>
			<text x="16.16" y="277.87" class="st2">Worker Pool</text>		</g>
		<g id="group1289-117" transform="translate(33.9112,157.138) rotate(-90)">
			<title>Sheet.1289</title>
			<g id="shape1290-118">
				<title>Rectangle.400</title>
				<desc>Worker</desc>
				<rect x="0" y="251.115" width="59.7857" height="33.75" class="st8"/>
				<text x="17.63" y="262.32" class="st6">Worker</text>			</g>
			<g id="shape1291-121" transform="translate(4.98212,-3.37498)">
				<title>Rectangle.399</title>
				<desc>SW Thread</desc>
				<rect x="0" y="269.115" width="49.8214" height="15.75" class="st7"/>
				<text x="7.16" y="279.39" class="st6">SW Thread</text>			</g>
		</g>
		<g id="group1292-124" transform="translate(-2.08884,157.138) rotate(-90)">
			<title>Sheet.1292</title>
			<g id="shape1293-125">
				<title>Rectangle.400</title>
				<desc>Worker</desc>
				<rect x="0" y="251.115" width="59.7857" height="33.75" class="st8"/>
				<text x="17.63" y="262.32" class="st6">Worker</text>			</g>
			<g id="shape1294-128" transform="translate(4.98212,-3.37498)">
				<title>Rectangle.399</title>
				<desc>SW Thread</desc>
				<rect x="0" y="269.115" width="49.8214" height="15.75" class="st7"/>
				<text x="7.16" y="279.39" class="st6">SW Thread</text>			</g>
		</g>
		<g id="shape1301-131" transform="translate(242.314,-202.057)">
			<title>Rectangle.1301</title>
			<desc>Micro-scheduler</desc>
			<rect x="0" y="202.177" width="83.25" height="82.6875" class="st9"/>
			<text x="8.36" y="215.18" class="st2">Micro-scheduler</text>		</g>
		<g id="group1302-134" transform="translate(33.9486,74.37) rotate(-90)">
			<title>Sheet.1302</title>
			<g id="shape1303-135">
				<title>Rectangle.400</title>
				<desc>Local Scheduler</desc>
				<rect x="0" y="251.115" width="54" height="33.75" class="st7"/>
				<text x="18.68" y="265.59" class="st6">Local <tspan x="10.87" dy="1.2em" class="st10">Scheduler</tspan></text>			</g>
		</g>
		<g id="group1304-139" transform="translate(-2.05135,74.37) rotate(-90)">
			<title>Sheet.1304</title>
			<g id="shape1305-140">
				<title>Rectangle.400</title>
				<desc>Local Scheduler</desc>
				<rect x="0" y="251.115" width="54" height="33.75" class="st7"/>
				<text x="18.68" y="265.59" class="st6">Local <tspan x="10.87" dy="1.2em" class="st10">Scheduler</tspan></text>			</g>
		</g>
		<g id="shape1314-144" transform="translate(256.92,-187.513)">
			<title>Dynamic connector.1314</title>
			<path d="M8.98 284.87 L9.02 261.88" class="st11"/>
		</g>
		<g id="shape1315-147" transform="translate(310.92,-210.495)">
			<title>Dynamic connector.1315</title>
			<path d="M-8.98 284.87 L-9.02 307.85" class="st11"/>
		</g>
		<g id="shape1318-150" transform="translate(520.112,152.447) rotate(102.754)">
			<title>Multi-Line.1318</title>
			<path d="M0 284.87 L128.58 284.87" class="st12"/>
		</g>
		<g id="shape1320-153" transform="translate(213.889,-5.71943)">
			<title>Rectangle.1320</title>
			<desc>Core N</desc>
			<rect x="0" y="220.689" width="40.5" height="64.1761" class="st5"/>
			<text x="9.14" y="231.89" class="st6">Core N</text>		</g>
		<g id="group1321-156" transform="translate(217.264,-9.14557)">
			<title>Sheet.1321</title>
			<g id="shape1322-157" transform="translate(-269.115,284.865) rotate(-90)">
				<title>Rectangle.342</title>
				<desc>Processor</desc>
				<rect x="0" y="269.115" width="45" height="15.75" class="st7"/>
				<text x="6.62" y="279.39" class="st6">Processor</text>			</g>
			<g id="shape1323-160" transform="translate(-251.115,284.865) rotate(-90)">
				<title>Rectangle.343</title>
				<desc>Processor</desc>
				<rect x="0" y="269.115" width="45" height="15.75" class="st7"/>
				<text x="6.62" y="279.39" class="st6">Processor</text>			</g>
		</g>
		<g id="shape1324-163" transform="translate(450.589,34.3739) rotate(78.8301)">
			<title>Multi-Line.1324</title>
			<path d="M0 284.87 L127.86 284.87" class="st12"/>
		</g>
		<g id="shape1325-166" transform="translate(559.057,340.437) rotate(124.936)">
			<title>Multi-Line.1325</title>
			<path d="M0 284.87 L124.22 284.87" class="st12"/>
		</g>
		<g id="shape1365-169" transform="translate(171.157,-234.401)">
			<title>Dynamic connector.1365</title>
			<desc>Victim</desc>
			<path d="M0 275.87 L64.12 275.87" class="st13"/>
			<rect x="25.2463" y="264.597" width="20.6634" height="9.59985" class="st15"/>
			<text x="25.25" y="271.8" class="st16">Victim</text>		</g>
	</g>
</svg>
