<?xml version="1.0" encoding="UTF-8" standalone="no"?>
<!DOCTYPE svg PUBLIC "-//W3C//DTD SVG 1.1//EN" "http://www.w3.org/Graphics/SVG/1.1/DTD/svg11.dtd">
<!-- Generated by Microsoft Visio, SVG Export PreemptivePriorities.svg Page-1 -->
<svg xmlns="http://www.w3.org/2000/svg" xmlns:xlink="http://www.w3.org/1999/xlink" xmlns:ev="http://www.w3.org/2001/xml-events"
		width="5.20965in" height="3.95646in" viewBox="0 0 375.095 284.865" xml:space="preserve" color-interpolation-filters="sRGB"
		class="st15">
	<style type="text/css">
	<![CDATA[
		.st1 {fill:#eee7a4;stroke:#000000;stroke-linecap:round;stroke-linejoin:round;stroke-width:0.24}
		.st2 {fill:#000000;font-family:Calibri;font-size:0.833336em}
		.st3 {fill:#cbd8ef;stroke:#000000;stroke-linecap:round;stroke-linejoin:round;stroke-width:0.24}
		.st4 {fill:#000000;stroke:#000000;stroke-linecap:round;stroke-linejoin:round;stroke-width:0.24}
		.st5 {fill:#f2f2f2;stroke:#000000;stroke-linecap:round;stroke-linejoin:round;stroke-width:0.24}
		.st6 {fill:#000000;font-family:Calibri;font-size:0.666664em}
		.st7 {fill:#ffffff;stroke:#000000;stroke-linecap:round;stroke-linejoin:round;stroke-width:0.24}
		.st8 {fill:#f8f4d6;stroke:#000000;stroke-linecap:round;stroke-linejoin:round;stroke-width:0.24}
		.st9 {fill:#ddd6e5;stroke:#000000;stroke-linecap:round;stroke-linejoin:round;stroke-width:0.24}
		.st10 {font-size:1em}
		.st11 {stroke:#000000;stroke-linecap:round;stroke-linejoin:round;stroke-width:0.75}
		.st12 {stroke:#000000;stroke-dasharray:1.68,1.2;stroke-linecap:round;stroke-linejoin:round;stroke-width:0.24}
		.st13 {fill:#e3d86f;stroke:#000000;stroke-linecap:round;stroke-linejoin:round;stroke-width:0.24}
		.st14 {fill:#ccc2d9;stroke:#000000;stroke-linecap:round;stroke-linejoin:round;stroke-width:0.24}
		.st15 {fill:none;fill-rule:evenodd;font-size:12px;overflow:visible;stroke-linecap:square;stroke-miterlimit:3}
	]]>
	</style>

	<g>
		<title>Page-1</title>
		<g id="shape980-1" transform="translate(0.12,-107.557)">
			<title>Rectangle.980</title>
			<desc>Worker Pool w/ Priority 0</desc>
			<rect x="0" y="197.115" width="171" height="87.75" class="st1"/>
			<text x="33.66" y="277.87" class="st2">Worker Pool w/ Priority 0</text>		</g>
		<g id="shape981-4" transform="translate(119.932,-0.12)">
			<title>Rectangle.981</title>
			<desc>Group</desc>
			<rect x="0" y="194.865" width="108" height="90" class="st3"/>
			<text x="41.21" y="207.87" class="st2">Group</text>		</g>
		<g id="group982-7" transform="translate(168.495,-35.7194)">
			<title>Sheet.982</title>
			<g id="shape983-8">
				<title>Circle.126</title>
				<path d="M0 283.93 a0.9375 0.9375 0 1 1 1.875 -5.68434E-14 a0.9375 0.9375 0 1 1 -1.875 0 Z" class="st4"/>
			</g>
			<g id="shape984-10" transform="translate(4.5,0)">
				<title>Circle.127</title>
				<path d="M0 283.93 a0.9375 0.9375 0 1 1 1.875 -5.68434E-14 a0.9375 0.9375 0 1 1 -1.875 0 Z" class="st4"/>
			</g>
			<g id="shape985-12" transform="translate(9,0)">
				<title>Circle.128</title>
				<path d="M0 283.93 a0.9375 0.9375 0 1 1 1.875 -5.68434E-14 a0.9375 0.9375 0 1 1 -1.875 0 Z" class="st4"/>
			</g>
		</g>
		<g id="shape986-14" transform="translate(126.682,-5.69385)">
			<title>Rectangle.986</title>
			<desc>Core</desc>
			<rect x="0" y="220.689" width="40.5" height="64.1761" class="st5"/>
			<text x="12.62" y="231.89" class="st6">Core</text>		</g>
		<g id="shape987-17" transform="translate(180.682,-5.69385)">
			<title>Rectangle.987</title>
			<desc>Core</desc>
			<rect x="0" y="220.689" width="40.5" height="64.1761" class="st5"/>
			<text x="12.62" y="231.89" class="st6">Core</text>		</g>
		<g id="group988-20" transform="translate(184.057,-9.11998)">
			<title>Sheet.988</title>
			<g id="shape989-21" transform="translate(-269.115,284.865) rotate(-90)">
				<title>Rectangle.342</title>
				<desc>Proc. N-1</desc>
				<rect x="0" y="269.115" width="45" height="15.75" class="st7"/>
				<text x="7.49" y="279.39" class="st6">Proc. N-1</text>			</g>
			<g id="shape990-24" transform="translate(-251.115,284.865) rotate(-90)">
				<title>Rectangle.343</title>
				<desc>Proc. N</desc>
				<rect x="0" y="269.115" width="45" height="15.75" class="st7"/>
				<text x="10.74" y="279.39" class="st6">Proc. N</text>			</g>
		</g>
		<g id="group991-27" transform="translate(130.057,-9.11998)">
			<title>Sheet.991</title>
			<g id="shape992-28" transform="translate(-269.115,284.865) rotate(-90)">
				<title>Rectangle.342</title>
				<desc>Proc. 0</desc>
				<rect x="0" y="269.115" width="45" height="15.75" class="st7"/>
				<text x="11.3" y="279.39" class="st6">Proc. 0</text>			</g>
			<g id="shape993-31" transform="translate(-251.115,284.865) rotate(-90)">
				<title>Rectangle.343</title>
				<desc>Proc 1</desc>
				<rect x="0" y="269.115" width="45" height="15.75" class="st7"/>
				<text x="12.31" y="279.39" class="st6">Proc 1</text>			</g>
		</g>
		<g id="group994-34" transform="translate(80.1825,-160.594)">
			<title>Sheet.994</title>
			<g id="shape995-35">
				<title>Circle.126</title>
				<path d="M0 283.93 a0.9375 0.9375 0 1 1 1.875 0 a0.9375 0.9375 0 1 1 -1.875 0 Z" class="st4"/>
			</g>
			<g id="shape996-37" transform="translate(4.5,0)">
				<title>Circle.127</title>
				<path d="M0 283.93 a0.9375 0.9375 0 1 1 1.875 0 a0.9375 0.9375 0 1 1 -1.875 0 Z" class="st4"/>
			</g>
			<g id="shape997-39" transform="translate(9,0)">
				<title>Circle.128</title>
				<path d="M0 283.93 a0.9375 0.9375 0 1 1 1.875 0 a0.9375 0.9375 0 1 1 -1.875 0 Z" class="st4"/>
			</g>
		</g>
		<g id="group998-41" transform="translate(-208.245,157.138) rotate(-90)">
			<title>Sheet.998</title>
			<g id="shape999-42">
				<title>Rectangle.400</title>
				<desc>Worker</desc>
				<rect x="0" y="251.115" width="59.7857" height="33.75" class="st8"/>
				<text x="17.63" y="262.32" class="st6">Worker</text>			</g>
			<g id="shape1000-45" transform="translate(4.98212,-3.37498)">
				<title>Rectangle.399</title>
				<desc>SW Thread</desc>
				<rect x="0" y="269.115" width="49.8214" height="15.75" class="st7"/>
				<text x="7.16" y="279.39" class="st6">SW Thread</text>			</g>
		</g>
		<g id="group1001-48" transform="translate(-244.245,157.138) rotate(-90)">
			<title>Sheet.1001</title>
			<g id="shape1002-49">
				<title>Rectangle.400</title>
				<desc>Worker</desc>
				<rect x="0" y="251.115" width="59.7857" height="33.75" class="st8"/>
				<text x="17.63" y="262.32" class="st6">Worker</text>			</g>
			<g id="shape1003-52" transform="translate(4.98212,-3.37498)">
				<title>Rectangle.399</title>
				<desc>SW Thread</desc>
				<rect x="0" y="269.115" width="49.8214" height="15.75" class="st7"/>
				<text x="7.16" y="279.39" class="st6">SW Thread</text>			</g>
		</g>
		<g id="group1004-55" transform="translate(-120.495,157.138) rotate(-90)">
			<title>Sheet.1004</title>
			<g id="shape1005-56">
				<title>Rectangle.400</title>
				<desc>Worker</desc>
				<rect x="0" y="251.115" width="59.7857" height="33.75" class="st8"/>
				<text x="17.63" y="262.32" class="st6">Worker</text>			</g>
			<g id="shape1006-59" transform="translate(4.98212,-3.37498)">
				<title>Rectangle.399</title>
				<desc>SW Thread</desc>
				<rect x="0" y="269.115" width="49.8214" height="15.75" class="st7"/>
				<text x="7.16" y="279.39" class="st6">SW Thread</text>			</g>
		</g>
		<g id="group1007-62" transform="translate(-156.495,157.138) rotate(-90)">
			<title>Sheet.1007</title>
			<g id="shape1008-63">
				<title>Rectangle.400</title>
				<desc>Worker</desc>
				<rect x="0" y="251.115" width="59.7857" height="33.75" class="st8"/>
				<text x="17.63" y="262.32" class="st6">Worker</text>			</g>
			<g id="shape1009-66" transform="translate(4.98212,-3.37498)">
				<title>Rectangle.399</title>
				<desc>SW Thread</desc>
				<rect x="0" y="269.115" width="49.8214" height="15.75" class="st7"/>
				<text x="7.16" y="279.39" class="st6">SW Thread</text>			</g>
		</g>
		<g id="shape1032-69" transform="translate(0.157483,-202.057)">
			<title>Rectangle.1032</title>
			<desc>Micro-scheduler</desc>
			<rect x="0" y="202.177" width="171" height="82.6875" class="st9"/>
			<text x="52.24" y="215.18" class="st2">Micro-scheduler</text>		</g>
		<g id="group1033-72" transform="translate(-208.208,74.37) rotate(-90)">
			<title>Sheet.1033</title>
			<g id="shape1034-73">
				<title>Rectangle.400</title>
				<desc>Local Scheduler</desc>
				<rect x="0" y="251.115" width="54" height="33.75" class="st7"/>
				<text x="18.68" y="265.59" class="st6">Local <tspan x="10.87" dy="1.2em" class="st10">Scheduler</tspan></text>			</g>
		</g>
		<g id="group1035-77" transform="translate(-244.208,74.37) rotate(-90)">
			<title>Sheet.1035</title>
			<g id="shape1036-78">
				<title>Rectangle.400</title>
				<desc>Local Scheduler</desc>
				<rect x="0" y="251.115" width="54" height="33.75" class="st7"/>
				<text x="18.68" y="265.59" class="st6">Local <tspan x="10.87" dy="1.2em" class="st10">Scheduler</tspan></text>			</g>
		</g>
		<g id="group1037-82" transform="translate(-120.458,74.37) rotate(-90)">
			<title>Sheet.1037</title>
			<g id="shape1038-83">
				<title>Rectangle.400</title>
				<desc>Local Scheduler</desc>
				<rect x="0" y="251.115" width="54" height="33.75" class="st7"/>
				<text x="18.68" y="265.59" class="st6">Local <tspan x="10.87" dy="1.2em" class="st10">Scheduler</tspan></text>			</g>
		</g>
		<g id="group1039-87" transform="translate(-156.458,74.37) rotate(-90)">
			<title>Sheet.1039</title>
			<g id="shape1040-88">
				<title>Rectangle.400</title>
				<desc>Local Scheduler</desc>
				<rect x="0" y="251.115" width="54" height="33.75" class="st7"/>
				<text x="18.68" y="265.59" class="st6">Local <tspan x="10.87" dy="1.2em" class="st10">Scheduler</tspan></text>			</g>
		</g>
		<g id="group1041-92" transform="translate(80.22,-237.094)">
			<title>Sheet.1041</title>
			<g id="shape1042-93">
				<title>Circle.126</title>
				<path d="M0 283.93 a0.9375 0.9375 0 1 1 1.875 0 a0.9375 0.9375 0 1 1 -1.875 0 Z" class="st4"/>
			</g>
			<g id="shape1043-95" transform="translate(4.5,0)">
				<title>Circle.127</title>
				<path d="M0 283.93 a0.9375 0.9375 0 1 1 1.875 0 a0.9375 0.9375 0 1 1 -1.875 0 Z" class="st4"/>
			</g>
			<g id="shape1044-97" transform="translate(9,0)">
				<title>Circle.128</title>
				<path d="M0 283.93 a0.9375 0.9375 0 1 1 1.875 0 a0.9375 0.9375 0 1 1 -1.875 0 Z" class="st4"/>
			</g>
		</g>
		<g id="shape1047-99" transform="translate(14.7637,-187.513)">
			<title>Dynamic connector.1047</title>
			<path d="M8.98 284.87 L9.02 261.88" class="st11"/>
		</g>
		<g id="shape1048-102" transform="translate(68.7637,-210.495)">
			<title>Dynamic connector.1048</title>
			<path d="M-8.98 284.87 L-9.02 307.85" class="st11"/>
		</g>
		<g id="shape1049-105" transform="translate(102.514,-187.513)">
			<title>Dynamic connector.1049</title>
			<path d="M8.98 284.87 L9.02 261.88" class="st11"/>
		</g>
		<g id="shape1050-108" transform="translate(156.514,-210.495)">
			<title>Dynamic connector.1050</title>
			<path d="M-8.98 284.87 L-9.02 307.85" class="st11"/>
		</g>
		<g id="shape1064-111" transform="translate(190.299,-34.7772) rotate(41.883)">
			<title>Multi-Line.1064</title>
			<path d="M0 284.87 L160.93 284.87" class="st12"/>
		</g>
		<g id="shape1066-114" transform="translate(178.432,-107.557)">
			<title>Rectangle.1066</title>
			<desc>Worker Pool w/ Priority 1</desc>
			<rect x="0" y="197.115" width="171" height="87.75" class="st13"/>
			<text x="33.66" y="277.87" class="st2">Worker Pool w/ Priority 1</text>		</g>
		<g id="group1067-117" transform="translate(258.495,-160.594)">
			<title>Sheet.1067</title>
			<g id="shape1068-118">
				<title>Circle.126</title>
				<path d="M0 283.93 a0.9375 0.9375 0 1 1 1.875 0 a0.9375 0.9375 0 1 1 -1.875 0 Z" class="st4"/>
			</g>
			<g id="shape1069-120" transform="translate(4.5,0)">
				<title>Circle.127</title>
				<path d="M0 283.93 a0.9375 0.9375 0 1 1 1.875 0 a0.9375 0.9375 0 1 1 -1.875 0 Z" class="st4"/>
			</g>
			<g id="shape1070-122" transform="translate(9,0)">
				<title>Circle.128</title>
				<path d="M0 283.93 a0.9375 0.9375 0 1 1 1.875 0 a0.9375 0.9375 0 1 1 -1.875 0 Z" class="st4"/>
			</g>
		</g>
		<g id="group1071-124" transform="translate(-29.9325,157.138) rotate(-90)">
			<title>Sheet.1071</title>
			<g id="shape1072-125">
				<title>Rectangle.400</title>
				<desc>Worker</desc>
				<rect x="0" y="251.115" width="59.7857" height="33.75" class="st8"/>
				<text x="17.63" y="262.32" class="st6">Worker</text>			</g>
			<g id="shape1073-128" transform="translate(4.98212,-3.37498)">
				<title>Rectangle.399</title>
				<desc>SW Thread</desc>
				<rect x="0" y="269.115" width="49.8214" height="15.75" class="st7"/>
				<text x="7.16" y="279.39" class="st6">SW Thread</text>			</g>
		</g>
		<g id="group1074-131" transform="translate(-65.9325,157.138) rotate(-90)">
			<title>Sheet.1074</title>
			<g id="shape1075-132">
				<title>Rectangle.400</title>
				<desc>Worker</desc>
				<rect x="0" y="251.115" width="59.7857" height="33.75" class="st8"/>
				<text x="17.63" y="262.32" class="st6">Worker</text>			</g>
			<g id="shape1076-135" transform="translate(4.98212,-3.37498)">
				<title>Rectangle.399</title>
				<desc>SW Thread</desc>
				<rect x="0" y="269.115" width="49.8214" height="15.75" class="st7"/>
				<text x="7.16" y="279.39" class="st6">SW Thread</text>			</g>
		</g>
		<g id="group1077-138" transform="translate(57.8175,157.138) rotate(-90)">
			<title>Sheet.1077</title>
			<g id="shape1078-139">
				<title>Rectangle.400</title>
				<desc>Worker</desc>
				<rect x="0" y="251.115" width="59.7857" height="33.75" class="st8"/>
				<text x="17.63" y="262.32" class="st6">Worker</text>			</g>
			<g id="shape1079-142" transform="translate(4.98212,-3.37498)">
				<title>Rectangle.399</title>
				<desc>SW Thread</desc>
				<rect x="0" y="269.115" width="49.8214" height="15.75" class="st7"/>
				<text x="7.16" y="279.39" class="st6">SW Thread</text>			</g>
		</g>
		<g id="group1080-145" transform="translate(21.8175,157.138) rotate(-90)">
			<title>Sheet.1080</title>
			<g id="shape1081-146">
				<title>Rectangle.400</title>
				<desc>Worker</desc>
				<rect x="0" y="251.115" width="59.7857" height="33.75" class="st8"/>
				<text x="17.63" y="262.32" class="st6">Worker</text>			</g>
			<g id="shape1082-149" transform="translate(4.98212,-3.37498)">
				<title>Rectangle.399</title>
				<desc>SW Thread</desc>
				<rect x="0" y="269.115" width="49.8214" height="15.75" class="st7"/>
				<text x="7.16" y="279.39" class="st6">SW Thread</text>			</g>
		</g>
		<g id="shape1083-152" transform="translate(178.47,-202.057)">
			<title>Rectangle.1083</title>
			<desc>Micro-scheduler</desc>
			<rect x="0" y="202.177" width="171" height="82.6875" class="st14"/>
			<text x="52.24" y="215.18" class="st2">Micro-scheduler</text>		</g>
		<g id="group1084-155" transform="translate(-29.895,74.37) rotate(-90)">
			<title>Sheet.1084</title>
			<g id="shape1085-156">
				<title>Rectangle.400</title>
				<desc>Local Scheduler</desc>
				<rect x="0" y="251.115" width="54" height="33.75" class="st7"/>
				<text x="18.68" y="265.59" class="st6">Local <tspan x="10.87" dy="1.2em" class="st10">Scheduler</tspan></text>			</g>
		</g>
		<g id="group1086-160" transform="translate(-65.895,74.37) rotate(-90)">
			<title>Sheet.1086</title>
			<g id="shape1087-161">
				<title>Rectangle.400</title>
				<desc>Local Scheduler</desc>
				<rect x="0" y="251.115" width="54" height="33.75" class="st7"/>
				<text x="18.68" y="265.59" class="st6">Local <tspan x="10.87" dy="1.2em" class="st10">Scheduler</tspan></text>			</g>
		</g>
		<g id="group1088-165" transform="translate(57.855,74.37) rotate(-90)">
			<title>Sheet.1088</title>
			<g id="shape1089-166">
				<title>Rectangle.400</title>
				<desc>Local Scheduler</desc>
				<rect x="0" y="251.115" width="54" height="33.75" class="st7"/>
				<text x="18.68" y="265.59" class="st6">Local <tspan x="10.87" dy="1.2em" class="st10">Scheduler</tspan></text>			</g>
		</g>
		<g id="group1090-170" transform="translate(21.855,74.37) rotate(-90)">
			<title>Sheet.1090</title>
			<g id="shape1091-171">
				<title>Rectangle.400</title>
				<desc>Local Scheduler</desc>
				<rect x="0" y="251.115" width="54" height="33.75" class="st7"/>
				<text x="18.68" y="265.59" class="st6">Local <tspan x="10.87" dy="1.2em" class="st10">Scheduler</tspan></text>			</g>
		</g>
		<g id="group1092-175" transform="translate(258.532,-237.094)">
			<title>Sheet.1092</title>
			<g id="shape1093-176">
				<title>Circle.126</title>
				<path d="M0 283.93 a0.9375 0.9375 0 1 1 1.875 0 a0.9375 0.9375 0 1 1 -1.875 0 Z" class="st4"/>
			</g>
			<g id="shape1094-178" transform="translate(4.5,0)">
				<title>Circle.127</title>
				<path d="M0 283.93 a0.9375 0.9375 0 1 1 1.875 0 a0.9375 0.9375 0 1 1 -1.875 0 Z" class="st4"/>
			</g>
			<g id="shape1095-180" transform="translate(9,0)">
				<title>Circle.128</title>
				<path d="M0 283.93 a0.9375 0.9375 0 1 1 1.875 0 a0.9375 0.9375 0 1 1 -1.875 0 Z" class="st4"/>
			</g>
		</g>
		<g id="shape1096-182" transform="translate(193.076,-187.513)">
			<title>Dynamic connector.1096</title>
			<path d="M8.98 284.87 L9.02 261.88" class="st11"/>
		</g>
		<g id="shape1097-185" transform="translate(247.076,-210.495)">
			<title>Dynamic connector.1097</title>
			<path d="M-8.98 284.87 L-9.02 307.85" class="st11"/>
		</g>
		<g id="shape1098-188" transform="translate(280.826,-187.513)">
			<title>Dynamic connector.1098</title>
			<path d="M8.98 284.87 L9.02 261.88" class="st11"/>
		</g>
		<g id="shape1099-191" transform="translate(334.826,-210.495)">
			<title>Dynamic connector.1099</title>
			<path d="M-8.98 284.87 L-9.02 307.85" class="st11"/>
		</g>
		<g id="shape1100-194" transform="translate(538.134,390.708) rotate(138.515)">
			<title>Multi-Line.1100</title>
			<path d="M0 284.87 L162.19 284.87" class="st12"/>
		</g>
	</g>
</svg>
