<?xml version="1.0" encoding="UTF-8" standalone="no"?>
<!DOCTYPE svg PUBLIC "-//W3C//DTD SVG 1.1//EN" "http://www.w3.org/Graphics/SVG/1.1/DTD/svg11.dtd">
<!-- Generated by Microsoft Visio, SVG Export Series.svg Page-1 -->
<svg xmlns="http://www.w3.org/2000/svg" xmlns:xlink="http://www.w3.org/1999/xlink" xmlns:ev="http://www.w3.org/2001/xml-events"
		width="3.64175in" height="0.720413in" viewBox="0 0 262.206 51.8697" xml:space="preserve" color-interpolation-filters="sRGB"
		class="st6">
	<style type="text/css">
	<![CDATA[
		.st1 {fill:#002060}
		.st2 {stroke:#ffffff;stroke-linecap:round;stroke-linejoin:round;stroke-width:0.24}
		.st3 {fill:#ffffff;font-family:Times New Roman;font-size:1.33333em;font-style:italic;font-weight:bold}
		.st4 {marker-end:url(#mrkr4-26);stroke:#002060;stroke-linecap:round;stroke-linejoin:round;stroke-width:2}
		.st5 {fill:#002060;fill-opacity:1;stroke:#002060;stroke-opacity:1;stroke-width:0.44247787610619}
		.st6 {fill:none;fill-rule:evenodd;font-size:12px;overflow:visible;stroke-linecap:square;stroke-miterlimit:3}
	]]>
	</style>

	<defs id="Markers">
		<g id="lend4">
			<path d="M 2 1 L 0 0 L 2 -1 L 2 1 " style="stroke:none"/>
		</g>
		<marker id="mrkr4-26" class="st5" refX="-4.52" orient="auto" markerUnits="strokeWidth" overflow="visible">
			<use xlink:href="#lend4" transform="scale(-2.26,-2.26) "/>
		</marker>
	</defs>
	<g>
		<title>Page-1</title>
		<g id="shape196-1" transform="translate(39.9475,-0.11716)">
			<title>Cloud</title>
			<desc>A</desc>
			<path d="M3.81 30.74 A6.11626 6.86011 0 0 1 6.75 17.56 A12.4031 13.9115 0 0 1 24.74 6.44 A14.2422 15.9743 0 0 1 40.17
						 3.96 A8.93111 10.0173 0 0 1 53.39 3.14 A10.1682 11.4049 0 0 1 69.55 7.26 A7.27058 8.15453 0 0 1 75.42 18.79
						 A9.00555 10.1004 0 0 1 68.08 35.27 A11.3612 12.7425 0 0 1 51.92 43.51 A13.3959 15.0245 0 0 1 29.89 46.8
						 A16.981 19.0455 0 0 1 10.79 43.51 A6.69934 7.5141 0 0 1 3.81 30.74 Z" class="st1"/>
			<path d="M3.81 30.74 A6.11626 6.86011 0 0 1 6.75 17.56 A12.4031 13.9115 0 0 1 24.74 6.44 A14.2422 15.9743 0 0 1 40.17
						 3.96 A8.93111 10.0173 0 0 1 53.39 3.14 A10.1682 11.4049 0 0 1 69.55 7.26 A7.27058 8.15453 0 0 1 75.42 18.79
						 A9.00555 10.1004 0 0 1 68.08 35.27 A11.3612 12.7425 0 0 1 51.92 43.51 A13.3959 15.0245 0 0 1 29.89 46.8
						 A16.981 19.0455 0 0 1 10.79 43.51 A6.69934 7.5141 0 0 1 3.81 30.74" class="st2"/>
			<path d="M7.85 31.15 A6.09936 6.84115 0 0 1 3.81 30.74" class="st2"/>
			<path d="M28.78 44.74 A6.12591 6.87093 -180 0 0 29.89 46.8" class="st2"/>
			<path d="M52.47 41.04 A4.9451 5.54651 0 0 1 51.92 43.51" class="st2"/>
			<path d="M63.67 28.68 A5.18901 5.82009 0 0 1 68.08 35.27" class="st2"/>
			<path d="M73.22 21.27 A4.73734 5.31348 -180 0 0 75.42 18.79" class="st2"/>
			<path d="M26.94 8.09 A7.30541 8.19359 -180 0 0 24.74 6.44" class="st2"/>
			<text x="33.39" y="30.85" class="st3">A</text>		</g>
		<g id="shape197-11" transform="translate(147.534,-0.11716)">
			<title>Cloud.197</title>
			<desc>B</desc>
			<path d="M3.81 30.74 A6.11626 6.86011 0 0 1 6.75 17.56 A12.4031 13.9115 0 0 1 24.74 6.44 A14.2422 15.9743 0 0 1 40.17
						 3.96 A8.93111 10.0173 0 0 1 53.39 3.14 A10.1682 11.4049 0 0 1 69.55 7.26 A7.27058 8.15453 0 0 1 75.42 18.79
						 A9.00555 10.1004 0 0 1 68.08 35.27 A11.3612 12.7425 0 0 1 51.92 43.51 A13.3959 15.0245 0 0 1 29.89 46.8
						 A16.981 19.0455 0 0 1 10.79 43.51 A6.69934 7.5141 0 0 1 3.81 30.74 Z" class="st1"/>
			<path d="M3.81 30.74 A6.11626 6.86011 0 0 1 6.75 17.56 A12.4031 13.9115 0 0 1 24.74 6.44 A14.2422 15.9743 0 0 1 40.17
						 3.96 A8.93111 10.0173 0 0 1 53.39 3.14 A10.1682 11.4049 0 0 1 69.55 7.26 A7.27058 8.15453 0 0 1 75.42 18.79
						 A9.00555 10.1004 0 0 1 68.08 35.27 A11.3612 12.7425 0 0 1 51.92 43.51 A13.3959 15.0245 0 0 1 29.89 46.8
						 A16.981 19.0455 0 0 1 10.79 43.51 A6.69934 7.5141 0 0 1 3.81 30.74" class="st2"/>
			<path d="M7.85 31.15 A6.09936 6.84115 0 0 1 3.81 30.74" class="st2"/>
			<path d="M28.78 44.74 A6.12591 6.87093 -180 0 0 29.89 46.8" class="st2"/>
			<path d="M52.47 41.04 A4.9451 5.54651 0 0 1 51.92 43.51" class="st2"/>
			<path d="M63.67 28.68 A5.18901 5.82009 0 0 1 68.08 35.27" class="st2"/>
			<path d="M73.22 21.27 A4.73734 5.31348 -180 0 0 75.42 18.79" class="st2"/>
			<path d="M26.94 8.09 A7.30541 8.19359 -180 0 0 24.74 6.44" class="st2"/>
			<text x="33.39" y="30.85" class="st3">B</text>		</g>
		<g id="shape200-21" transform="translate(10.107,-18.5454)">
			<title>Dynamic connector.200</title>
			<path d="M0 42.87 L20.8 42.87" class="st4"/>
		</g>
		<g id="shape201-27" transform="translate(222.259,-18.5454)">
			<title>Dynamic connector.201</title>
			<path d="M0 42.87 L20.8 42.87" class="st4"/>
		</g>
		<g id="shape202-32" transform="translate(117.694,-18.5454)">
			<title>Dynamic connector.202</title>
			<path d="M0 42.87 L20.8 42.87" class="st4"/>
		</g>
	</g>
</svg>
