<?xml version="1.0" encoding="UTF-8" standalone="no"?>
<!DOCTYPE svg PUBLIC "-//W3C//DTD SVG 1.1//EN" "http://www.w3.org/Graphics/SVG/1.1/DTD/svg11.dtd">
<!-- Generated by Microsoft Visio, SVG Export 1to1Affinity.svg Page-1 -->
<svg xmlns="http://www.w3.org/2000/svg" xmlns:xlink="http://www.w3.org/1999/xlink" xmlns:ev="http://www.w3.org/2001/xml-events"
		width="2.37833in" height="2.71427in" viewBox="0 0 171.24 195.428" xml:space="preserve" color-interpolation-filters="sRGB"
		class="st10">
	<style type="text/css">
	<![CDATA[
		.st1 {fill:#eee7a4;stroke:#000000;stroke-linecap:round;stroke-linejoin:round;stroke-width:0.24}
		.st2 {fill:#000000;font-family:Calibri;font-size:0.833336em}
		.st3 {fill:#cbd8ef;stroke:#000000;stroke-linecap:round;stroke-linejoin:round;stroke-width:0.24}
		.st4 {fill:#000000;stroke:#000000;stroke-linecap:round;stroke-linejoin:round;stroke-width:0.24}
		.st5 {fill:#f2f2f2;stroke:#000000;stroke-linecap:round;stroke-linejoin:round;stroke-width:0.24}
		.st6 {fill:#000000;font-family:Calibri;font-size:0.666664em}
		.st7 {fill:#ffffff;stroke:#000000;stroke-linecap:round;stroke-linejoin:round;stroke-width:0.24}
		.st8 {fill:#f8f4d6;stroke:#000000;stroke-linecap:round;stroke-linejoin:round;stroke-width:0.24}
		.st9 {stroke:#000000;stroke-linecap:round;stroke-linejoin:round;stroke-width:0.75}
		.st10 {fill:none;fill-rule:evenodd;font-size:12px;overflow:visible;stroke-linecap:square;stroke-miterlimit:3}
	]]>
	</style>

	<g>
		<title>Page-1</title>
		<g id="shape825-1" transform="translate(0.12,-107.557)">
			<title>Rectangle.825</title>
			<desc>Worker Pool</desc>
			<rect x="0" y="107.677" width="171" height="87.75" class="st1"/>
			<text x="60.03" y="120.68" class="st2">Worker Pool</text>		</g>
		<g id="shape826-4" transform="translate(31.62,-0.12)">
			<title>Rectangle.826</title>
			<desc>Group</desc>
			<rect x="0" y="105.428" width="108" height="90" class="st3"/>
			<text x="41.21" y="118.43" class="st2">Group</text>		</g>
		<g id="group827-7" transform="translate(80.1825,-35.7194)">
			<title>Sheet.827</title>
			<g id="shape828-8">
				<title>Circle.126</title>
				<path d="M0 194.49 a0.9375 0.9375 0 1 1 1.875 0 a0.9375 0.9375 0 1 1 -1.875 0 Z" class="st4"/>
			</g>
			<g id="shape829-10" transform="translate(4.5,2.84217E-14)">
				<title>Circle.127</title>
				<path d="M0 194.49 a0.9375 0.9375 0 1 1 1.875 0 a0.9375 0.9375 0 1 1 -1.875 0 Z" class="st4"/>
			</g>
			<g id="shape830-12" transform="translate(9,2.84217E-14)">
				<title>Circle.128</title>
				<path d="M0 194.49 a0.9375 0.9375 0 1 1 1.875 0 a0.9375 0.9375 0 1 1 -1.875 0 Z" class="st4"/>
			</g>
		</g>
		<g id="shape831-14" transform="translate(38.37,-5.69385)">
			<title>Rectangle.831</title>
			<desc>Core</desc>
			<rect x="0" y="131.251" width="40.5" height="64.1761" class="st5"/>
			<text x="12.62" y="142.45" class="st6">Core</text>		</g>
		<g id="shape832-17" transform="translate(92.37,-5.69385)">
			<title>Rectangle.832</title>
			<desc>Core</desc>
			<rect x="0" y="131.251" width="40.5" height="64.1761" class="st5"/>
			<text x="12.62" y="142.45" class="st6">Core</text>		</g>
		<g id="group833-20" transform="translate(95.745,-9.11998)">
			<title>Sheet.833</title>
			<g id="shape834-21" transform="translate(-179.678,195.428) rotate(-90)">
				<title>Rectangle.342</title>
				<desc>Proc. N-1</desc>
				<rect x="0" y="179.678" width="45" height="15.75" class="st7"/>
				<text x="7.49" y="189.95" class="st6">Proc. N-1</text>			</g>
			<g id="shape835-24" transform="translate(-161.677,195.428) rotate(-90)">
				<title>Rectangle.343</title>
				<desc>Proc. N</desc>
				<rect x="0" y="179.678" width="45" height="15.75" class="st7"/>
				<text x="10.74" y="189.95" class="st6">Proc. N</text>			</g>
		</g>
		<g id="group836-27" transform="translate(41.745,-9.11998)">
			<title>Sheet.836</title>
			<g id="shape837-28" transform="translate(-179.678,195.428) rotate(-90)">
				<title>Rectangle.342</title>
				<desc>Proc. 0</desc>
				<rect x="0" y="179.678" width="45" height="15.75" class="st7"/>
				<text x="11.3" y="189.95" class="st6">Proc. 0</text>			</g>
			<g id="shape838-31" transform="translate(-161.677,195.428) rotate(-90)">
				<title>Rectangle.343</title>
				<desc>Proc 1</desc>
				<rect x="0" y="179.678" width="45" height="15.75" class="st7"/>
				<text x="12.31" y="189.95" class="st6">Proc 1</text>			</g>
		</g>
		<g id="group839-34" transform="translate(80.1825,-147.657)">
			<title>Sheet.839</title>
			<g id="shape840-35">
				<title>Circle.126</title>
				<path d="M0 194.49 a0.9375 0.9375 0 1 1 1.875 -2.84217E-14 a0.9375 0.9375 0 1 1 -1.875 0 Z" class="st4"/>
			</g>
			<g id="shape841-37" transform="translate(4.5,2.84217E-14)">
				<title>Circle.127</title>
				<path d="M0 194.49 a0.9375 0.9375 0 1 1 1.875 -2.84217E-14 a0.9375 0.9375 0 1 1 -1.875 0 Z" class="st4"/>
			</g>
			<g id="shape842-39" transform="translate(9,2.84217E-14)">
				<title>Circle.128</title>
				<path d="M0 194.49 a0.9375 0.9375 0 1 1 1.875 -2.84217E-14 a0.9375 0.9375 0 1 1 -1.875 0 Z" class="st4"/>
			</g>
		</g>
		<g id="group843-41" transform="translate(-118.808,80.6379) rotate(-90)">
			<title>Sheet.843</title>
			<g id="shape844-42">
				<title>Rectangle.400</title>
				<desc>Worker</desc>
				<rect x="0" y="161.678" width="59.7857" height="33.75" class="st8"/>
				<text x="17.63" y="172.88" class="st6">Worker</text>			</g>
			<g id="shape845-45" transform="translate(4.98212,-3.37498)">
				<title>Rectangle.399</title>
				<desc>SW Thread</desc>
				<rect x="0" y="179.678" width="49.8214" height="15.75" class="st7"/>
				<text x="7.16" y="189.95" class="st6">SW Thread</text>			</g>
		</g>
		<g id="group846-48" transform="translate(-154.808,80.6379) rotate(-90)">
			<title>Sheet.846</title>
			<g id="shape847-49">
				<title>Rectangle.400</title>
				<desc>Worker</desc>
				<rect x="0" y="161.678" width="59.7857" height="33.75" class="st8"/>
				<text x="17.63" y="172.88" class="st6">Worker</text>			</g>
			<g id="shape848-52" transform="translate(4.98212,-3.37498)">
				<title>Rectangle.399</title>
				<desc>SW Thread</desc>
				<rect x="0" y="179.678" width="49.8214" height="15.75" class="st7"/>
				<text x="7.16" y="189.95" class="st6">SW Thread</text>			</g>
		</g>
		<g id="group849-55" transform="translate(-31.0575,80.6379) rotate(-90)">
			<title>Sheet.849</title>
			<g id="shape850-56">
				<title>Rectangle.400</title>
				<desc>Worker</desc>
				<rect x="0" y="161.678" width="59.7857" height="33.75" class="st8"/>
				<text x="17.63" y="172.88" class="st6">Worker</text>			</g>
			<g id="shape851-59" transform="translate(4.98212,-3.37498)">
				<title>Rectangle.399</title>
				<desc>SW Thread</desc>
				<rect x="0" y="179.678" width="49.8214" height="15.75" class="st7"/>
				<text x="7.16" y="189.95" class="st6">SW Thread</text>			</g>
		</g>
		<g id="group852-62" transform="translate(-67.0575,80.6379) rotate(-90)">
			<title>Sheet.852</title>
			<g id="shape853-63">
				<title>Rectangle.400</title>
				<desc>Worker</desc>
				<rect x="0" y="161.678" width="59.7857" height="33.75" class="st8"/>
				<text x="17.63" y="172.88" class="st6">Worker</text>			</g>
			<g id="shape854-66" transform="translate(4.98212,-3.37498)">
				<title>Rectangle.399</title>
				<desc>SW Thread</desc>
				<rect x="0" y="179.678" width="49.8214" height="15.75" class="st7"/>
				<text x="7.16" y="189.95" class="st6">SW Thread</text>			</g>
		</g>
		<g id="shape860-69" transform="translate(49.62,-54.12)">
			<title>Dynamic connector.860</title>
			<path d="M0 195.43 L-25.87 134.76" class="st9"/>
		</g>
		<g id="shape861-72" transform="translate(72.6825,-54.12)">
			<title>Dynamic connector.861</title>
			<path d="M-5.06 195.43 L-12.94 134.76" class="st9"/>
		</g>
		<g id="shape862-75" transform="translate(98.5575,-54.12)">
			<title>Dynamic connector.862</title>
			<path d="M5.06 195.43 L12.94 134.76" class="st9"/>
		</g>
		<g id="shape863-78" transform="translate(121.62,-54.12)">
			<title>Dynamic connector.863</title>
			<path d="M0 195.43 L25.87 134.76" class="st9"/>
		</g>
	</g>
</svg>
