<?xml version="1.0" encoding="UTF-8" standalone="no"?>
<!DOCTYPE svg PUBLIC "-//W3C//DTD SVG 1.1//EN" "http://www.w3.org/Graphics/SVG/1.1/DTD/svg11.dtd">
<!-- Generated by Microsoft Visio, SVG Export Centralization.svg Page-1 -->
<svg xmlns="http://www.w3.org/2000/svg" xmlns:xlink="http://www.w3.org/1999/xlink" xmlns:ev="http://www.w3.org/2001/xml-events"
		width="2.97123in" height="3.42563in" viewBox="0 0 213.929 246.645" xml:space="preserve" color-interpolation-filters="sRGB"
		class="st10">
	<style type="text/css">
	<![CDATA[
		.st1 {fill:#002060;stroke:none;stroke-linecap:round;stroke-linejoin:round;stroke-width:0.24}
		.st2 {fill:#fff2cc;stroke:#bf9000;stroke-linecap:round;stroke-linejoin:round;stroke-width:1}
		.st3 {fill:#000000;font-family:Calibri;font-size:1.5em}
		.st4 {marker-end:url(#mrkr4-28);stroke:#002060;stroke-linecap:round;stroke-linejoin:round;stroke-width:2}
		.st5 {fill:#002060;fill-opacity:1;stroke:#002060;stroke-opacity:1;stroke-width:0.44247787610619}
		.st6 {fill:none;stroke:none;stroke-linecap:round;stroke-linejoin:round;stroke-width:0.75}
		.st7 {fill:#002060;font-family:Calibri;font-size:1.00001em}
		.st8 {marker-end:url(#mrkr4-45);stroke:#002060;stroke-linecap:round;stroke-linejoin:round;stroke-width:2}
		.st9 {fill:#000000;stroke:#000000;stroke-linecap:round;stroke-linejoin:round;stroke-width:0.24}
		.st10 {fill:none;fill-rule:evenodd;font-size:12px;overflow:visible;stroke-linecap:square;stroke-miterlimit:3}
	]]>
	</style>

	<defs id="Markers">
		<g id="lend4">
			<path d="M 2 1 L 0 0 L 2 -1 L 2 1 " style="stroke:none"/>
		</g>
		<marker id="mrkr4-28" class="st5" refX="-4.52" orient="auto" markerUnits="strokeWidth" overflow="visible">
			<use xlink:href="#lend4" transform="scale(-2.26,-2.26) "/>
		</marker>
		<marker id="mrkr4-45" class="st5" refX="-4.34" orient="auto" markerUnits="strokeWidth" overflow="visible">
			<use xlink:href="#lend4" transform="scale(-2.26,-2.26) "/>
		</marker>
	</defs>
	<g>
		<title>Page-1</title>
		<g id="shape251-1" transform="translate(86.8413,-187.993)">
			<title>Rectangle.251</title>
			<rect x="0" y="233.368" width="40.5" height="13.2773" class="st1"/>
		</g>
		<g id="shape252-3" transform="translate(86.8413,-172.132)">
			<title>Rectangle.252</title>
			<rect x="0" y="233.368" width="40.5" height="13.2773" class="st1"/>
		</g>
		<g id="shape253-5" transform="translate(86.8413,-156.27)">
			<title>Rectangle.253</title>
			<rect x="0" y="233.368" width="40.5" height="13.2773" class="st1"/>
		</g>
		<g id="shape254-7" transform="translate(86.8413,-140.409)">
			<title>Rectangle.254</title>
			<rect x="0" y="233.368" width="40.5" height="13.2773" class="st1"/>
		</g>
		<g id="shape255-9" transform="translate(86.8413,-124.548)">
			<title>Rectangle.255</title>
			<rect x="0" y="233.368" width="40.5" height="13.2773" class="st1"/>
		</g>
		<g id="shape256-11" transform="translate(86.8413,-108.686)">
			<title>Rectangle.256</title>
			<rect x="0" y="233.368" width="40.5" height="13.2773" class="st1"/>
		</g>
		<g id="shape257-13" transform="translate(86.8413,-92.8248)">
			<title>Rectangle.257</title>
			<rect x="0" y="233.368" width="40.5" height="13.2773" class="st1"/>
		</g>
		<g id="shape258-15" transform="translate(86.8413,-76.9634)">
			<title>Rectangle.258</title>
			<rect x="0" y="233.368" width="40.5" height="13.2773" class="st1"/>
		</g>
		<g id="shape266-17" transform="translate(48.5915,-0.5)">
			<title>Square.266</title>
			<desc>EE</desc>
			<rect x="0" y="210.645" width="36" height="36" class="st2"/>
			<text x="9.21" y="234.05" class="st3">EE</text>		</g>
		<g id="shape267-20" transform="translate(129.591,-0.5)">
			<title>Square.267</title>
			<desc>EE</desc>
			<rect x="0" y="210.645" width="36" height="36" class="st2"/>
			<text x="9.21" y="234.05" class="st3">EE</text>		</g>
		<g id="shape268-23" transform="translate(107.091,-76.9634)">
			<title>Dynamic connector.268</title>
			<path d="M0 246.65 L-34.1 280.72" class="st4"/>
		</g>
		<g id="shape269-29" transform="translate(107.091,-76.9634)">
			<title>Dynamic connector.269</title>
			<path d="M0 246.65 L34.1 280.72" class="st4"/>
		</g>
		<g id="shape272-34" transform="translate(89.0914,-45.0203)">
			<title>Sheet.272</title>
			<desc>pop</desc>
			<rect x="0" y="226.645" width="36" height="20" class="st6"/>
			<text x="8.53" y="240.25" class="st7">pop</text>		</g>
		<g id="shape273-37" transform="translate(86.8413,-226.27)">
			<title>Sheet.273</title>
			<desc>push</desc>
			<rect x="0" y="226.645" width="40.5" height="20" class="st6"/>
			<text x="8.45" y="240.25" class="st7">push</text>		</g>
		<g id="shape274-40" transform="translate(48.5915,-18.5)">
			<title>Dynamic connector.274</title>
			<path d="M0 246.65 C-13.5 246.65 -31.06 197.58 -31.86 155.36 C-32.67 112.47 -16.18 76.64 -2.22 61.49 C7.93 50.46 16.74
						 50.37 37.65 50.37 C44.22 50.36 51.97 50.37 55.92 55.21 L56.02 55.56" class="st8"/>
		</g>
		<g id="shape275-46" transform="translate(165.591,-18.5)">
			<title>Dynamic connector.275</title>
			<path d="M0 246.65 C13.5 246.65 30.56 196.68 31.36 154.43 C32.18 111.34 16.1 76.27 2.15 61.37 C-7.84 50.68 -16.74 50.36
						 -37.45 50.34 C-44.08 50.33 -51.92 50.35 -55.9 55.22 L-56.01 55.56" class="st8"/>
		</g>
		<g id="shape276-51" transform="translate(95.8415,-16.7703)">
			<title>Circle.276</title>
			<path d="M0 244.4 A2.25 2.25 0 0 1 4.5 244.4 A2.25 2.25 0 1 1 0 244.4 Z" class="st9"/>
		</g>
		<g id="shape277-53" transform="translate(104.841,-16.7703)">
			<title>Circle.277</title>
			<path d="M0 244.4 A2.25 2.25 0 0 1 4.5 244.4 A2.25 2.25 0 1 1 0 244.4 Z" class="st9"/>
		</g>
		<g id="shape278-55" transform="translate(113.841,-16.7703)">
			<title>Circle.125</title>
			<path d="M0 244.4 A2.25 2.25 0 0 1 4.5 244.4 A2.25 2.25 0 1 1 0 244.4 Z" class="st9"/>
		</g>
	</g>
</svg>
