<?xml version="1.0" encoding="UTF-8" standalone="no"?>
<!DOCTYPE svg PUBLIC "-//W3C//DTD SVG 1.1//EN" "http://www.w3.org/Graphics/SVG/1.1/DTD/svg11.dtd">
<!-- Generated by Microsoft Visio, SVG Export Core.svg Page-1 -->
<svg xmlns="http://www.w3.org/2000/svg" xmlns:xlink="http://www.w3.org/1999/xlink" xmlns:ev="http://www.w3.org/2001/xml-events"
		width="1.01115in" height="1.77677in" viewBox="0 0 72.8025 127.928" xml:space="preserve" color-interpolation-filters="sRGB"
		class="st7">
	<style type="text/css">
	<![CDATA[
		.st1 {fill:#d8d8d8;stroke:#000000;stroke-linecap:round;stroke-linejoin:round;stroke-width:0.24}
		.st2 {fill:#000000;font-family:Calibri;font-size:0.833336em}
		.st3 {fill:#f2f2f2;stroke:#000000;stroke-linecap:round;stroke-linejoin:round;stroke-width:0.24}
		.st4 {fill:#ffffff;stroke:#000000;stroke-linecap:round;stroke-linejoin:round;stroke-width:0.24}
		.st5 {fill:#000000;font-family:Calibri;font-size:0.666664em}
		.st6 {fill:#000000;stroke:#000000;stroke-linecap:round;stroke-linejoin:round;stroke-width:0.24}
		.st7 {fill:none;fill-rule:evenodd;font-size:12px;overflow:visible;stroke-linecap:square;stroke-miterlimit:3}
	]]>
	</style>

	<g>
		<title>Page-1</title>
		<g id="shape661-1" transform="translate(0.12,-0.12)">
			<title>Rectangle.661</title>
			<desc>Core</desc>
			<rect x="0" y="0.240002" width="72.5625" height="127.688" class="st1"/>
			<text x="26.75" y="13.24" class="st2">Core</text>		</g>
		<g id="shape554-4" transform="translate(6.30749,-5.74498)">
			<title>Rectangle.554</title>
			<desc>Processors</desc>
			<rect x="0" y="40.1775" width="59.625" height="87.75" class="st3"/>
			<text x="8" y="53.18" class="st2">Processors</text>		</g>
		<g id="group550-7" transform="translate(-100.245,116.558) rotate(-90)">
			<title>Sheet.550</title>
			<g id="shape551-8">
				<title>Rectangle.400</title>
				<desc>Processor 0</desc>
				<rect x="0" y="115.553" width="63" height="12.375" class="st4"/>
				<text x="12.68" y="124.14" class="st5">Processor 0</text>			</g>
		</g>
		<g id="group552-11" transform="translate(6.30749,-95.745)">
			<title>Sheet.552</title>
			<g id="shape553-12">
				<title>Rectangle.400</title>
				<desc>Efficiency Class</desc>
				<rect x="0" y="115.553" width="59.625" height="12.375" class="st3"/>
				<text x="5.3" y="124.14" class="st5">Efficiency Class</text>			</g>
		</g>
		<g id="group557-15" transform="translate(30.6825,-41.9325)">
			<title>Sheet.557</title>
			<g id="shape558-16">
				<title>Circle.126</title>
				<path d="M0 126.99 a0.9375 0.9375 0 1 1 1.875 -1.42109E-14 a0.9375 0.9375 0 1 1 -1.875 0 Z" class="st6"/>
			</g>
			<g id="shape559-18" transform="translate(4.5,-1.42109E-14)">
				<title>Circle.127</title>
				<path d="M0 126.99 a0.9375 0.9375 0 1 1 1.875 -1.42109E-14 a0.9375 0.9375 0 1 1 -1.875 0 Z" class="st6"/>
			</g>
			<g id="shape560-20" transform="translate(9,-1.42109E-14)">
				<title>Circle.128</title>
				<path d="M0 126.99 a0.9375 0.9375 0 1 1 1.875 -1.42109E-14 a0.9375 0.9375 0 1 1 -1.875 0 Z" class="st6"/>
			</g>
		</g>
		<g id="group562-22" transform="translate(-70.995,116.558) rotate(-90)">
			<title>Sheet.562</title>
			<g id="shape563-23">
				<title>Rectangle.400</title>
				<desc>Processor N</desc>
				<rect x="0" y="115.553" width="63" height="12.375" class="st4"/>
				<text x="12.13" y="124.14" class="st5">Processor N</text>			</g>
		</g>
	</g>
</svg>
