<?xml version="1.0" encoding="UTF-8" standalone="no"?>
<!DOCTYPE svg PUBLIC "-//W3C//DTD SVG 1.1//EN" "http://www.w3.org/Graphics/SVG/1.1/DTD/svg11.dtd">
<!-- Generated by Microsoft Visio, SVG Export GTS_Layers.svg Page-1 -->
<svg xmlns="http://www.w3.org/2000/svg" xmlns:xlink="http://www.w3.org/1999/xlink" xmlns:ev="http://www.w3.org/2001/xml-events"
		width="5.13889in" height="4.32639in" viewBox="0 0 370 311.5" xml:space="preserve" color-interpolation-filters="sRGB"
		class="st6">
	<style type="text/css">
	<![CDATA[
		.st1 {fill:#dce6f3;stroke:#000000;stroke-linecap:round;stroke-linejoin:round;stroke-width:1}
		.st2 {fill:#000000;font-family:Calibri;font-size:1.5em}
		.st3 {fill:#000000;font-family:Calibri;font-size:1.00001em}
		.st4 {font-size:1em}
		.st5 {fill:#dce6f3;stroke:#000000;stroke-dasharray:7,5;stroke-linecap:round;stroke-linejoin:round;stroke-width:1}
		.st6 {fill:none;fill-rule:evenodd;font-size:12px;overflow:visible;stroke-linecap:square;stroke-miterlimit:3}
	]]>
	</style>

	<g>
		<title>Page-1</title>
		<g id="shape5-1" transform="translate(0.5,-108.5)">
			<title>Rectangle.55</title>
			<desc>Containers</desc>
			<rect x="0" y="275.5" width="369" height="36" class="st1"/>
			<text x="144.97" y="298.9" class="st2">Containers</text>		</g>
		<g id="shape1-4" transform="translate(0.5,-252.5)">
			<title>Rectangle.59</title>
			<desc>Work-stealing Macro-scheduler Implementation</desc>
			<rect x="0" y="253" width="184.5" height="58.5" class="st1"/>
			<text x="15.37" y="278.65" class="st3">Work-stealing Macro-scheduler <tspan x="52.91" dy="1.2em" class="st4">Implementation</tspan></text>		</g>
		<g id="shape2-8" transform="translate(0.5,-216.5)">
			<title>Rectangle.58</title>
			<desc>Macro-scheduler Interface</desc>
			<rect x="0" y="275.5" width="369" height="36" class="st1"/>
			<text x="87.38" y="298.9" class="st2">Macro-scheduler Interface</text>		</g>
		<g id="shape4-11" transform="translate(0.5,-72.5)">
			<title>Rectangle.56</title>
			<desc>Debug and Analysis</desc>
			<rect x="0" y="275.5" width="369" height="36" class="st1"/>
			<text x="113.46" y="298.9" class="st2">Debug and Analysis</text>		</g>
		<g id="shape6-14" transform="translate(0.5,-36.5)">
			<title>Rectangle</title>
			<desc>Platform</desc>
			<rect x="0" y="275.5" width="369" height="36" class="st1"/>
			<text x="152.64" y="298.9" class="st2">Platform</text>		</g>
		<g id="shape67-17" transform="translate(185,-252.5)">
			<title>Rectangle.67</title>
			<desc>Other Macro-scheduler Implementations</desc>
			<path d="M0 311.5 L184.5 311.5 L184.5 253 L0 253 L0 311.5 Z" class="st5"/>
			<text x="33.91" y="278.65" class="st3">Other  Macro-scheduler <tspan x="50.57" dy="1.2em" class="st4">Implementations</tspan></text>		</g>
		<g id="shape68-21" transform="translate(0.5,-0.5)">
			<title>Rectangle.68</title>
			<desc>User Configuration</desc>
			<path d="M0 311.5 L369 311.5 L369 275.5 L0 275.5 L0 311.5 Z" class="st5"/>
			<text x="115.5" y="298.9" class="st2">User Configuration</text>		</g>
		<g id="shape69-24" transform="translate(0.5,-144.5)">
			<title>Rectangle.69</title>
			<desc>Micro-scheduler Interface</desc>
			<rect x="0" y="275.5" width="369" height="36" class="st1"/>
			<text x="89.62" y="298.9" class="st2">Micro-scheduler Interface</text>		</g>
		<g id="shape70-27" transform="translate(0.5,-180.5)">
			<title>Rectangle.70</title>
			<desc>Work-stealing Micro-scheduler</desc>
			<rect x="0" y="275.5" width="184.5" height="36" class="st1"/>
			<text x="16.87" y="297.1" class="st3">Work-stealing Micro-scheduler</text>		</g>
		<g id="shape71-30" transform="translate(185,-180.5)">
			<title>Rectangle.71</title>
			<desc>Other Micro-scheduler Impls</desc>
			<path d="M0 311.5 L184.5 311.5 L184.5 275.5 L0 275.5 L0 311.5 Z" class="st5"/>
			<text x="22.23" y="297.1" class="st3">Other Micro-scheduler Impls</text>		</g>
	</g>
</svg>
