<?xml version="1.0" encoding="UTF-8" standalone="no"?>
<!DOCTYPE svg PUBLIC "-//W3C//DTD SVG 1.1//EN" "http://www.w3.org/Graphics/SVG/1.1/DTD/svg11.dtd">
<!-- Generated by Microsoft Visio, SVG Export MacroScheduler.svg Page-1 -->
<svg xmlns="http://www.w3.org/2000/svg" xmlns:xlink="http://www.w3.org/1999/xlink" xmlns:ev="http://www.w3.org/2001/xml-events"
		width="4.49346in" height="3.15167in" viewBox="0 0 323.529 226.92" xml:space="preserve" color-interpolation-filters="sRGB"
		class="st20">
	<style type="text/css">
	<![CDATA[
		.st1 {marker-end:url(#mrkr4-6);stroke:#000000;stroke-linecap:round;stroke-linejoin:round;stroke-width:3}
		.st2 {fill:#000000;fill-opacity:1;stroke:#000000;stroke-opacity:1;stroke-width:0.54347826086957}
		.st3 {fill:#ffffff;stroke:none;stroke-linecap:butt;stroke-width:7.2}
		.st4 {fill:#000000;font-family:Calibri;font-size:0.666664em}
		.st5 {marker-start:url(#mrkr4-14);stroke:#000000;stroke-linecap:round;stroke-linejoin:round;stroke-width:3}
		.st6 {fill:#d7e3bf;stroke:#000000;stroke-linecap:round;stroke-linejoin:round;stroke-width:0.24}
		.st7 {fill:#000000;font-family:Calibri;font-size:0.833336em}
		.st8 {fill:#cbd8ef;stroke:#000000;stroke-linecap:round;stroke-linejoin:round;stroke-width:0.24}
		.st9 {fill:#fee599;stroke:#000000;stroke-linecap:round;stroke-linejoin:round;stroke-width:0.24}
		.st10 {fill:#dce6f3;stroke:#000000;stroke-linecap:round;stroke-linejoin:round;stroke-width:0.24}
		.st11 {font-size:1em}
		.st12 {stroke:#000000;stroke-dasharray:5.25,3.75;stroke-linecap:round;stroke-linejoin:round;stroke-width:0.75}
		.st13 {fill:#e5b9b5;stroke:#000000;stroke-linecap:round;stroke-linejoin:round;stroke-width:0.24}
		.st14 {fill:#000000;stroke:#000000;stroke-linecap:round;stroke-linejoin:round;stroke-width:0.24}
		.st15 {fill:#ffffff}
		.st16 {stroke:#000000;stroke-linecap:round;stroke-linejoin:round;stroke-width:0.24}
		.st17 {fill:#fee599;stroke:#000000;stroke-linecap:round;stroke-linejoin:round;stroke-width:1}
		.st18 {marker-end:url(#mrkr4-87);stroke:#000000;stroke-dasharray:3,3;stroke-linecap:round;stroke-linejoin:round;stroke-width:1}
		.st19 {fill:#000000;fill-opacity:1;stroke:#000000;stroke-opacity:1;stroke-width:0.28409090909091}
		.st20 {fill:none;fill-rule:evenodd;font-size:12px;overflow:visible;stroke-linecap:square;stroke-miterlimit:3}
	]]>
	</style>

	<defs id="Markers">
		<g id="lend4">
			<path d="M 2 1 L 0 0 L 2 -1 L 2 1 " style="stroke:none"/>
		</g>
		<marker id="mrkr4-6" class="st2" refX="-3.68" orient="auto" markerUnits="strokeWidth" overflow="visible">
			<use xlink:href="#lend4" transform="scale(-1.84,-1.84) "/>
		</marker>
		<marker id="mrkr4-14" class="st2" refX="3.56" orient="auto" markerUnits="strokeWidth" overflow="visible">
			<use xlink:href="#lend4" transform="scale(1.84) "/>
		</marker>
		<marker id="mrkr4-87" class="st19" refX="-7.04" orient="auto" markerUnits="strokeWidth" overflow="visible">
			<use xlink:href="#lend4" transform="scale(-3.52,-3.52) "/>
		</marker>
	</defs>
	<g>
		<title>Page-1</title>
		<g id="shape476-1" transform="translate(245.751,-164.925)">
			<title>Dynamic connector.476</title>
			<desc>Forms DAG</desc>
			<path d="M-8.96 226.92 L-9.01 251.9" class="st1"/>
			<rect x="-1.41654" y="233.962" width="36.6092" height="9.59985" class="st3"/>
			<text x="-1.42" y="241.16" class="st4">Forms DAG</text>		</g>
		<g id="shape475-9" transform="translate(145.664,-80.8291)">
			<title>Dynamic connector.475</title>
			<desc>Schedules DAG</desc>
			<path d="M10.68 235.92 L11.04 235.92 L29.26 235.92" class="st5"/>
			<rect x="-228.636" y="15.4503" width="48.9993" height="9.59985" transform="rotate(-90)" class="st3"/>
			<text x="-228.64" y="22.65" transform="rotate(-90)" class="st4">Schedules DAG</text>		</g>
		<g id="shape441-17" transform="translate(26.4136,-174.825)">
			<title>Rectangle.441</title>
			<desc>Compute Resource</desc>
			<rect x="0" y="185.295" width="103.5" height="41.625" class="st6"/>
			<text x="13.14" y="198.3" class="st7">Compute Resource</text>		</g>
		<g id="shape446-20" transform="translate(32.0386,-180.45)">
			<title>Rectangle.446</title>
			<desc>Micro-scheduler</desc>
			<rect x="0" y="211.17" width="92.25" height="15.75" class="st8"/>
			<text x="12.86" y="222.05" class="st7">Micro-scheduler</text>		</g>
		<g id="shape447-23" transform="translate(185.039,-164.925)">
			<title>Rectangle.447</title>
			<desc>Node</desc>
			<rect x="0" y="165.045" width="103.5" height="61.875" class="st9"/>
			<text x="40.77" y="178.05" class="st7">Node</text>		</g>
		<g id="shape448-26" transform="translate(190.664,-170.128)">
			<title>Rectangle.448</title>
			<desc>Micro-scheduler Workload</desc>
			<rect x="0" y="190.498" width="92.25" height="36.4219" class="st10"/>
			<text x="12.86" y="205.71" class="st7">Micro-scheduler <tspan x="26.22" dy="1.2em" class="st11">Workload</tspan></text>		</g>
		<g id="shape449-30" transform="translate(124.289,-179.332)">
			<title>Dynamic connector.449</title>
			<path d="M0 217.93 L66.37 217.91" class="st12"/>
		</g>
		<g id="shape450-33" transform="translate(10.6636,-31.472)">
			<title>Rectangle.450</title>
			<desc>Macro-scheduler</desc>
			<rect x="0" y="146.201" width="135" height="80.7188" class="st13"/>
			<text x="32.99" y="159.2" class="st7">Macro-scheduler</text>		</g>
		<g id="group451-36" transform="translate(-139.756,188.979) rotate(-90)">
			<title>Sheet.451</title>
			<g id="shape452-37">
				<title>Rectangle.400</title>
				<desc>Compute Resource</desc>
				<rect x="0" y="193.17" width="54" height="33.75" class="st6"/>
				<text x="12.03" y="207.65" class="st4">Compute <tspan x="11.99" dy="1.2em" class="st11">Resource</tspan></text>			</g>
		</g>
		<g id="group457-41" transform="translate(-88.0064,188.979) rotate(-90)">
			<title>Sheet.457</title>
			<g id="shape458-42">
				<title>Rectangle.400</title>
				<desc>Compute Resource</desc>
				<rect x="0" y="193.17" width="54" height="33.75" class="st6"/>
				<text x="12.03" y="207.65" class="st4">Compute <tspan x="11.99" dy="1.2em" class="st11">Resource</tspan></text>			</g>
		</g>
		<g id="group459-46" transform="translate(90.7261,-64.5401)">
			<title>Sheet.459</title>
			<g id="shape460-47">
				<title>Circle.126</title>
				<path d="M0 225.98 a0.9375 0.9375 0 1 1 1.875 -2.84217E-14 a0.9375 0.9375 0 1 1 -1.875 0 Z" class="st14"/>
			</g>
			<g id="shape461-49" transform="translate(4.5,0)">
				<title>Circle.127</title>
				<path d="M0 225.98 a0.9375 0.9375 0 1 1 1.875 -2.84217E-14 a0.9375 0.9375 0 1 1 -1.875 0 Z" class="st14"/>
			</g>
			<g id="shape462-51" transform="translate(9,0)">
				<title>Circle.128</title>
				<path d="M0 225.98 a0.9375 0.9375 0 1 1 1.875 -2.84217E-14 a0.9375 0.9375 0 1 1 -1.875 0 Z" class="st14"/>
			</g>
		</g>
		<g id="shape464-53" transform="translate(174.914,-0.112575)">
			<title>Cloud</title>
			<path d="M7.31 171.66 A11.7273 17.9366 0 0 1 12.93 137.21 A23.7816 36.3734 0 0 1 47.45 108.13 A27.3078 41.7667 0 0 1
						 77.01 101.67 A17.1244 26.1914 0 0 1 102.36 99.51 A19.4965 29.8195 0 0 1 133.35 110.28 A13.9405 21.321 0
						 0 1 144.61 140.44 A17.2671 26.4088 0 0 1 130.53 183.52 A21.7839 33.3168 0 0 1 99.55 205.05 A25.6851 39.2834
						 0 0 1 57.31 213.68 A32.5592 49.7968 0 0 1 20.69 205.05 A12.8453 19.6465 0 0 1 7.31 171.66 Z" class="st15"/>
			<path d="M7.31 171.66 A11.7273 17.9366 0 0 1 12.93 137.21 A23.7816 36.3734 0 0 1 47.45 108.13 A27.3078 41.7667 0 0 1
						 77.01 101.67 A17.1244 26.1914 0 0 1 102.36 99.51 A19.4965 29.8195 0 0 1 133.35 110.28 A13.9405 21.321 0
						 0 1 144.61 140.44 A17.2671 26.4088 0 0 1 130.53 183.52 A21.7839 33.3168 0 0 1 99.55 205.05 A25.6851 39.2834
						 0 0 1 57.31 213.68 A32.5592 49.7968 0 0 1 20.69 205.05 A12.8453 19.6465 0 0 1 7.31 171.66" class="st16"/>
			<path d="M15.04 172.74 A11.6948 17.887 0 0 1 7.31 171.66" class="st16"/>
			<path d="M55.18 208.29 A11.7458 17.9649 -180 0 0 57.31 213.68" class="st16"/>
			<path d="M100.61 198.6 A9.48169 14.502 0 0 1 99.55 205.05" class="st16"/>
			<path d="M122.08 166.28 A9.94936 15.2173 0 0 1 130.53 183.52" class="st16"/>
			<path d="M140.39 146.91 A9.08332 13.8927 -180 0 0 144.61 140.44" class="st16"/>
			<path d="M51.66 112.44 A14.0073 21.4231 -180 0 0 47.45 108.13" class="st16"/>
		</g>
		<g id="shape465-62" transform="translate(34.2886,-91.9407)">
			<title>Dynamic connector.465</title>
			<desc>Executes Workloads</desc>
			<path d="M0 226.92 L0 188.25 L43.88 188.25 L43.88 149.45" class="st1"/>
			<rect x="-29.3824" y="160.948" width="65.515" height="9.59985" class="st3"/>
			<text x="-29.38" y="168.15" class="st4">Executes Workloads</text>		</g>
		<g id="group453-69" transform="translate(-175.756,188.979) rotate(-90)">
			<title>Sheet.453</title>
			<g id="shape454-70">
				<title>Rectangle.400</title>
				<desc>Compute Resource</desc>
				<rect x="0" y="193.17" width="54" height="33.75" class="st6"/>
				<text x="12.03" y="207.65" class="st4">Compute <tspan x="11.99" dy="1.2em" class="st11">Resource</tspan></text>			</g>
		</g>
		<g id="shape466-74" transform="translate(231.164,-94.0501)">
			<title>Circle</title>
			<path d="M0 216.23 A10.6875 10.6875 0 0 1 21.37 216.23 A10.6875 10.6875 0 1 1 0 216.23 Z" class="st17"/>
		</g>
		<g id="shape467-76" transform="translate(258.164,-64.8001)">
			<title>Circle.467</title>
			<path d="M0 216.23 A10.6875 10.6875 0 0 1 21.37 216.23 A10.6875 10.6875 0 1 1 0 216.23 Z" class="st17"/>
		</g>
		<g id="shape468-78" transform="translate(209.789,-56.9251)">
			<title>Circle.468</title>
			<path d="M0 216.23 A10.6875 10.6875 0 0 1 21.37 216.23 A10.6875 10.6875 0 1 1 0 216.23 Z" class="st17"/>
		</g>
		<g id="shape469-80" transform="translate(239.039,-19.8001)">
			<title>Circle.469</title>
			<path d="M0 216.23 A10.6875 10.6875 0 0 1 21.37 216.23 A10.6875 10.6875 0 1 1 0 216.23 Z" class="st17"/>
		</g>
		<g id="shape470-82" transform="translate(236.385,-97.1794)">
			<title>Dynamic connector.470</title>
			<path d="M-2.09 226.92 L-11.75 240.12" class="st18"/>
		</g>
		<g id="shape471-88" transform="translate(220.476,-56.9251)">
			<title>Dynamic connector.471</title>
			<path d="M0 226.92 L16.38 241.18" class="st18"/>
		</g>
		<g id="shape472-93" transform="translate(246.351,-99.1126)">
			<title>Dynamic connector.472</title>
			<path d="M3.06 228.85 L10.41 237.6" class="st18"/>
		</g>
		<g id="shape473-98" transform="translate(272.068,-64.8001)">
			<title>Dynamic connector.473</title>
			<path d="M-3.22 226.92 L-11.99 247.21" class="st18"/>
		</g>
	</g>
</svg>
