<?xml version="1.0" encoding="UTF-8" standalone="no"?>
<!DOCTYPE svg PUBLIC "-//W3C//DTD SVG 1.1//EN" "http://www.w3.org/Graphics/SVG/1.1/DTD/svg11.dtd">
<!-- Generated by Microsoft Visio, SVG Export PlatformReplaceModularLib.svg Page-1 -->
<svg xmlns="http://www.w3.org/2000/svg" xmlns:xlink="http://www.w3.org/1999/xlink" xmlns:ev="http://www.w3.org/2001/xml-events"
		width="8.07465in" height="8.05002in" viewBox="0 0 581.375 579.601" xml:space="preserve" color-interpolation-filters="sRGB"
		class="st15">
	<style type="text/css">
	<![CDATA[
		.st1 {marker-end:url(#mrkr4-6);stroke:#000000;stroke-linecap:round;stroke-linejoin:round;stroke-width:4}
		.st2 {fill:#000000;fill-opacity:1;stroke:#000000;stroke-opacity:1;stroke-width:0.61349693251534}
		.st3 {marker-end:url(#mrkr4-17);stroke:#000000;stroke-linecap:round;stroke-linejoin:round;stroke-width:4}
		.st4 {fill:#dce6f3;stroke:#000000;stroke-linecap:round;stroke-linejoin:round;stroke-width:1}
		.st5 {fill:#000000;font-family:Calibri;font-size:1.5em}
		.st6 {fill:#000000;font-family:Calibri;font-size:1.00001em}
		.st7 {font-size:1em}
		.st8 {fill:#f2f2f2;stroke:#d8d8d8;stroke-linecap:round;stroke-linejoin:round;stroke-width:1}
		.st9 {fill:#bfbfbf;font-family:Calibri;font-size:1.5em}
		.st10 {fill:#dce6f3;stroke:#000000;stroke-dasharray:7,5;stroke-linecap:round;stroke-linejoin:round;stroke-width:1}
		.st11 {fill:#fff2cc}
		.st12 {stroke:#000000;stroke-linecap:round;stroke-linejoin:round;stroke-width:0.24}
		.st13 {fill:#fff2cc;stroke:#000000;stroke-linecap:round;stroke-linejoin:round;stroke-width:1}
		.st14 {fill:none;stroke:none;stroke-linecap:round;stroke-linejoin:round;stroke-width:0.75}
		.st15 {fill:none;fill-rule:evenodd;font-size:12px;overflow:visible;stroke-linecap:square;stroke-miterlimit:3}
	]]>
	</style>

	<defs id="Markers">
		<g id="lend4">
			<path d="M 2 1 L 0 0 L 2 -1 L 2 1 " style="stroke:none"/>
		</g>
		<marker id="mrkr4-6" class="st2" refX="-3.26" orient="auto" markerUnits="strokeWidth" overflow="visible">
			<use xlink:href="#lend4" transform="scale(-1.63,-1.63) "/>
		</marker>
		<marker id="mrkr4-17" class="st2" refX="-3.17" orient="auto" markerUnits="strokeWidth" overflow="visible">
			<use xlink:href="#lend4" transform="scale(-1.63,-1.63) "/>
		</marker>
	</defs>
	<g>
		<title>Page-1</title>
		<g id="shape93-1" transform="translate(89.8564,-76.875)">
			<title>Dynamic connector.93</title>
			<path d="M-8.98 579.6 L-9.01 489.75" class="st1"/>
		</g>
		<g id="shape85-7" transform="translate(156.875,-58.875)">
			<title>Dynamic connector</title>
			<path d="M0 579.6 L239.5 579.6 L239.5 529.64" class="st1"/>
		</g>
		<g id="shape86-12" transform="translate(202.875,-139.875)">
			<title>Dynamic connector.86</title>
			<path d="M9 579.6 C-4.5 579.6 -24.75 554.85 -24.75 530.1 C-24.75 512.11 -14.05 494.13 -3.03 485.64 L-2.7 485.5"
					class="st3"/>
		</g>
		<g id="shape72-18" transform="translate(211.875,-256.875)">
			<title>Rectangle.72</title>
			<desc>Containers</desc>
			<rect x="0" y="543.601" width="369" height="36" class="st4"/>
			<text x="144.97" y="567" class="st5">Containers</text>		</g>
		<g id="shape73-21" transform="translate(211.875,-400.875)">
			<title>Rectangle.73</title>
			<desc>Work-stealing Macro-scheduler Implementation</desc>
			<rect x="0" y="521.101" width="184.5" height="58.5" class="st4"/>
			<text x="15.37" y="546.75" class="st6">Work-stealing Macro-scheduler <tspan x="52.91" dy="1.2em" class="st7">Implementation</tspan></text>		</g>
		<g id="shape74-25" transform="translate(211.875,-364.875)">
			<title>Rectangle.74</title>
			<desc>Macro-scheduler Interface</desc>
			<rect x="0" y="543.601" width="369" height="36" class="st4"/>
			<text x="87.38" y="567" class="st5">Macro-scheduler Interface</text>		</g>
		<g id="shape75-28" transform="translate(211.875,-220.875)">
			<title>Rectangle.75</title>
			<desc>Debug and Analysis</desc>
			<rect x="0" y="543.601" width="369" height="36" class="st4"/>
			<text x="113.46" y="567" class="st5">Debug and Analysis</text>		</g>
		<g id="shape76-31" transform="translate(211.875,-182.625)">
			<title>Rectangle.76</title>
			<desc>Platform</desc>
			<rect x="0" y="543.601" width="369" height="36" class="st8"/>
			<text x="152.64" y="567" class="st9">Platform</text>		</g>
		<g id="shape77-34" transform="translate(396.375,-400.875)">
			<title>Rectangle.77</title>
			<desc>Other Macro-scheduler Implementations</desc>
			<path d="M0 579.6 L184.5 579.6 L184.5 521.1 L0 521.1 L0 579.6 Z" class="st10"/>
			<text x="33.91" y="546.75" class="st6">Other  Macro-scheduler <tspan x="50.57" dy="1.2em" class="st7">Implementations</tspan></text>		</g>
		<g id="shape78-38" transform="translate(211.875,-121.875)">
			<title>Rectangle.78</title>
			<desc>User Configuration</desc>
			<path d="M0 579.6 L369 579.6 L369 543.6 L0 543.6 L0 579.6 Z" class="st10"/>
			<text x="115.5" y="567" class="st5">User Configuration</text>		</g>
		<g id="shape79-41" transform="translate(211.875,-292.875)">
			<title>Rectangle.79</title>
			<desc>Micro-scheduler Interface</desc>
			<rect x="0" y="543.601" width="369" height="36" class="st4"/>
			<text x="89.62" y="567" class="st5">Micro-scheduler Interface</text>		</g>
		<g id="shape80-44" transform="translate(211.875,-328.875)">
			<title>Rectangle.80</title>
			<desc>Work-stealing Micro-scheduler</desc>
			<rect x="0" y="543.601" width="184.5" height="36" class="st4"/>
			<text x="16.87" y="565.2" class="st6">Work-stealing Micro-scheduler</text>		</g>
		<g id="shape81-47" transform="translate(396.375,-328.875)">
			<title>Rectangle.81</title>
			<desc>Other Micro-scheduler Impls</desc>
			<path d="M0 579.6 L184.5 579.6 L184.5 543.6 L0 543.6 L0 579.6 Z" class="st10"/>
			<text x="22.23" y="565.2" class="st6">Other Micro-scheduler Impls</text>		</g>
		<g id="shape82-50" transform="translate(0.375,-178.875)">
			<title>Cloud</title>
			<desc>Engine</desc>
			<path d="M7.08 540.31 A11.3719 12.7549 0 0 1 12.54 515.81 A23.0609 25.8655 0 0 1 46.01 495.13 A26.4803 29.7007 0 0 1
						 74.68 490.53 A16.6055 18.625 0 0 1 99.26 489 A18.9057 21.2049 0 0 1 129.31 496.66 A13.5181 15.1616 0 0 1
						 140.23 518.1 A16.7439 18.7796 0 0 1 126.58 548.74 A21.1238 23.692 0 0 1 96.54 564.05 A24.9067 27.9349 0
						 0 1 55.57 570.18 A31.5725 35.4111 0 0 1 20.06 564.05 A12.456 13.9709 0 0 1 7.08 540.31 Z" class="st11"/>
			<path d="M7.08 540.31 A11.3719 12.7549 0 0 1 12.54 515.81 A23.0609 25.8655 0 0 1 46.01 495.13 A26.4803 29.7007 0 0 1
						 74.68 490.53 A16.6055 18.625 0 0 1 99.26 489 A18.9057 21.2049 0 0 1 129.31 496.66 A13.5181 15.1616 0 0 1
						 140.23 518.1 A16.7439 18.7796 0 0 1 126.58 548.74 A21.1238 23.692 0 0 1 96.54 564.05 A24.9067 27.9349 0
						 0 1 55.57 570.18 A31.5725 35.4111 0 0 1 20.06 564.05 A12.456 13.9709 0 0 1 7.08 540.31" class="st12"/>
			<path d="M14.59 541.08 A11.3405 12.7197 0 0 1 7.08 540.31" class="st12"/>
			<path d="M53.51 566.35 A11.3898 12.775 -180 0 0 55.57 570.18" class="st12"/>
			<path d="M97.56 559.46 A9.19436 10.3126 0 0 1 96.54 564.05" class="st12"/>
			<path d="M118.38 536.48 A9.64786 10.8212 0 0 1 126.58 548.74" class="st12"/>
			<path d="M136.14 522.7 A8.80806 9.87928 -180 0 0 140.23 518.1" class="st12"/>
			<path d="M50.1 498.19 A13.5828 15.2342 -180 0 0 46.01 495.13" class="st12"/>
			<text x="47.37" y="537" class="st5">Engine</text>		</g>
		<g id="shape84-60" transform="translate(4.87498,-40.875)">
			<title>Rectangle.84</title>
			<desc>Engine Platform</desc>
			<rect x="0" y="543.601" width="152" height="36" class="st13"/>
			<text x="17.47" y="567" class="st5">Engine Platform</text>		</g>
		<g id="shape87-63" transform="translate(0.375,-0.375)">
			<title>Sheet.87</title>
			<desc>Move Platform layer into separate module (lib, dll, etc.)</desc>
			<rect x="0" y="543.601" width="160.5" height="36" class="st14"/>
			<text x="19.2" y="558" class="st6">Move Platform layer into <tspan x="7.39" dy="1.2em" class="st7">separate module (lib, dll, etc.)</tspan></text>		</g>
		<g id="shape88-67" transform="translate(181.375,-153.375)">
			<title>Sheet.88</title>
			<desc>This will bypass GTS Platform Layer</desc>
			<rect x="0" y="543.601" width="197" height="36" class="st14"/>
			<text x="13.01" y="565.2" class="st6">This will bypass GTS Platform Layer</text>		</g>
		<g id="shape89-70" transform="translate(396.375,-468.375)">
			<title>Dynamic connector.89</title>
			<path d="M0 579.6 C-0 512.1 -101.36 468.19 -178.09 487.54 C-272.26 511.3 -329.35 630.32 -335.63 764.49 L-335.64 764.85"
					class="st3"/>
		</g>
		<g id="shape91-75" transform="translate(251.125,-67.875)">
			<title>Sheet.91</title>
			<desc>Import into GTS and implement config file</desc>
			<rect x="0" y="543.601" width="152" height="36" class="st14"/>
			<text x="26.86" y="558" class="st6">Import into GTS and <tspan x="24.21" dy="1.2em" class="st7">implement config file</tspan></text>		</g>
	</g>
</svg>
