<?xml version="1.0" encoding="UTF-8" standalone="no"?>
<!DOCTYPE svg PUBLIC "-//W3C//DTD SVG 1.1//EN" "http://www.w3.org/Graphics/SVG/1.1/DTD/svg11.dtd">
<!-- Generated by Microsoft Visio, SVG Export Scheduling.svg Page-1 -->
<svg xmlns="http://www.w3.org/2000/svg" xmlns:xlink="http://www.w3.org/1999/xlink" xmlns:ev="http://www.w3.org/2001/xml-events"
		width="6.08216in" height="3.23509in" viewBox="0 0 437.916 232.927" xml:space="preserve" color-interpolation-filters="sRGB"
		class="st9">
	<style type="text/css">
	<![CDATA[
		.st1 {marker-end:url(#mrkr4-6);stroke:#002060;stroke-linecap:round;stroke-linejoin:round;stroke-width:2}
		.st2 {fill:#002060;fill-opacity:1;stroke:#002060;stroke-opacity:1;stroke-width:0.44247787610619}
		.st3 {fill:#002060;stroke:#002060;stroke-linecap:round;stroke-linejoin:round;stroke-width:1}
		.st4 {fill:#002060;stroke:none;stroke-linecap:round;stroke-linejoin:round;stroke-width:0.24}
		.st5 {fill:#fff2cc;stroke:#bf9000;stroke-linecap:round;stroke-linejoin:round;stroke-width:1}
		.st6 {fill:#000000;font-family:Calibri;font-size:1.5em}
		.st7 {fill:none;stroke:none;stroke-linecap:round;stroke-linejoin:round;stroke-width:0.75}
		.st8 {fill:#002060;font-family:Calibri;font-size:1.00001em}
		.st9 {fill:none;fill-rule:evenodd;font-size:12px;overflow:visible;stroke-linecap:square;stroke-miterlimit:3}
	]]>
	</style>

	<defs id="Markers">
		<g id="lend4">
			<path d="M 2 1 L 0 0 L 2 -1 L 2 1 " style="stroke:none"/>
		</g>
		<marker id="mrkr4-6" class="st2" refX="-4.52" orient="auto" markerUnits="strokeWidth" overflow="visible">
			<use xlink:href="#lend4" transform="scale(-2.26,-2.26) "/>
		</marker>
	</defs>
	<g>
		<title>Page-1</title>
		<g id="shape218-1" transform="translate(45.6229,-198.129)">
			<title>Dynamic connector.218</title>
			<path d="M6.4 232.93 L10.11 255.27" class="st1"/>
		</g>
		<g id="shape219-7" transform="translate(52.0273,-198.129)">
			<title>Dynamic connector.219</title>
			<path d="M0 232.93 L-29.18 258.31" class="st1"/>
		</g>
		<g id="shape220-12" transform="translate(52.0273,-198.129)">
			<title>Dynamic connector.220</title>
			<path d="M0 232.93 L53.76 280.56" class="st1"/>
		</g>
		<g id="shape221-17" transform="translate(71.4258,-81.7601)">
			<title>Dynamic connector.221</title>
			<path d="M-8.37 232.93 L-9.18 249.22" class="st1"/>
		</g>
		<g id="shape225-22" transform="translate(18.0545,-81.5)">
			<title>Dynamic connector.225</title>
			<path d="M0 232.93 L25.36 256.38" class="st1"/>
		</g>
		<g id="shape226-27" transform="translate(16.0273,-135.76)">
			<title>Dynamic connector.226</title>
			<path d="M0 232.93 L20.48 242.92 A3 3 0 0 1 25.87 245.55 L38.9 251.91" class="st1"/>
		</g>
		<g id="shape227-32" transform="translate(112.555,-113.445)">
			<title>Dynamic connector.227</title>
			<path d="M0 232.93 L-37.3 285.42" class="st1"/>
		</g>
		<g id="shape228-37" transform="translate(59.7618,-136.02)">
			<title>Dynamic connector.228</title>
			<path d="M0 232.93 L-33.83 251.96" class="st1"/>
		</g>
		<g id="shape230-42" transform="translate(36.5,-198.129)">
			<title>Circle.230</title>
			<path d="M0 217.4 A15.5273 15.5273 0 0 1 31.05 217.4 A15.5273 15.5273 0 1 1 0 217.4 Z" class="st3"/>
		</g>
		<g id="shape231-44" transform="translate(0.5,-135.76)">
			<title>Circle.231</title>
			<path d="M0 217.4 A15.5273 15.5273 0 0 1 31.05 217.4 A15.5273 15.5273 0 1 1 0 217.4 Z" class="st3"/>
		</g>
		<g id="shape232-46" transform="translate(97.0273,-113.445)">
			<title>Circle.232</title>
			<path d="M0 217.4 A15.5273 15.5273 0 0 1 31.05 217.4 A15.5273 15.5273 0 1 1 0 217.4 Z" class="st3"/>
		</g>
		<g id="shape233-48" transform="translate(44.2346,-136.02)">
			<title>Circle.233</title>
			<path d="M0 217.4 A15.5273 15.5273 0 0 1 31.05 217.4 A15.5273 15.5273 0 1 1 0 217.4 Z" class="st3"/>
		</g>
		<g id="shape234-50" transform="translate(47.5273,-81.7601)">
			<title>Circle.234</title>
			<path d="M0 217.4 A15.5273 15.5273 0 0 1 31.05 217.4 A15.5273 15.5273 0 1 1 0 217.4 Z" class="st3"/>
		</g>
		<g id="shape236-52" transform="translate(2.52726,-81.5)">
			<title>Circle.236</title>
			<path d="M0 217.4 A15.5273 15.5273 0 0 1 31.05 217.4 A15.5273 15.5273 0 1 1 0 217.4 Z" class="st3"/>
		</g>
		<g id="shape239-54" transform="translate(45.5,-25.3981)">
			<title>Circle.239</title>
			<path d="M0 217.4 A15.5273 15.5273 0 0 1 31.05 217.4 A15.5273 15.5273 0 1 1 0 217.4 Z" class="st3"/>
		</g>
		<g id="shape240-56" transform="translate(262.291,-219.53)">
			<title>Rectangle.240</title>
			<rect x="0" y="219.65" width="40.5" height="13.2773" class="st4"/>
		</g>
		<g id="shape241-58" transform="translate(262.291,-203.668)">
			<title>Rectangle.241</title>
			<rect x="0" y="219.65" width="40.5" height="13.2773" class="st4"/>
		</g>
		<g id="shape242-60" transform="translate(262.291,-187.807)">
			<title>Rectangle.242</title>
			<rect x="0" y="219.65" width="40.5" height="13.2773" class="st4"/>
		</g>
		<g id="shape246-62" transform="translate(262.291,-171.945)">
			<title>Rectangle.246</title>
			<rect x="0" y="219.65" width="40.5" height="13.2773" class="st4"/>
		</g>
		<g id="shape247-64" transform="translate(262.291,-156.084)">
			<title>Rectangle.247</title>
			<rect x="0" y="219.65" width="40.5" height="13.2773" class="st4"/>
		</g>
		<g id="shape248-66" transform="translate(262.291,-140.223)">
			<title>Rectangle.248</title>
			<rect x="0" y="219.65" width="40.5" height="13.2773" class="st4"/>
		</g>
		<g id="shape249-68" transform="translate(262.291,-124.361)">
			<title>Rectangle.249</title>
			<rect x="0" y="219.65" width="40.5" height="13.2773" class="st4"/>
		</g>
		<g id="shape250-70" transform="translate(262.291,-108.5)">
			<title>Rectangle.250</title>
			<rect x="0" y="219.65" width="40.5" height="13.2773" class="st4"/>
		</g>
		<g id="shape251-72" transform="translate(332.041,-219.53)">
			<title>Rectangle.251</title>
			<rect x="0" y="219.65" width="40.5" height="13.2773" class="st4"/>
		</g>
		<g id="shape252-74" transform="translate(332.041,-203.668)">
			<title>Rectangle.252</title>
			<rect x="0" y="219.65" width="40.5" height="13.2773" class="st4"/>
		</g>
		<g id="shape253-76" transform="translate(332.041,-187.807)">
			<title>Rectangle.253</title>
			<rect x="0" y="219.65" width="40.5" height="13.2773" class="st4"/>
		</g>
		<g id="shape254-78" transform="translate(332.041,-171.945)">
			<title>Rectangle.254</title>
			<rect x="0" y="219.65" width="40.5" height="13.2773" class="st4"/>
		</g>
		<g id="shape255-80" transform="translate(332.041,-156.084)">
			<title>Rectangle.255</title>
			<rect x="0" y="219.65" width="40.5" height="13.2773" class="st4"/>
		</g>
		<g id="shape256-82" transform="translate(332.041,-140.223)">
			<title>Rectangle.256</title>
			<rect x="0" y="219.65" width="40.5" height="13.2773" class="st4"/>
		</g>
		<g id="shape257-84" transform="translate(332.041,-124.361)">
			<title>Rectangle.257</title>
			<rect x="0" y="219.65" width="40.5" height="13.2773" class="st4"/>
		</g>
		<g id="shape258-86" transform="translate(332.041,-108.5)">
			<title>Rectangle.258</title>
			<rect x="0" y="219.65" width="40.5" height="13.2773" class="st4"/>
		</g>
		<g id="shape259-88" transform="translate(264.541,-0.5)">
			<title>Square.259</title>
			<desc>EE</desc>
			<rect x="0" y="196.927" width="36" height="36" class="st5"/>
			<text x="9.21" y="220.33" class="st6">EE</text>		</g>
		<g id="shape260-91" transform="translate(334.291,-0.5)">
			<title>Square.260</title>
			<desc>EE</desc>
			<rect x="0" y="196.927" width="36" height="36" class="st5"/>
			<text x="9.21" y="220.33" class="st6">EE</text>		</g>
		<g id="shape261-94" transform="translate(49.6142,187.427) rotate(-90)">
			<title>Simple Arrow</title>
			<path d="M0 232.93 L12 220.93 L12 226.93 L51.75 226.93 L51.75 232.93 L51.75 238.92 L12 238.92 L12 244.92 L0 232.93 Z"
					class="st4"/>
		</g>
		<g id="shape262-96" transform="translate(119.364,187.427) rotate(-90)">
			<title>Simple Arrow.262</title>
			<path d="M0 232.93 L12 220.93 L12 226.93 L51.75 226.93 L51.75 232.93 L51.75 238.92 L12 238.92 L12 244.92 L0 232.93 Z"
					class="st4"/>
		</g>
		<g id="shape263-98" transform="translate(221.791,334.854) rotate(180)">
			<title>Simple Arrow.263</title>
			<path d="M0 232.93 L12 220.93 L12 226.93 L63 226.93 L63 232.93 L63 238.92 L12 238.92 L12 244.92 L0 232.93 Z"
					class="st4"/>
		</g>
		<g id="shape264-100" transform="translate(154.541,-145.75)">
			<title>Sheet.264</title>
			<desc>build</desc>
			<rect x="0" y="212.927" width="62.5" height="20" class="st7"/>
			<text x="19.04" y="226.53" class="st8">build</text>		</g>
		<g id="shape265-103" transform="translate(375.041,-63.5)">
			<title>Sheet.265</title>
			<desc>execute</desc>
			<rect x="0" y="212.927" width="62.5" height="20" class="st7"/>
			<text x="12" y="226.53" class="st8">execute</text>		</g>
	</g>
</svg>
