<?xml version="1.0" encoding="UTF-8" standalone="no"?>
<!DOCTYPE svg PUBLIC "-//W3C//DTD SVG 1.1//EN" "http://www.w3.org/Graphics/SVG/1.1/DTD/svg11.dtd">
<!-- Generated by Microsoft Visio, SVG Export Task.svg Page-1 -->
<svg xmlns="http://www.w3.org/2000/svg" xmlns:xlink="http://www.w3.org/1999/xlink" xmlns:ev="http://www.w3.org/2001/xml-events"
		width="0.638887in" height="0.711806in" viewBox="0 0 45.9998 51.25" xml:space="preserve" color-interpolation-filters="sRGB"
		class="st6">
	<style type="text/css">
	<![CDATA[
		.st1 {fill:#d8d8d8;stroke:#7f7f7f;stroke-linecap:round;stroke-linejoin:round;stroke-width:1}
		.st2 {fill:#000000;font-family:Calibri;font-size:1.16666em}
		.st3 {fill:#e5b9b5;stroke:#c00000;stroke-linecap:round;stroke-linejoin:round;stroke-width:1}
		.st4 {fill:#000000;font-family:Calibri;font-size:0.833336em}
		.st5 {fill:#d7e3bf;stroke:#789440;stroke-linecap:round;stroke-linejoin:round;stroke-width:1}
		.st6 {fill:none;fill-rule:evenodd;font-size:12px;overflow:visible;stroke-linecap:square;stroke-miterlimit:3}
	]]>
	</style>

	<g>
		<title>Page-1</title>
		<g id="shape45-1" transform="translate(0.499926,-10.25)">
			<title>Rounded Rectangle.45</title>
			<desc>Task</desc>
			<path d="M4.5 51.25 L40.5 51.25 A4.49993 4.49993 -180 0 0 45 46.75 L45 25.75 A4.49993 4.49993 -180 0 0 40.5 21.25 L4.5
						 21.25 A4.49993 4.49993 -180 0 0 -0 25.75 L0 46.75 A4.49993 4.49993 -180 0 0 4.5 51.25 Z" class="st1"/>
			<text x="9.82" y="40.45" class="st2">Task</text>		</g>
		<g id="shape46-4" transform="translate(7.24992,-36.5)">
			<title>Rectangle.46</title>
			<desc>Func</desc>
			<rect x="0" y="37" width="31.5" height="14.25" class="st3"/>
			<text x="6.08" y="47.13" class="st4">Func</text>		</g>
		<g id="shape47-7" transform="translate(7.24992,-0.5)">
			<title>Rectangle.47</title>
			<desc>Data</desc>
			<rect x="0" y="37" width="31.5" height="14.25" class="st5"/>
			<text x="6.21" y="47.13" class="st4">Data</text>		</g>
	</g>
</svg>
