<?xml version="1.0" encoding="UTF-8" standalone="no"?>
<!DOCTYPE svg PUBLIC "-//W3C//DTD SVG 1.1//EN" "http://www.w3.org/Graphics/SVG/1.1/DTD/svg11.dtd">
<!-- Generated by Microsoft Visio, SVG Export Wavefront.svg Page-1 -->
<svg xmlns="http://www.w3.org/2000/svg" xmlns:xlink="http://www.w3.org/1999/xlink" xmlns:ev="http://www.w3.org/2001/xml-events"
		width="3.32611in" height="3.3587in" viewBox="0 0 239.48 241.826" xml:space="preserve" color-interpolation-filters="sRGB"
		class="st7">
	<style type="text/css">
	<![CDATA[
		.st1 {marker-start:url(#mrkr4-6);stroke:#002060;stroke-linecap:round;stroke-linejoin:round;stroke-width:2}
		.st2 {fill:#002060;fill-opacity:1;stroke:#002060;stroke-opacity:1;stroke-width:0.44247787610619}
		.st3 {fill:#000000;stroke:#000000;stroke-linecap:round;stroke-linejoin:round;stroke-width:0.24}
		.st4 {fill:#ffffff;stroke:#002060;stroke-linecap:round;stroke-linejoin:round;stroke-width:1}
		.st5 {fill:#000000;font-family:Calibri;font-size:0.833336em}
		.st6 {font-size:1em}
		.st7 {fill:none;fill-rule:evenodd;font-size:12px;overflow:visible;stroke-linecap:square;stroke-miterlimit:3}
	]]>
	</style>

	<defs id="Markers">
		<g id="lend4">
			<path d="M 2 1 L 0 0 L 2 -1 L 2 1 " style="stroke:none"/>
		</g>
		<marker id="mrkr4-6" class="st2" refX="4.34" orient="auto" markerUnits="strokeWidth" overflow="visible">
			<use xlink:href="#lend4" transform="scale(2.26) "/>
		</marker>
	</defs>
	<g>
		<title>Page-1</title>
		<g id="shape91-1" transform="translate(138.327,-224.75)">
			<title>Dynamic connector.91</title>
			<path d="M-8.68 250.83 L-9.04 250.83 L-18.59 250.83" class="st1"/>
		</g>
		<g id="shape90-7" transform="translate(69.3084,-206.75)">
			<title>Dynamic connector.90</title>
			<path d="M-9.4 232.83 L-9.76 232.83 L-17.28 232.83" class="st1"/>
		</g>
		<g id="shape93-12" transform="translate(17.4525,-172.288)">
			<title>Dynamic connector.93</title>
			<path d="M9 233.03 L9 232.67 L9 223.94" class="st1"/>
		</g>
		<g id="shape95-17" transform="translate(69.3084,-137.826)">
			<title>Dynamic connector.95</title>
			<path d="M-9.4 232.83 L-9.76 232.83 L-17.28 232.83" class="st1"/>
		</g>
		<g id="shape96-22" transform="translate(85.1644,-172.288)">
			<title>Dynamic connector.96</title>
			<path d="M9 233.03 L9 232.67 L9 223.94" class="st1"/>
		</g>
		<g id="shape97-27" transform="translate(17.4525,-102.65)">
			<title>Dynamic connector.97</title>
			<path d="M9 233.15 L9 232.79 L9 223.23" class="st1"/>
		</g>
		<g id="shape101-32" transform="translate(142.827,-213.5)">
			<title>Circle.406</title>
			<path d="M0 239.58 A2.25 2.25 0 0 1 4.5 239.58 A2.25 2.25 0 1 1 0 239.58 Z" class="st3"/>
		</g>
		<g id="shape102-34" transform="translate(151.827,-213.5)">
			<title>Circle.407</title>
			<path d="M0 239.58 A2.25 2.25 0 0 1 4.5 239.58 A2.25 2.25 0 1 1 0 239.58 Z" class="st3"/>
		</g>
		<g id="shape103-36" transform="translate(160.827,-213.5)">
			<title>Circle.408</title>
			<path d="M0 239.58 A2.25 2.25 0 0 1 4.5 239.58 A2.25 2.25 0 1 1 0 239.58 Z" class="st3"/>
		</g>
		<g id="shape108-38" transform="translate(188.39,-206.75)">
			<title>Dynamic connector.108</title>
			<path d="M-9.24 232.83 L-9.6 232.83 L-17.44 232.83" class="st1"/>
		</g>
		<g id="shape109-43" transform="translate(138.327,-155)">
			<title>Dynamic connector.109</title>
			<path d="M-8.68 250.83 L-9.04 250.83 L-18.59 250.83" class="st1"/>
		</g>
		<g id="shape110-48" transform="translate(142.827,-143.75)">
			<title>Circle.110</title>
			<path d="M0 239.58 A2.25 2.25 0 0 1 4.5 239.58 A2.25 2.25 0 1 1 0 239.58 Z" class="st3"/>
		</g>
		<g id="shape111-50" transform="translate(151.827,-143.75)">
			<title>Circle.111</title>
			<path d="M0 239.58 A2.25 2.25 0 0 1 4.5 239.58 A2.25 2.25 0 1 1 0 239.58 Z" class="st3"/>
		</g>
		<g id="shape112-52" transform="translate(160.827,-143.75)">
			<title>Circle.112</title>
			<path d="M0 239.58 A2.25 2.25 0 0 1 4.5 239.58 A2.25 2.25 0 1 1 0 239.58 Z" class="st3"/>
		</g>
		<g id="shape113-54" transform="translate(188.39,-137)">
			<title>Dynamic connector.113</title>
			<path d="M-9.24 232.83 L-9.6 232.83 L-17.44 232.83" class="st1"/>
		</g>
		<g id="shape114-59" transform="translate(138.914,-35.0761)">
			<title>Dynamic connector.114</title>
			<path d="M-8.68 250.83 L-9.04 250.83 L-18.59 250.83" class="st1"/>
		</g>
		<g id="shape115-64" transform="translate(143.414,-23.8261)">
			<title>Circle.115</title>
			<path d="M0 239.58 A2.25 2.25 0 0 1 4.5 239.58 A2.25 2.25 0 1 1 0 239.58 Z" class="st3"/>
		</g>
		<g id="shape116-66" transform="translate(152.414,-23.8261)">
			<title>Circle.116</title>
			<path d="M0 239.58 A2.25 2.25 0 0 1 4.5 239.58 A2.25 2.25 0 1 1 0 239.58 Z" class="st3"/>
		</g>
		<g id="shape117-68" transform="translate(161.414,-23.8261)">
			<title>Circle.117</title>
			<path d="M0 239.58 A2.25 2.25 0 0 1 4.5 239.58 A2.25 2.25 0 1 1 0 239.58 Z" class="st3"/>
		</g>
		<g id="shape118-70" transform="translate(188.977,-17.0761)">
			<title>Dynamic connector.118</title>
			<path d="M-9.24 232.83 L-9.6 232.83 L-17.44 232.83" class="st1"/>
		</g>
		<g id="shape119-75" transform="translate(-213.157,165.576) rotate(-90)">
			<title>Circle.119</title>
			<path d="M0 239.58 A2.25 2.25 0 0 1 4.5 239.58 A2.25 2.25 0 1 1 0 239.58 Z" class="st3"/>
		</g>
		<g id="shape120-77" transform="translate(-213.157,156.576) rotate(-90)">
			<title>Circle.120</title>
			<path d="M0 239.58 A2.25 2.25 0 0 1 4.5 239.58 A2.25 2.25 0 1 1 0 239.58 Z" class="st3"/>
		</g>
		<g id="shape121-79" transform="translate(-213.157,147.576) rotate(-90)">
			<title>Circle.121</title>
			<path d="M0 239.58 A2.25 2.25 0 0 1 4.5 239.58 A2.25 2.25 0 1 1 0 239.58 Z" class="st3"/>
		</g>
		<g id="shape122-81" transform="translate(17.4525,-51.6523)">
			<title>Dynamic connector.122</title>
			<path d="M9 233.15 L9 232.79 L9 222.48" class="st1"/>
		</g>
		<g id="shape123-86" transform="translate(84.9229,-102.65)">
			<title>Dynamic connector.123</title>
			<path d="M9 233.15 L9 232.79 L9 223.23" class="st1"/>
		</g>
		<g id="shape124-91" transform="translate(-145.686,165.576) rotate(-90)">
			<title>Circle.124</title>
			<path d="M0 239.58 A2.25 2.25 0 0 1 4.5 239.58 A2.25 2.25 0 1 1 0 239.58 Z" class="st3"/>
		</g>
		<g id="shape125-93" transform="translate(-145.686,156.576) rotate(-90)">
			<title>Circle.125</title>
			<path d="M0 239.58 A2.25 2.25 0 0 1 4.5 239.58 A2.25 2.25 0 1 1 0 239.58 Z" class="st3"/>
		</g>
		<g id="shape126-95" transform="translate(-145.686,147.576) rotate(-90)">
			<title>Circle.126</title>
			<path d="M0 239.58 A2.25 2.25 0 0 1 4.5 239.58 A2.25 2.25 0 1 1 0 239.58 Z" class="st3"/>
		</g>
		<g id="shape127-97" transform="translate(84.9229,-51.6522)">
			<title>Dynamic connector.127</title>
			<path d="M9 233.15 L9 232.79 L9 222.48" class="st1"/>
		</g>
		<g id="shape133-102" transform="translate(203.61,-102.574)">
			<title>Dynamic connector.133</title>
			<path d="M9 233.15 L9 232.79 L9 223.23" class="st1"/>
		</g>
		<g id="shape134-107" transform="translate(-26.9987,165.652) rotate(-90)">
			<title>Circle.134</title>
			<path d="M0 239.58 A2.25 2.25 0 0 1 4.5 239.58 A2.25 2.25 0 1 1 0 239.58 Z" class="st3"/>
		</g>
		<g id="shape135-109" transform="translate(-26.9987,156.652) rotate(-90)">
			<title>Circle.135</title>
			<path d="M0 239.58 A2.25 2.25 0 0 1 4.5 239.58 A2.25 2.25 0 1 1 0 239.58 Z" class="st3"/>
		</g>
		<g id="shape136-111" transform="translate(-26.9987,147.652) rotate(-90)">
			<title>Circle.136</title>
			<path d="M0 239.58 A2.25 2.25 0 0 1 4.5 239.58 A2.25 2.25 0 1 1 0 239.58 Z" class="st3"/>
		</g>
		<g id="shape137-113" transform="translate(203.61,-51.5761)">
			<title>Dynamic connector.137</title>
			<path d="M9 233.15 L9 232.79 L9 222.48" class="st1"/>
		</g>
		<g id="shape138-118" transform="translate(69.3084,-17.0761)">
			<title>Dynamic connector.138</title>
			<path d="M-9.4 232.83 L-9.76 232.83 L-17.28 232.83" class="st1"/>
		</g>
		<g id="shape139-123" transform="translate(204.404,-172.288)">
			<title>Dynamic connector.139</title>
			<path d="M9 233.03 L9 232.67 L9 223.94" class="st1"/>
		</g>
		<g id="shape85-128" transform="translate(187.827,-190.174)">
			<title>Circle.85</title>
			<desc>(n-2,0)</desc>
			<path d="M0 216.25 A25.5761 25.5761 0 1 1 51.15 216.25 A25.5761 25.5761 0 1 1 -0 216.25 Z" class="st4"/>
			<text x="12.07" y="219.25" class="st5">(n-2,0)</text>		</g>
		<g id="shape86-131" transform="translate(187.827,-0.5)">
			<title>Circle.86</title>
			<desc>(n-2,n-1) + (n-1,n-2)</desc>
			<path d="M0 216.25 A25.5761 25.5761 0 1 1 51.15 216.25 A25.5761 25.5761 0 1 1 -0 216.25 Z" class="st4"/>
			<text x="7.91" y="207.25" class="st5">(n-2,n-1) <tspan x="23.09" dy="1.2em" class="st6">+ </tspan><tspan x="7.91"
						dy="1.2em" class="st6">(n</tspan>-1,n-2)</text>		</g>
		<g id="shape87-136" transform="translate(0.876329,-0.5)">
			<title>Circle.87</title>
			<desc>(0,n-2)</desc>
			<path d="M0 216.25 A25.5761 25.5761 0 1 1 51.15 216.25 A25.5761 25.5761 0 1 1 -0 216.25 Z" class="st4"/>
			<text x="12.07" y="219.25" class="st5">(0,n-2)</text>		</g>
		<g id="shape88-139" transform="translate(0.876329,-190.174)">
			<title>Circle.88</title>
			<desc>1</desc>
			<path d="M0 216.25 A25.5761 25.5761 0 1 1 51.15 216.25 A25.5761 25.5761 0 1 1 -0 216.25 Z" class="st4"/>
			<text x="23.04" y="219.25" class="st5">1</text>		</g>
		<g id="shape89-142" transform="translate(68.5883,-190.174)">
			<title>Circle.89</title>
			<desc>(0,0)</desc>
			<path d="M0 216.25 A25.5761 25.5761 0 1 1 51.15 216.25 A25.5761 25.5761 0 1 1 -0 216.25 Z" class="st4"/>
			<text x="16.23" y="219.25" class="st5">(0,0)</text>		</g>
		<g id="shape92-145" transform="translate(0.876329,-121.25)">
			<title>Circle.92</title>
			<desc>(0,0)</desc>
			<path d="M0 216.25 A25.5761 25.5761 0 1 1 51.15 216.25 A25.5761 25.5761 0 1 1 -0 216.25 Z" class="st4"/>
			<text x="16.23" y="219.25" class="st5">(0,0)</text>		</g>
		<g id="shape94-148" transform="translate(68.5883,-121.25)">
			<title>Circle.94</title>
			<desc>(1,0) + (0,1)</desc>
			<path d="M0 216.25 A25.5761 25.5761 0 1 1 51.15 216.25 A25.5761 25.5761 0 1 1 -0 216.25 Z" class="st4"/>
			<text x="16.23" y="207.25" class="st5">(1,0) <tspan x="23.09" dy="1.2em" class="st6">+ </tspan><tspan x="16.23"
						dy="1.2em" class="st6">(0,1)</tspan></text>		</g>
		<g id="shape98-153" transform="translate(187.827,-121.25)">
			<title>Circle.98</title>
			<desc>(n-2,0) + (0,1)</desc>
			<path d="M0 216.25 A25.5761 25.5761 0 1 1 51.15 216.25 A25.5761 25.5761 0 1 1 -0 216.25 Z" class="st4"/>
			<text x="12.07" y="207.25" class="st5">(n-2,0) <tspan x="23.09" dy="1.2em" class="st6">+ </tspan><tspan x="16.23"
						dy="1.2em" class="st6">(0,1)</tspan></text>		</g>
		<g id="shape99-158" transform="translate(68.5883,-0.5)">
			<title>Circle.99</title>
			<desc>(1,0) + (0,n-2)</desc>
			<path d="M0 216.25 A25.5761 25.5761 0 1 1 51.15 216.25 A25.5761 25.5761 0 1 1 -0 216.25 Z" class="st4"/>
			<text x="16.23" y="207.25" class="st5">(1,0) <tspan x="23.09" dy="1.2em" class="st6">+ </tspan><tspan x="12.07"
						dy="1.2em" class="st6">(0,n</tspan>-2)</text>		</g>
	</g>
</svg>
