<?xml version="1.0" encoding="UTF-8" standalone="no"?>
<!DOCTYPE svg PUBLIC "-//W3C//DTD SVG 1.1//EN" "http://www.w3.org/Graphics/SVG/1.1/DTD/svg11.dtd">
<!-- Generated by Microsoft Visio, SVG Export WorkerPoolMapping.svg Page-1 -->
<svg xmlns="http://www.w3.org/2000/svg" xmlns:xlink="http://www.w3.org/1999/xlink" xmlns:ev="http://www.w3.org/2001/xml-events"
		width="2.37833in" height="2.71427in" viewBox="0 0 171.24 195.428" xml:space="preserve" color-interpolation-filters="sRGB"
		class="st10">
	<style type="text/css">
	<![CDATA[
		.st1 {fill:#eee7a4;stroke:#000000;stroke-linecap:round;stroke-linejoin:round;stroke-width:0.24}
		.st2 {fill:#000000;font-family:Calibri;font-size:0.833336em}
		.st3 {fill:#d8d8d8;stroke:#000000;stroke-linecap:round;stroke-linejoin:round;stroke-width:0.24}
		.st4 {fill:#000000;stroke:#000000;stroke-linecap:round;stroke-linejoin:round;stroke-width:0.24}
		.st5 {fill:#f2f2f2;stroke:#000000;stroke-linecap:round;stroke-linejoin:round;stroke-width:0.24}
		.st6 {fill:#000000;font-family:Calibri;font-size:0.666664em}
		.st7 {fill:#ffffff;stroke:#000000;stroke-linecap:round;stroke-linejoin:round;stroke-width:0.24}
		.st8 {fill:#f8f4d6;stroke:#000000;stroke-linecap:round;stroke-linejoin:round;stroke-width:0.24}
		.st9 {stroke:#000000;stroke-dasharray:1.68,1.2;stroke-linecap:round;stroke-linejoin:round;stroke-width:0.24}
		.st10 {fill:none;fill-rule:evenodd;font-size:12px;overflow:visible;stroke-linecap:square;stroke-miterlimit:3}
	]]>
	</style>

	<g>
		<title>Page-1</title>
		<g id="shape365-1" transform="translate(0.12,-112.62)">
			<title>Rectangle.349</title>
			<desc>Worker Pool</desc>
			<rect x="0" y="112.74" width="171" height="82.6875" class="st1"/>
			<text x="60.03" y="125.74" class="st2">Worker Pool</text>		</g>
		<g id="group363-4" transform="translate(31.62,-0.12)">
			<title>Sheet.363</title>
			<g id="shape349-5">
				<title>Rectangle.349</title>
				<desc>Socket</desc>
				<rect x="0" y="105.428" width="108" height="90" class="st3"/>
				<text x="40.52" y="118.43" class="st2">Socket</text>			</g>
			<g id="group332-8" transform="translate(48.5625,-35.5994)">
				<title>Sheet.332</title>
				<g id="shape333-9">
					<title>Circle.126</title>
					<path d="M0 194.49 a0.9375 0.9375 0 1 1 1.875 0 a0.9375 0.9375 0 1 1 -1.875 0 Z" class="st4"/>
				</g>
				<g id="shape334-11" transform="translate(4.5,2.84217E-14)">
					<title>Circle.127</title>
					<path d="M0 194.49 a0.9375 0.9375 0 1 1 1.875 0 a0.9375 0.9375 0 1 1 -1.875 0 Z" class="st4"/>
				</g>
				<g id="shape335-13" transform="translate(9,2.84217E-14)">
					<title>Circle.128</title>
					<path d="M0 194.49 a0.9375 0.9375 0 1 1 1.875 0 a0.9375 0.9375 0 1 1 -1.875 0 Z" class="st4"/>
				</g>
			</g>
			<g id="shape337-15" transform="translate(6.74999,-5.57385)">
				<title>Rectangle.170</title>
				<desc>Core</desc>
				<rect x="0" y="131.251" width="40.5" height="64.1761" class="st5"/>
				<text x="12.62" y="142.45" class="st6">Core</text>			</g>
			<g id="shape341-18" transform="translate(60.75,-5.57385)">
				<title>Rectangle.341</title>
				<desc>Core</desc>
				<rect x="0" y="131.251" width="40.5" height="64.1761" class="st5"/>
				<text x="12.62" y="142.45" class="st6">Core</text>			</g>
			<g id="group345-21" transform="translate(64.125,-8.99998)">
				<title>Sheet.345</title>
				<g id="shape342-22" transform="translate(-179.678,195.428) rotate(-90)">
					<title>Rectangle.342</title>
					<desc>HW Thread</desc>
					<rect x="0" y="179.678" width="45" height="15.75" class="st7"/>
					<text x="4.09" y="189.95" class="st6">HW Thread</text>				</g>
				<g id="shape343-25" transform="translate(-161.678,195.428) rotate(-90)">
					<title>Rectangle.343</title>
					<desc>HW Thread</desc>
					<rect x="0" y="179.678" width="45" height="15.75" class="st7"/>
					<text x="4.09" y="189.95" class="st6">HW Thread</text>				</g>
			</g>
			<g id="group346-28" transform="translate(10.125,-8.99998)">
				<title>Sheet.346</title>
				<g id="shape347-29" transform="translate(-179.678,195.428) rotate(-90)">
					<title>Rectangle.342</title>
					<desc>HW Thread</desc>
					<rect x="0" y="179.678" width="45" height="15.75" class="st7"/>
					<text x="4.09" y="189.95" class="st6">HW Thread</text>				</g>
				<g id="shape348-32" transform="translate(-161.678,195.428) rotate(-90)">
					<title>Rectangle.343</title>
					<desc>HW Thread</desc>
					<rect x="0" y="179.678" width="45" height="15.75" class="st7"/>
					<text x="4.09" y="189.95" class="st6">HW Thread</text>				</g>
			</g>
		</g>
		<g id="group366-35" transform="translate(80.1825,-147.657)">
			<title>Sheet.366</title>
			<g id="shape367-36">
				<title>Circle.126</title>
				<path d="M0 194.49 a0.9375 0.9375 0 1 1 1.875 0 a0.9375 0.9375 0 1 1 -1.875 0 Z" class="st4"/>
			</g>
			<g id="shape368-38" transform="translate(4.5,2.84217E-14)">
				<title>Circle.127</title>
				<path d="M0 194.49 a0.9375 0.9375 0 1 1 1.875 0 a0.9375 0.9375 0 1 1 -1.875 0 Z" class="st4"/>
			</g>
			<g id="shape369-40" transform="translate(9,2.84217E-14)">
				<title>Circle.128</title>
				<path d="M0 194.49 a0.9375 0.9375 0 1 1 1.875 0 a0.9375 0.9375 0 1 1 -1.875 0 Z" class="st4"/>
			</g>
		</g>
		<g id="group401-42" transform="translate(-118.808,74.37) rotate(-90)">
			<title>Sheet.401</title>
			<g id="shape400-43">
				<title>Rectangle.400</title>
				<desc>Worker</desc>
				<rect x="0" y="161.678" width="54" height="33.75" class="st8"/>
				<text x="14.73" y="172.88" class="st6">Worker</text>			</g>
			<g id="shape399-46" transform="translate(4.49998,-3.37498)">
				<title>Rectangle.399</title>
				<desc>SW Thread</desc>
				<rect x="0" y="179.678" width="45" height="15.75" class="st7"/>
				<text x="4.75" y="189.95" class="st6">SW Thread</text>			</g>
		</g>
		<g id="group403-49" transform="translate(-154.808,74.37) rotate(-90)">
			<title>Sheet.403</title>
			<g id="shape404-50">
				<title>Rectangle.400</title>
				<desc>Worker</desc>
				<rect x="0" y="161.678" width="54" height="33.75" class="st8"/>
				<text x="14.73" y="172.88" class="st6">Worker</text>			</g>
			<g id="shape405-53" transform="translate(4.49998,-3.37498)">
				<title>Rectangle.399</title>
				<desc>SW Thread</desc>
				<rect x="0" y="179.678" width="45" height="15.75" class="st7"/>
				<text x="4.75" y="189.95" class="st6">SW Thread</text>			</g>
		</g>
		<g id="group406-56" transform="translate(-31.0575,74.37) rotate(-90)">
			<title>Sheet.406</title>
			<g id="shape407-57">
				<title>Rectangle.400</title>
				<desc>Worker</desc>
				<rect x="0" y="161.678" width="54" height="33.75" class="st8"/>
				<text x="14.73" y="172.88" class="st6">Worker</text>			</g>
			<g id="shape408-60" transform="translate(4.49998,-3.37498)">
				<title>Rectangle.399</title>
				<desc>SW Thread</desc>
				<rect x="0" y="179.678" width="45" height="15.75" class="st7"/>
				<text x="4.75" y="189.95" class="st6">SW Thread</text>			</g>
		</g>
		<g id="group409-63" transform="translate(-67.0575,74.37) rotate(-90)">
			<title>Sheet.409</title>
			<g id="shape410-64">
				<title>Rectangle.400</title>
				<desc>Worker</desc>
				<rect x="0" y="161.678" width="54" height="33.75" class="st8"/>
				<text x="14.73" y="172.88" class="st6">Worker</text>			</g>
			<g id="shape411-67" transform="translate(4.49998,-3.37498)">
				<title>Rectangle.399</title>
				<desc>SW Thread</desc>
				<rect x="0" y="179.678" width="45" height="15.75" class="st7"/>
				<text x="4.75" y="189.95" class="st6">SW Thread</text>			</g>
		</g>
		<g id="shape414-70" transform="translate(188.31,30.1144) rotate(74.3578)">
			<title>Multi-Line</title>
			<path d="M0 195.43 L116.83 195.43" class="st9"/>
		</g>
		<g id="shape415-73" transform="translate(359.31,135.501) rotate(105.642)">
			<title>Multi-Line.415</title>
			<path d="M0 195.43 L116.83 195.43" class="st9"/>
		</g>
	</g>
</svg>
