<?xml version="1.0" encoding="UTF-8" standalone="no"?>
<!DOCTYPE svg PUBLIC "-//W3C//DTD SVG 1.1//EN" "http://www.w3.org/Graphics/SVG/1.1/DTD/svg11.dtd">
<!-- Generated by Microsoft Visio, SVG Export WorkSpan.svg Page-1 -->
<svg xmlns="http://www.w3.org/2000/svg" xmlns:xlink="http://www.w3.org/1999/xlink" xmlns:ev="http://www.w3.org/2001/xml-events"
		width="3.78385in" height="3.48316in" viewBox="0 0 272.437 250.787" xml:space="preserve" color-interpolation-filters="sRGB"
		class="st9">
	<style type="text/css">
	<![CDATA[
		.st1 {fill:none;stroke:none;stroke-linecap:round;stroke-linejoin:round;stroke-width:0.75}
		.st2 {fill:#002060;font-family:Times New Roman;font-size:1.33333em;font-style:italic;font-weight:bold}
		.st3 {marker-end:url(#mrkr4-9);stroke:#002060;stroke-linecap:round;stroke-linejoin:round;stroke-width:2}
		.st4 {fill:#002060;fill-opacity:1;stroke:#002060;stroke-opacity:1;stroke-width:0.44247787610619}
		.st5 {fill:#002060;stroke:#002060;stroke-linecap:round;stroke-linejoin:round;stroke-width:1}
		.st6 {fill:#ffffff;stroke:#002060;stroke-linecap:round;stroke-linejoin:round;stroke-width:1}
		.st7 {baseline-shift:-32.4948%;font-size:0.649895em}
		.st8 {font-size:1em}
		.st9 {fill:none;fill-rule:evenodd;font-size:12px;overflow:visible;stroke-linecap:square;stroke-miterlimit:3}
	]]>
	</style>

	<defs id="Markers">
		<g id="lend4">
			<path d="M 2 1 L 0 0 L 2 -1 L 2 1 " style="stroke:none"/>
		</g>
		<marker id="mrkr4-9" class="st4" refX="-4.52" orient="auto" markerUnits="strokeWidth" overflow="visible">
			<use xlink:href="#lend4" transform="scale(-2.26,-2.26) "/>
		</marker>
	</defs>
	<g>
		<title>Page-1</title>
		<g id="shape195-1" transform="translate(228.348,-110.192)">
			<title>Sheet.195</title>
			<desc>= 5</desc>
			<rect x="0" y="203.597" width="31.0545" height="47.1905" class="st1"/>
			<text x="4" y="231.99" class="st2">= 5</text>		</g>
		<g id="shape182-4" transform="translate(84.2073,-219.233)">
			<title>Dynamic connector.182</title>
			<path d="M9 250.79 L9 265.21" class="st3"/>
		</g>
		<g id="shape169-10" transform="translate(77.6801,-234.76)">
			<title>Dynamic connector.169</title>
			<path d="M0 250.79 L-50.19 284.72" class="st3"/>
		</g>
		<g id="shape170-15" transform="translate(108.735,-234.76)">
			<title>Dynamic connector.170</title>
			<path d="M0 250.79 L58.93 285.22" class="st3"/>
		</g>
		<g id="shape184-20" transform="translate(62.9727,-112.61)">
			<title>Dynamic connector.184</title>
			<path d="M4.5 253.2 L8.4 258.91" class="st3"/>
		</g>
		<g id="shape185-25" transform="translate(76.4727,-65.9727)">
			<title>Dynamic connector.185</title>
			<path d="M0 250.79 L13.81 277.19" class="st3"/>
		</g>
		<g id="shape186-30" transform="translate(125.527,-110.192)">
			<title>Dynamic connector.186</title>
			<path d="M0 250.79 L-27.73 321.02" class="st3"/>
		</g>
		<g id="shape187-35" transform="translate(175.473,-110.192)">
			<title>Dynamic connector.187</title>
			<path d="M0 250.79 L-64.2 327.06" class="st3"/>
		</g>
		<g id="shape188-40" transform="translate(20,-110.192)">
			<title>Dynamic connector.188</title>
			<path d="M0 250.79 L58.01 326.79" class="st3"/>
		</g>
		<g id="shape189-45" transform="translate(11,-164.713)">
			<title>Dynamic connector.189</title>
			<path d="M9 250.79 L9 265.21" class="st3"/>
		</g>
		<g id="shape190-50" transform="translate(166.473,-164.713)">
			<title>Dynamic connector.190</title>
			<path d="M9 250.79 L9 265.21" class="st3"/>
		</g>
		<g id="shape191-55" transform="translate(93.2073,-164.713)">
			<title>Dynamic connector.191</title>
			<path d="M0 250.79 L-19.05 268.16" class="st3"/>
		</g>
		<g id="shape192-60" transform="translate(93.2073,-164.713)">
			<title>Dynamic connector.192</title>
			<path d="M0 250.79 L25 268.94" class="st3"/>
		</g>
		<g id="shape171-65" transform="translate(77.6801,-219.233)">
			<title>Circle.171</title>
			<path d="M0 235.26 A15.5273 15.5273 0 0 1 31.05 235.26 A15.5273 15.5273 0 1 1 0 235.26 Z" class="st5"/>
		</g>
		<g id="shape172-67" transform="translate(4.47274,-164.713)">
			<title>Circle.172</title>
			<path d="M0 235.26 A15.5273 15.5273 0 0 1 31.05 235.26 A15.5273 15.5273 0 1 1 0 235.26 Z" class="st6"/>
		</g>
		<g id="shape173-69" transform="translate(159.945,-164.713)">
			<title>Circle.173</title>
			<path d="M0 235.26 A15.5273 15.5273 0 0 1 31.05 235.26 A15.5273 15.5273 0 1 1 0 235.26 Z" class="st6"/>
		</g>
		<g id="shape175-71" transform="translate(77.6801,-164.713)">
			<title>Circle.175</title>
			<path d="M0 235.26 A15.5273 15.5273 0 0 1 31.05 235.26 A15.5273 15.5273 0 1 1 0 235.26 Z" class="st5"/>
		</g>
		<g id="shape176-73" transform="translate(51.9455,-110.192)">
			<title>Circle.176</title>
			<path d="M0 235.26 A15.5273 15.5273 0 0 1 31.05 235.26 A15.5273 15.5273 0 1 1 0 235.26 Z" class="st5"/>
		</g>
		<g id="shape177-75" transform="translate(110,-110.192)">
			<title>Circle.177</title>
			<path d="M0 235.26 A15.5273 15.5273 0 0 1 31.05 235.26 A15.5273 15.5273 0 1 1 0 235.26 Z" class="st6"/>
		</g>
		<g id="shape178-77" transform="translate(4.47274,-110.192)">
			<title>Circle.178</title>
			<path d="M0 235.26 A15.5273 15.5273 0 0 1 31.05 235.26 A15.5273 15.5273 0 1 1 0 235.26 Z" class="st6"/>
		</g>
		<g id="shape179-79" transform="translate(159.945,-110.192)">
			<title>Circle.179</title>
			<path d="M0 235.26 A15.5273 15.5273 0 0 1 31.05 235.26 A15.5273 15.5273 0 1 1 0 235.26 Z" class="st6"/>
		</g>
		<g id="shape180-81" transform="translate(60.9455,-65.9727)">
			<title>Circle.180</title>
			<path d="M0 235.26 A15.5273 15.5273 0 0 1 31.05 235.26 A15.5273 15.5273 0 1 1 0 235.26 Z" class="st5"/>
		</g>
		<g id="shape181-83" transform="translate(78.9455,-0.5)">
			<title>Circle.181</title>
			<path d="M0 235.26 A15.5273 15.5273 0 0 1 31.05 235.26 A15.5273 15.5273 0 1 1 0 235.26 Z" class="st5"/>
		</g>
		<g id="shape193-85" transform="translate(209,-129.905)">
			<title>Sheet.193</title>
			<desc>T1 = 10</desc>
			<rect x="0" y="203.597" width="63.0625" height="47.1905" class="st1"/>
			<text x="4" y="231.99" class="st2">T<tspan dy="-0.279em" class="st7">1</tspan><tspan dy="0.181em" class="st8"> </tspan>= 10</text>		</g>
		<g id="shape194-90" transform="translate(209.891,-109.655)">
			<title>Sheet.194</title>
			<desc>T∞</desc>
			<rect x="0" y="203.597" width="26.1091" height="47.1905" class="st1"/>
			<text x="4" y="231.99" class="st2">T<tspan dy="-0.279em" class="st7">∞</tspan></text>		</g>
	</g>
</svg>
