<?xml version="1.0" encoding="UTF-8" standalone="no"?>
<!DOCTYPE svg PUBLIC "-//W3C//DTD SVG 1.1//EN" "http://www.w3.org/Graphics/SVG/1.1/DTD/svg11.dtd">
<!-- Generated by Microsoft Visio, SVG Export WorkStealing.svg Page-1 -->
<svg xmlns="http://www.w3.org/2000/svg" xmlns:xlink="http://www.w3.org/1999/xlink" xmlns:ev="http://www.w3.org/2001/xml-events"
		width="1.75333in" height="3.36979in" viewBox="0 0 126.24 242.625" xml:space="preserve" color-interpolation-filters="sRGB"
		class="st10">
	<style type="text/css">
	<![CDATA[
		.st1 {fill:#002060;stroke:none;stroke-linecap:round;stroke-linejoin:round;stroke-width:0.24}
		.st2 {fill:#fff2cc;stroke:#bf9000;stroke-linecap:round;stroke-linejoin:round;stroke-width:1}
		.st3 {fill:#000000;font-family:Calibri;font-size:1.5em}
		.st4 {marker-end:url(#mrkr4-28);marker-start:url(#mrkr4-26);stroke:#002060;stroke-linecap:round;stroke-linejoin:round;stroke-width:2}
		.st5 {fill:#002060;fill-opacity:1;stroke:#002060;stroke-opacity:1;stroke-width:0.44247787610619}
		.st6 {fill:#000000;stroke:#000000;stroke-linecap:round;stroke-linejoin:round;stroke-width:0.24}
		.st7 {marker-end:url(#mrkr4-74);marker-start:url(#mrkr4-26);stroke:#002060;stroke-linecap:round;stroke-linejoin:round;stroke-width:2}
		.st8 {fill:none;stroke:none;stroke-linecap:round;stroke-linejoin:round;stroke-width:0.75}
		.st9 {fill:#002060;font-family:Calibri;font-size:1.00001em}
		.st10 {fill:none;fill-rule:evenodd;font-size:12px;overflow:visible;stroke-linecap:square;stroke-miterlimit:3}
	]]>
	</style>

	<defs id="Markers">
		<g id="lend4">
			<path d="M 2 1 L 0 0 L 2 -1 L 2 1 " style="stroke:none"/>
		</g>
		<marker id="mrkr4-26" class="st5" refX="4.34" orient="auto" markerUnits="strokeWidth" overflow="visible">
			<use xlink:href="#lend4" transform="scale(2.26) "/>
		</marker>
		<marker id="mrkr4-28" class="st5" refX="-4.52" orient="auto" markerUnits="strokeWidth" overflow="visible">
			<use xlink:href="#lend4" transform="scale(-2.26,-2.26) "/>
		</marker>
		<marker id="mrkr4-74" class="st5" refX="-4.34" orient="auto" markerUnits="strokeWidth" overflow="visible">
			<use xlink:href="#lend4" transform="scale(-2.26,-2.26) "/>
		</marker>
	</defs>
	<g>
		<title>Page-1</title>
		<g id="shape382-1" transform="translate(0.12,-176.223)">
			<title>Rectangle.382</title>
			<rect x="0" y="229.348" width="40.5" height="13.2773" class="st1"/>
		</g>
		<g id="shape383-3" transform="translate(0.12,-160.361)">
			<title>Rectangle.383</title>
			<rect x="0" y="229.348" width="40.5" height="13.2773" class="st1"/>
		</g>
		<g id="shape384-5" transform="translate(0.12,-144.5)">
			<title>Rectangle.384</title>
			<rect x="0" y="229.348" width="40.5" height="13.2773" class="st1"/>
		</g>
		<g id="shape385-7" transform="translate(0.12,-128.639)">
			<title>Rectangle.385</title>
			<rect x="0" y="229.348" width="40.5" height="13.2773" class="st1"/>
		</g>
		<g id="shape386-9" transform="translate(0.12,-112.777)">
			<title>Rectangle.386</title>
			<rect x="0" y="229.348" width="40.5" height="13.2773" class="st1"/>
		</g>
		<g id="shape387-11" transform="translate(0.12,-96.9159)">
			<title>Rectangle.387</title>
			<rect x="0" y="229.348" width="40.5" height="13.2773" class="st1"/>
		</g>
		<g id="shape388-13" transform="translate(0.12,-81.0546)">
			<title>Rectangle.388</title>
			<rect x="0" y="229.348" width="40.5" height="13.2773" class="st1"/>
		</g>
		<g id="shape389-15" transform="translate(0.12,-65.1932)">
			<title>Rectangle.389</title>
			<rect x="0" y="229.348" width="40.5" height="13.2773" class="st1"/>
		</g>
		<g id="shape390-17" transform="translate(2.37001,-0.500006)">
			<title>Square.390</title>
			<desc>EE</desc>
			<rect x="0" y="206.625" width="36" height="36" class="st2"/>
			<text x="9.21" y="230.03" class="st3">EE</text>		</g>
		<g id="shape392-20" transform="translate(29.37,-65.1932)">
			<title>Dynamic connector.392</title>
			<path d="M-9 251.3 L-9 251.66 L-9 262.28" class="st4"/>
		</g>
		<g id="shape393-29" transform="translate(85.6199,-176.223)">
			<title>Rectangle.393</title>
			<rect x="0" y="229.348" width="40.5" height="13.2773" class="st1"/>
		</g>
		<g id="shape394-31" transform="translate(85.6199,-160.361)">
			<title>Rectangle.394</title>
			<rect x="0" y="229.348" width="40.5" height="13.2773" class="st1"/>
		</g>
		<g id="shape395-33" transform="translate(85.6199,-144.5)">
			<title>Rectangle.395</title>
			<rect x="0" y="229.348" width="40.5" height="13.2773" class="st1"/>
		</g>
		<g id="shape396-35" transform="translate(85.6199,-128.639)">
			<title>Rectangle.396</title>
			<rect x="0" y="229.348" width="40.5" height="13.2773" class="st1"/>
		</g>
		<g id="shape397-37" transform="translate(85.6199,-112.777)">
			<title>Rectangle.397</title>
			<rect x="0" y="229.348" width="40.5" height="13.2773" class="st1"/>
		</g>
		<g id="shape398-39" transform="translate(85.6199,-96.9159)">
			<title>Rectangle.398</title>
			<rect x="0" y="229.348" width="40.5" height="13.2773" class="st1"/>
		</g>
		<g id="shape399-41" transform="translate(85.6199,-81.0546)">
			<title>Rectangle.399</title>
			<rect x="0" y="229.348" width="40.5" height="13.2773" class="st1"/>
		</g>
		<g id="shape400-43" transform="translate(85.6199,-65.1932)">
			<title>Rectangle.400</title>
			<rect x="0" y="229.348" width="40.5" height="13.2773" class="st1"/>
		</g>
		<g id="shape401-45" transform="translate(87.87,-0.5)">
			<title>Square.401</title>
			<desc>EE</desc>
			<rect x="0" y="206.625" width="36" height="36" class="st2"/>
			<text x="9.21" y="230.03" class="st3">EE</text>		</g>
		<g id="shape402-48" transform="translate(114.87,-65.1932)">
			<title>Dynamic connector.402</title>
			<path d="M-9 251.3 L-9 251.66 L-9 262.28" class="st4"/>
		</g>
		<g id="shape403-55" transform="translate(51.87,-16.25)">
			<title>Circle.403</title>
			<path d="M0 240.37 A2.25 2.25 0 0 1 4.5 240.37 A2.25 2.25 0 1 1 0 240.37 Z" class="st6"/>
		</g>
		<g id="shape404-57" transform="translate(60.87,-16.25)">
			<title>Circle.404</title>
			<path d="M0 240.37 A2.25 2.25 0 0 1 4.5 240.37 A2.25 2.25 0 1 1 0 240.37 Z" class="st6"/>
		</g>
		<g id="shape405-59" transform="translate(69.87,-16.25)">
			<title>Circle.405</title>
			<path d="M0 240.37 A2.25 2.25 0 0 1 4.5 240.37 A2.25 2.25 0 1 1 0 240.37 Z" class="st6"/>
		</g>
		<g id="shape406-61" transform="translate(51.8701,-124.25)">
			<title>Circle.406</title>
			<path d="M0 240.37 A2.25 2.25 0 0 1 4.5 240.37 A2.25 2.25 0 1 1 0 240.37 Z" class="st6"/>
		</g>
		<g id="shape407-63" transform="translate(60.8701,-124.25)">
			<title>Circle.407</title>
			<path d="M0 240.37 A2.25 2.25 0 0 1 4.5 240.37 A2.25 2.25 0 1 1 0 240.37 Z" class="st6"/>
		</g>
		<g id="shape408-65" transform="translate(69.8701,-124.25)">
			<title>Circle.408</title>
			<path d="M0 240.37 A2.25 2.25 0 0 1 4.5 240.37 A2.25 2.25 0 1 1 0 240.37 Z" class="st6"/>
		</g>
		<g id="shape409-67" transform="translate(20.37,-198.5)">
			<title>Dynamic connector.409</title>
			<path d="M2.59 243.34 L2.7 243 C9.1 232.56 25.93 223.5 42.75 223.5 C59.57 223.5 76.4 232.56 82.8 243 L82.91 243.34"
					class="st7"/>
		</g>
		<g id="shape410-75" transform="translate(42.87,-222.25)">
			<title>Sheet.410</title>
			<desc>steal</desc>
			<rect x="0" y="222.625" width="40.5" height="20" class="st8"/>
			<text x="8.66" y="236.23" class="st9">steal</text>		</g>
		<g id="shape412-78" transform="translate(30.4951,-42.125)">
			<title>Sheet.412</title>
			<desc>push/pop</desc>
			<rect x="0" y="222.625" width="63" height="20" class="st8"/>
			<text x="7.91" y="236.23" class="st9">push/pop</text>		</g>
	</g>
</svg>
